<svg xmlns="http://www.w3.org/2000/svg" height="1920" width="677.33mm" xmlns:xlink="http://www.w3.org/1999/xlink" viewBox="0 0 2400 1800"><defs><clipPath id="a" clipPathUnits="userSpaceOnUse"><path opacity=".599" d="M-2471.4-881.92h2400v1800h-2400z"/></clipPath></defs><g clip-path="url(#a)" transform="translate(2471.4 881.92)"><g id="b"><path d="m5701.1 3854.1 7.053-.687c22.693-2.209 55.695-.301 53.374 3.126-.646.954-6.76 2.224-15.649 3.252-31.653 3.66-57.664 13.662-83.142 34.093-22.702 18.205-28.697 20.818-36.434 15.882-19.448-12.407 5.473-36.686 45.95-49.513 3.952-1.253 25.302-5.806 28.85-6.153m90.598 4.8c34.955-3.645 64.205.039 83.268 7.483 10.607 4.141 10.043 4.651-3.986 3.602-47.855-3.58-77.597 5.663-130.26 39.056-45.325 28.736-58.801 34.005-65.763 25.71-13.977-16.654 27.06-50.833 74.828-67.133 6.407-2.187 33.682-7.859 41.918-8.718m74.195 29.4c2.166-.082 6.184-.23 8.928-.328 21.652-.778 50.55 4.5 72.823 11.033l2.407.706-1.231 3.277c-59.266 47.29-132.06 62.204-193.94 39.74-7.766-2.819-7.48-1.73-2.165-6.63 28.39-26.177 75.851-46.39 113.18-47.798" transform="rotate(3.757 63803.725 -83653.34) scale(.9771)"/><path d="M5708.8 3965.2c7.748.505 17.198 1.91 39.005 5.8 68.141 12.153 98.185 9.752 142.57-13.018 9.824-5.039 10.207-5.081 6.519-.718-18.97 22.436-78.244 46.936-123.21 49.446-42.848 2.391-85.211-8.437-91.078-27.473-3.157-10.242 6.341-15.332 26.194-14.037m-48 43.7c4.049.368 9.297 1.658 21.922 5.386 35.565 10.501 62.044 10.216 93.734 1.227 24.668-6.998 20.112-.885-9.087 11.685-50.192 21.607-103.94 23.412-119.83 2.023-8.088-10.888-.474-21.57 13.26-20.32M5875.1 4003l-6.783 2.051c-21.824 6.603-51.755 21.21-48.362 23.58.944.66 7.108-.34 15.777-2.56 30.868-7.902 59.19-5.68 90.03 5.065 27.48 9.575 34.114 11.937 39.848 4.772 14.415-18.011-19.18-41.767-61.492-38.21-4.132.348-25.606 4.27-29.018 5.301m-82.6 38.501c-34.059 8.668-60.683 19.342-76.496 32.333-8.798 7.229-8.104 7.538 4.907 2.187 44.382-18.252 75.892-19.058 135.92-2.142 51.655 14.557 66.016 17.146 70.437 7.26 8.876-19.847-41.96-47.18-92.418-45.955-6.768.164-34.322 4.274-42.347 6.316" transform="rotate(3.757 63803.725 -83653.34) scale(.9771)"/><path d="M5731 4089.8c-2.099.542-5.99 1.55-8.649 2.242-20.968 5.454-47.691 13.565-67.625 25.458l-2.155 1.285 1.874.867c68.808 31.846 143.06 29.031 197.83-7.5 6.873-4.585 6.838-4.027.467-7.443-34.03-18.253-85.573-24.246-121.74-14.908" transform="rotate(3.757 63803.725 -83653.34) scale(.9771)"/><path d="M5902.3 4125.2c-7.462 2.145-16.306 6.428-36.889 14.616-64.313 25.586-94.54 28.708-142.43 14.71-10.597-3.098-10.982-3.067-6.537.523 22.856 18.46 84.74 30.62 129.62 26.873 42.766-3.571 82.939-27.3 84.864-47.127 1.035-10.668-9.517-15.093-28.637-9.596M5958 4164.9c-3.934 1.026-8.84 4.84-20.757 10.433-33.57 15.755-59.998 20.244-92.628 15.734-25.4-3.51-20.005 2.016 10.546 10.803 52.516 15.104 106.25 8.288 119.02-15.098 6.5-11.904-2.841-25.351-16.186-21.872M5571.1 3540.1l6.615-2.543c21.283-8.178 53.506-15.079 52.184-11.157-.368 1.092-5.92 3.948-14.214 7.312-29.528 11.976-52.014 28.646-71.104 55.144-17.01 23.61-23.056 26.177-31.798 23.383-21.974-7.024-3.442-35.365 32.15-58.518 3.476-2.26 22.84-12.34 26.166-13.62m88.501-19.201c32.867-12.446 61.645-17.25 82.005-15.18 11.329 1.152 11.438 2.943-2.392 5.52-47.177 8.787-73.855 25.302-115.65 71.588-35.966 39.833-48.331 47.426-57.186 41.192-17.778-12.515 12.89-56.04 54.915-83.991 5.637-3.75 30.56-16.195 38.305-19.128M5739 3530.1c2.073-.634 5.918-1.806 8.546-2.605 20.73-6.3 50.057-8.683 73.262-8.084l2.507.065-1.208 1.674c-44.378 61.477-110.48 95.404-176.13 90.396-8.237-.628-7.933-.16-4.054-6.26 20.722-32.585 61.356-64.258 97.076-75.185" transform="rotate(3.757 63803.725 -83653.34) scale(.9771)"/><path d="M5607.6 3645.7c7.598-1.598 16.686-3.56 38.759-5.413 68.973-5.79 97.437-15.88 134.46-49.318 8.194-7.4 8.553-7.54 6.114-2.374-12.547 26.567-63.425 65.465-106.22 79.506-40.776 13.378-84.671 13.808-95.238-3.077-5.686-9.086 2.656-15.23 22.124-19.324m-35.499 53.6c4.007-.689 9.41-.797 22.569-.452 37.07.971 62.629-6.134 90.921-23.004 22.024-13.132 19.23-6.06-5.724 13.634-42.896 33.854-94.4 49.468-115.27 32.908-10.626-8.43-6.082-20.75 7.509-23.086m205.595-60.9c-.859.532-3.57 2.212-6.023 3.734-19.377 12.016-44.488 33.843-40.597 35.255 1.083.393 6.778-2.167 14.579-6.553 27.774-15.617 55.72-20.833 88.29-18.44 29.022 2.132 35.442.888 39.019-7.565 8.991-21.244-28.647-33.415-68.604-19.048-3.902 1.403-23.634 10.74-26.664 12.617m-69.8 58.4c-30.652 17.192-53.579 34.413-65.483 51.06-6.624 9.262-5.873 9.381 5.306.84 38.132-29.134 68.364-38.08 130.72-37.324 53.663.65 68.2-.61 69.9-11.304 3.413-21.472-52.759-34.586-101.18-20.338-6.495 1.911-32.045 13.016-39.267 17.067" transform="rotate(3.757 63803.725 -83653.34) scale(.9771)"/><path d="M5661 3759.4a5981.767 5981.767 0 0 0-7.77 4.41c-18.834 10.71-42.514 25.557-58.668 42.225l-1.746 1.801 2.035.35c74.724 12.851 145.68-9.18 189.07-58.702 5.443-6.214 5.555-5.666-1.485-7.308-37.607-8.773-88.93-1.181-121.43 17.224" transform="rotate(3.757 63803.725 -83653.34) scale(.9771)"/><path d="M5835.7 3749.1c-6.646 4.014-14.1 10.442-31.836 23.712-55.422 41.464-83.79 52.357-133.67 51.324-11.038-.229-11.402-.099-6.175 2.209 26.878 11.865 89.73 7.501 132.08-7.837 40.35-14.614 73.027-47.979 69.717-67.622-1.78-10.569-13.086-12.072-30.115-1.786m63.999 23.8c-3.53 2.016-7.322 6.961-17.365 15.471-28.292 23.974-52.539 35.969-85.264 39.728-25.474 2.927-18.872 6.935 12.904 7.836 54.623 1.547 104.97-18.438 111.51-44.268 3.33-13.148-9.814-25.608-21.789-18.768M5363.4 3269.5l5.774-4.11c18.578-13.217 48.18-28.028 47.877-23.9-.084 1.149-4.75 5.298-11.944 10.62-25.614 18.954-42.518 41.492-54.038 72.05-10.264 27.23-15.444 31.338-24.613 30.922-23.045-1.046-12.502-33.4 15.833-65.024 2.766-3.088 18.208-18.49 21.11-20.558m81.001-41c28.484-20.587 55.668-32.089 75.901-35.163 11.258-1.71 11.024-.987-1.654 5.112-43.244 20.804-64.389 43.654-93.303 98.908-24.883 47.55-33.919 58.85-44.095 55.149-20.431-7.433-2.121-57.606 31.16-95.55 4.464-5.09 25.28-23.604 31.991-28.455m78.9-11.701c1.835-1.154 5.24-3.29 7.568-4.748 18.362-11.5 45.986-21.455 68.54-26.948l2.436-.594.518 3.374c-27.593 70.621-83.112 120-147.93 131.57-8.133 1.452-7.364 2.236-5.216-4.667 11.475-36.872 42.458-78.103 74.08-97.988" transform="rotate(3.757 63803.725 -83653.34) scale(.9771)"/><path d="M5425.9 3362c6.956-3.449 15.836-6.974 36.653-14.548 65.044-23.666 89.818-40.839 116.77-82.821 5.965-9.29 6.275-9.52 5.277-3.895-5.138 28.928-44.127 79.88-81.725 104.68-35.823 23.63-77.972 35.392-92.596 21.866-7.869-7.277-2.205-16.445 15.618-25.282m-19.497 62.1c3.685-1.717 8.87-3.24 21.658-6.364 36.024-8.8 58.782-22.317 81.643-46.032 17.796-18.461 16.907-10.86-1.983 14.71-32.472 43.95-78.026 72.499-102.52 62.01-12.468-5.338-11.298-18.5 1.202-24.323m182.2-112.801c-.689.74-2.373 3.707-4.366 5.796-15.735 16.501-34.447 43.857-30.326 44.244 1.147.108 5.88-4.005 12.25-10.289 22.684-22.378 48.197-34.744 80.246-41.019 28.558-5.591 35.378-6.944 36.711-16.025 3.35-22.824-37.333-26.258-72.106-1.89-3.395 2.38-19.978 16.576-22.408 19.184M5536.6 3386.1c-25.038 24.662-43.112 46.555-50.431 65.666-4.073 10.634-3.316 10.559 5.347-.526 29.55-37.81 56.505-53.87 116.85-69.614 51.929-13.549 65.532-18.59 64.342-29.355-2.387-21.61-59.771-19.488-102.72 7.017-5.762 3.555-27.481 21.001-33.381 26.812" transform="rotate(3.757 63803.725 -83653.34) scale(.9771)"/><path d="M5507.2 3458.2c-1.555 1.51-4.437 4.313-6.404 6.23-15.52 15.118-33.662 36.901-44.826 57.252l-1.207 2.2 2.055-.202c75.459-7.396 137.57-47.385 167-106.28 3.692-7.39 3.625-7.333-3.599-7.052-38.587 1.5-86.22 21.832-113.02 47.85" transform="rotate(3.757 63803.725 -83653.34) scale(.9771)"/><path d="M5673.8 3403.8c-5.411 5.568-11.483 12.945-25.059 30.448-42.423 54.691-67.394 72.402-115.9 84.066-10.735 2.581-11.053 2.8-5.412 3.704 29.01 4.652 88.888-15.628 125.94-41.24 35.301-24.404 57.688-66.058 49.282-84.117-4.523-9.717-14.983-7.128-28.847 7.14m68.096 6.599c-2.901 2.847-6.149 7.167-13.564 18.044-20.889 30.64-41.167 48.69-71.705 61.037-23.772 9.611-16.271 11.792 14.686 4.562 53.214-12.427 96.097-46.204 95.518-72.842-.295-13.56-15.092-20.46-24.934-10.8M5093.6 3062.1l4.504-5.471c14.494-17.6 39.195-39.573 39.976-35.508.218 1.131-3.208 6.352-8.768 13.364-19.798 24.966-31.096 50.458-34.656 82.921-3.172 28.927-5.562 35.014-14.523 36.997-22.524 4.985-22.168-29.88-2.595-67.562 1.91-3.68 13.798-21.989 16.063-24.741m67.499-60.6c22.144-27.291 45.371-45.39 64.108-53.62 10.426-4.58 10.388-3.82-.268 5.366-36.347 31.333-50.842 58.928-64.401 119.8-11.668 52.384-17.456 65.645-28.245 64.715-21.661-1.867-16.934-55.16 5.324-100.46 2.985-6.076 18.265-29.371 23.482-35.801m73.1-31.8c1.472-1.591 4.205-4.54 6.074-6.552 14.742-15.878 40.262-31.791 60.746-42.71l2.213-1.18-.226 2.053c-8.302 75.365-49.089 137.47-108.67 165.48-7.476 3.514-6.506 4.041-6.225-3.182 1.5-38.588 20.724-86.486 46.09-113.91" transform="rotate(3.757 63803.725 -83653.34) scale(.9771)"/><path d="M5177.8 3135.4c5.822-5.137 12.832-11.401 31.118-23.902 57.14-39.063 76.609-62.394 91.738-109.93 3.348-10.521 3.589-10.823 4.084-5.131 2.55 29.27-21.916 88.658-51.788 122.37-28.462 32.119-66.037 54.335-83.67 45.07-9.489-4.984-6.4-15.307 8.517-28.47M5175 3200.4c3.113-2.615 6.467-6.411 18.081-12.609 32.716-17.46 51.508-36.327 67.772-64.972 12.661-22.298 13.767-14.654 2.162 14.942-19.95 50.874-56.508 90.239-82.885 86.469-13.427-1.92-15.69-14.961-5.13-23.83m147.3-155.7-3.392 6.222c-10.912 20.02-21.904 51.325-17.824 50.63 1.135-.195 4.82-5.235 9.434-12.904 16.425-27.305 38.172-45.739 67.663-59.768 26.278-12.5 31.243-16.757 30.172-25.873-2.693-22.91-41.46-14.68-69.102 17.55-2.7 3.147-15.243 21.013-16.95 24.142M5290.8 3130c-17.777 30.317-29.59 56.213-31.696 76.57-1.171 11.326-.46 11.058 5.027-1.896 18.717-44.188 40.613-66.98 95.16-97.203 46.943-26.01 58.025-35.314 54.081-45.4-7.919-20.247-62.699-3.375-97.297 33.37-4.64 4.93-21.087 27.416-25.276 34.559" transform="rotate(3.757 63803.725 -83653.34) scale(.9771)"/><path d="M5281.1 3207.4c-1.11 1.862-3.165 5.318-4.566 7.68-11.06 18.631-22.938 44.414-28.431 66.967l-2.041 1.165 1.94-.706c71.26-25.9 121.95-80.225 135.06-144.74 1.645-8.095 1.624-8.05-5.278-5.902-36.872 11.475-77.562 43.452-96.686 75.54" transform="rotate(3.757 63803.725 -83653.34) scale(.9771)"/><path d="M5427.8 3111.7c-3.777 6.784-7.721 15.486-16.28 35.917-26.743 63.841-46.272 87.467-90.074 111.35-9.693 5.285-9.944 5.578-4.262 4.984 29.22-3.054 81.709-38.153 110.81-72.53 27.727-32.755 38.618-78.862 25.805-94.114-6.894-8.206-16.321-2.987-26 14.395m67.401-11.402c-2.06 3.504-2.901 9.593-7.378 21.972-12.61 34.873-28.132 56.729-54.4 76.603-20.45 15.471-12.672 15.653 15.331.606 48.136-25.865 80.783-69.662 73.286-95.23-3.816-13.015-19.85-15.84-26.84-3.951M4779.7 2931.8l2.883-6.474c9.278-20.827 27.195-48.484 29.03-44.774.511 1.033-1.401 6.977-4.894 15.216-12.438 29.336-16.6 57.002-11.401 89.244 4.632 28.73 2.125 34.793-6.039 38.986-20.52 10.54-27.285-22.535-18.466-64.07.861-4.055 7.437-24.87 8.886-28.128m49.101-76.2c14.478-32.024 31.486-55.754 47.365-68.663 8.836-7.183 10.209-5.998 2.23 5.589-27.215 39.525-34.457 70.054-31.389 132.34 2.64 53.602-.779 67.685-11.452 69.517-21.428 3.679-30.375-48.72-20.364-98.189 1.343-6.636 10.198-33.049 13.61-40.594m61.8-49.9c.997-1.924 3.877-5.148 5.175-7.568 10.24-19.093 29.372-41.49 46.238-57.437l1.822-1.723.325 2.038c11.927 74.876-10.98 145.56-61.035 188.33-6.28 5.367-5.734 5.485-7.29-1.575-8.306-37.712-2.423-88.898 14.765-122.06" transform="rotate(3.757 63803.725 -83653.34) scale(.9771)"/><path d="M4880 2980.6c4.258-6.493 9.316-14.322 23.656-31.205 44.808-52.755 57.88-80.007 60.544-129.83.59-11.025.746-11.378 2.66-5.995 9.842 27.683 1.067 91.002-18.877 131.39-19.003 38.478-50.635 69.43-70.036 64.913-10.44-2.43-8.857-12.638 2.054-29.274m12.699 63.001c2.355-3.314 6.109-7.201 15.681-16.237 26.966-25.455 40.085-48.545 48.245-80.459 6.352-24.842 9.372-17.885 5.57 13.676-6.536 54.253-32.053 101.67-58.53 104.65-13.478 1.518-18.955-10.393-10.967-21.635M4995.4 2855.4l-1.637 6.895c-5.264 22.184-7.661 55.341-3.907 53.598 1.045-.485 3.277-6.317 5.714-14.927 8.676-30.66 24.817-54.094 49.594-75.369 22.078-18.957 25.75-24.368 22.326-32.883-8.61-21.402-43.89-3.428-62.084 34.937-1.777 3.746-9.182 24.282-10.006 27.75m-8.2 90.599c-9.605 33.806-13.694 62.162-10.39 82.358 1.838 11.238 2.454 10.792 4.354-3.147 6.48-47.55 21.611-75.236 66.341-118.69 38.494-37.395 47.903-48.574 41.562-57.353-12.73-17.624-61.793 12.787-86.068 57.038-3.256 5.935-13.536 31.828-15.8 39.793" transform="rotate(3.757 63803.725 -83653.34) scale(.9771)"/><path d="M4998.2 3023.4c-.584 2.088-1.662 5.96-2.396 8.607-5.794 20.877-12.038 48.084-11.722 71.293l.034 2.508 1.688-1.188c62.012-43.626 96.741-109.31 92.532-175.02-.528-8.244-.063-7.934-6.21-4.13-32.835 20.324-63.872 61.95-73.927 97.925" transform="rotate(3.757 63803.725 -83653.34) scale(.9771)"/><path d="M5114.7 2892.8c-1.874 7.535-2.626 17.326-5.818 39.246-9.973 68.494-22.372 96.237-58.425 130.72-7.978 7.632-8.144 7.98-2.814 5.924 27.411-10.574 68.867-58.068 88.003-98.841 18.233-38.85 17.84-85.497 1.628-97.072-8.723-6.228-17.772.715-22.575 20.02m62.001-28.497c-1.075 3.92-.3 10.07-1.396 23.188-3.087 36.954-11.788 62.556-32.283 88.343-15.954 20.074-8.45 18.244 14.668-3.576 39.74-37.51 61.234-87.23 47.61-110.13-6.937-11.656-24.95-11.126-28.599 2.173m-735.2 23.102 1.18-6.988c3.798-22.482 14.262-53.898 16.963-50.76.751.872.379 7.105-.954 15.954-4.745 31.508-.792 59.403 12.638 89.171 11.967 26.526 11.09 33.068 4.301 39.245-17.064 15.524-32.114-14.763-34.455-57.16-.229-4.14-.264-25.948.328-29.462m28.299-86.3c5.623-34.692 16.859-62.104 29.035-78.552 6.774-9.153 7.119-8.475 2.433 4.79-15.985 45.248-15.027 76.61 4.153 135.95 16.506 51.066 16.84 65.571 7.012 70.117-19.733 9.126-41.94-39.196-45.18-89.563-.436-6.756 1.222-34.565 2.547-42.739m47.8-64.103c.489-2.112 1.399-6.028 2.023-8.702 4.922-21.1 17.607-47.693 29.75-67.475l1.313-2.138.843 1.884c30.973 69.206 27.22 143.41-10.002 197.72-4.67 6.814-4.112 6.786-7.448.373-17.821-34.259-24.898-85.267-16.478-121.66" transform="rotate(3.757 63803.725 -83653.34) scale(.9771)"/><path d="M4551.8 2908.6c2.427-7.375 5.259-16.261 14.731-36.285 29.599-62.568 34.625-92.537 23.681-141.21-2.422-10.772-2.367-11.154.935-6.491 16.979 23.978 25.85 87.729 17.029 131.9-8.405 42.084-30.888 80.214-50.796 80.882-10.712.36-11.798-9.895-5.58-28.792m30.2 57.696c1.37-3.828 2.261-8.762 9.17-19.966 19.466-31.564 26.15-57.293 25.789-90.231-.28-25.64 4.522-19.591 9.387 11.824 8.363 54.002-5.174 106.45-29.983 116.17-12.63 4.948-19.01-4.813-14.364-17.798M4630.8 2757.7l.2 7.084c.645 22.791 6.903 55.404 10.08 52.752.884-.738 1.536-6.948 1.67-15.896.472-31.86 10.058-58.71 28.517-85.651 16.448-24.006 18.604-30.18 13.1-37.525-13.833-18.461-43.402 8.08-51.069 49.844-.749 4.078-2.597 25.829-2.498 29.392m15.7 89.6c-.128 35.144 2.577 63.482 10.967 82.148 4.668 10.386 5.149 9.797 3.398-4.162-5.973-47.615 1.53-78.329 33.592-131.82 27.59-46.032 32.52-59.635 24.054-66.387-17-13.555-56.096 28.48-67.533 77.638-1.534 6.594-4.448 34.3-4.478 42.58" transform="rotate(3.757 63803.725 -83653.34) scale(.9771)"/><path d="M4676.8 2919.1a6932.91 6932.91 0 0 0-.104 8.934c-.235 21.665 2.323 49.909 8.857 72.182l.706 2.407-.653-1.995c48.76-58.062 65.495-130.45 44.588-192.88-2.623-7.833-2.649-7.773-7.549-2.458-26.177 28.39-45.373 76.463-45.845 113.81" transform="rotate(3.757 63803.725 -83653.34) scale(.9771)"/><path d="M4756 2762.8c.117 7.763 1.046 17.272 3.838 39.247 8.723 68.664 3.586 98.864-22.455 141.42-5.763 9.417-5.834 9.797-1.206 6.446 23.798-17.229 51.768-73.903 59.879-118.21 7.728-42.213-6.006-87.548-24.724-94.36-10.071-3.665-15.631 5.565-15.332 25.458m52.8-43.601c-.039 4.065.719 9.416 3.164 22.35 6.89 36.437 5.331 63.551-7.549 93.869-10.026 23.601-3.173 19.836 13.628-7.15 28.882-46.389 35.321-100.6 16.084-119.04-9.792-9.385-25.197-3.819-25.328 9.971M4104.1 2931.3l-.687-7.053c-2.209-22.693-.3-55.691 3.127-53.37.954.646 2.224 6.76 3.252 15.649 3.66 31.653 13.663 57.668 34.094 83.146 18.205 22.702 20.818 28.697 15.882 36.434-12.407 19.448-36.688-5.48-49.515-45.957-1.253-3.952-5.806-25.302-6.153-28.85m4.8-90.599c-3.645-34.955.041-64.197 7.484-83.26 4.142-10.607 4.652-10.043 3.602 3.986-3.579 47.855 5.665 77.6 39.056 130.27 28.736 45.325 34.005 58.802 25.71 65.763-16.653 13.977-50.836-27.072-67.136-74.839-2.186-6.407-7.858-33.682-8.717-41.918m29.301-74.102c-.082-2.166-.23-6.184-.328-8.928-.778-21.652 4.5-50.546 11.034-72.82l2.696-2.785 1.288 1.613c47.29 59.266 62.204 132.06 39.74 193.94-2.82 7.766-1.73 7.475-6.631 2.16-26.177-28.39-46.39-75.854-47.798-113.18" transform="rotate(3.757 63803.725 -83653.34) scale(.9771)"/><path d="M4215.2 2923.7c.505-7.748 1.91-17.198 5.8-39.005 12.153-68.141 9.753-98.181-13.017-142.57-5.039-9.824-5.081-10.207-.718-6.519 22.436 18.97 46.937 78.252 49.447 123.22 2.391 42.848-8.439 85.2-27.475 91.066-10.242 3.157-15.332-6.341-14.037-26.194m43.7 48.002c.368-4.049 1.658-9.297 5.386-21.922 10.501-35.565 10.216-62.04 1.227-93.73-6.997-24.668-.884-20.108 11.685 9.091 21.607 50.192 23.412 103.94 2.023 119.82-10.888 8.088-21.57.47-20.321-13.264M4253 2757.4l2.051 6.783c6.602 21.824 21.211 51.76 23.581 48.366.66-.944-.34-7.108-2.56-15.777-7.902-30.868-5.68-59.187 5.065-90.027 9.575-27.48 11.938-34.109 4.772-39.844-18.01-14.415-41.768 19.17-38.21 61.481.348 4.132 4.27 25.606 5.3 29.018m38.501 82.6c8.668 34.059 19.342 60.687 32.334 76.5 7.229 8.798 7.538 8.104 2.187-4.907-18.252-44.382-19.058-75.888-2.142-135.91 14.557-51.655 17.146-66.012 7.26-70.433-19.847-8.876-47.18 41.95-45.956 92.406.165 6.768 4.275 34.322 6.317 42.347" transform="rotate(3.757 63803.725 -83653.34) scale(.9771)"/><path d="M4339.8 2901.6c.542 2.099 1.55 5.99 2.242 8.648 5.454 20.97 13.566 47.7 25.458 67.634l1.285 2.154.867-1.873c31.846-68.808 29.031-143.06-7.5-197.83-4.585-6.873-4.027-6.838-7.443-.467-18.253 34.03-24.246 85.566-14.91 121.73" transform="rotate(3.757 63803.725 -83653.34) scale(.9771)"/><path d="M4375.2 2730.3c2.145 7.462 6.428 16.31 14.616 36.892 25.586 64.313 28.708 94.54 14.71 142.43-3.098 10.597-3.067 10.982.523 6.537 18.46-22.856 30.62-84.732 26.873-129.62-3.571-42.766-27.3-82.947-47.127-84.872-10.668-1.035-15.093 9.513-9.596 28.633m39.701-55.7c1.026 3.934 4.84 8.844 10.433 20.76 15.755 33.57 21.016 60.059 16.093 92.63-3.832 25.354 1.763 20.029 10.936-10.408 15.768-52.321 7.796-106.39-15.59-119.16-11.904-6.5-25.351 2.837-21.872 16.182M3790.1 3061.3l-2.543-6.615c-8.178-21.283-15.077-53.503-11.155-52.18 1.092.367 3.948 5.92 7.312 14.212 11.976 29.528 28.648 52.017 55.145 71.107 23.61 17.01 26.179 23.06 23.384 31.802-7.024 21.974-35.37 3.432-58.524-32.16-2.26-3.476-12.34-22.84-13.62-26.166m-19.299-88.5c-12.446-32.867-16.476-62.205-14.159-82.538 1.289-11.314 1.926-10.899 4.502 2.932 8.788 47.177 25.302 73.855 71.588 115.65 39.833 35.966 47.427 48.334 41.194 57.189-12.515 17.778-56.045-12.901-83.997-54.925-3.75-5.637-16.195-30.56-19.128-38.305m9.2-79.403c-.634-2.073-1.806-5.918-2.605-8.546-6.301-20.73-8.682-50.054-8.082-73.258l.065-2.508 1.673 1.209c61.478 44.378 95.405 110.48 90.397 176.13-.629 8.237-.16 7.933-6.26 4.054-32.586-20.722-64.26-61.36-75.188-97.08" transform="rotate(3.757 63803.725 -83653.34) scale(.9771)"/><path d="M3895.6 3024.8c-1.598-7.598-3.558-16.682-5.411-38.756-5.79-68.973-15.878-97.433-49.317-134.46-7.4-8.194-7.54-8.553-2.374-6.113 26.566 12.547 65.467 63.432 79.508 106.23 13.38 40.776 13.805 84.66-3.081 95.228-9.086 5.685-15.231-2.66-19.325-22.128m53.7 35.499c-.689-4.006-.797-9.41-.452-22.569.971-37.07-6.133-62.625-23.003-90.918-13.132-22.024-6.058-19.227 13.636 5.727 33.854 42.896 49.467 94.397 32.907 115.27-8.43 10.626-20.752 6.08-23.088-7.512m-61-205.498c.532.86 2.212 3.57 3.734 6.023 12.016 19.377 33.844 44.491 35.256 40.6.393-1.082-2.167-6.778-6.553-14.578-15.617-27.774-20.831-55.716-18.438-88.286 2.132-29.022.888-35.442-7.565-39.019-21.244-8.991-33.418 28.64-19.05 68.597 1.402 3.902 10.74 23.634 12.615 26.664m58.501 69.699c17.192 30.652 34.414 53.582 51.061 65.486 9.262 6.623 9.381 5.872.84-5.307-29.134-38.132-38.079-68.36-37.323-130.72.65-53.663-.608-68.195-11.303-69.895-21.472-3.413-34.59 52.748-20.342 101.17 1.912 6.495 13.016 32.044 17.067 39.266" transform="rotate(3.757 63803.725 -83653.34) scale(.9771)"/><path d="M4009.4 2971.4c1.068 1.886 3.053 5.383 4.41 7.77 10.71 18.834 25.56 42.521 42.228 58.675l1.801 1.746.35-2.035c12.851-74.724-9.18-145.68-58.702-189.07-6.214-5.443-5.666-5.555-7.308 1.485-8.773 37.607-1.184 88.922 17.222 121.43" transform="rotate(3.757 63803.725 -83653.34) scale(.9771)"/><path d="M3999.1 2796.8c4.014 6.646 10.443 14.104 23.713 31.84 41.464 55.422 52.357 83.79 51.324 133.67-.229 11.038-.099 11.402 2.209 6.175 11.865-26.878 7.503-89.722-7.834-132.07-14.615-40.35-47.982-73.034-67.625-69.725-10.568 1.78-12.072 13.082-1.786 30.112m23.699-64.002c2.016 3.53 6.962 7.325 15.472 17.368 23.974 28.292 35.97 52.542 39.729 85.267 2.927 25.474 6.935 18.872 7.836-12.904 1.547-54.623-18.438-104.97-44.268-111.51-13.148-3.33-25.61 9.807-18.77 21.781M3519.4 3268.9l-4.11-5.774c-13.217-18.578-28.025-48.178-23.897-47.874 1.149.084 5.298 4.751 10.62 11.944 18.954 25.614 41.492 42.518 72.05 54.038 27.23 10.264 31.34 15.447 30.924 24.616-1.046 23.045-33.408 12.494-65.032-15.84-3.088-2.767-18.488-18.206-20.555-21.109m-41-81.001c-20.587-28.484-32.084-55.663-35.158-75.896-1.71-11.258-.987-11.024 5.112 1.654 20.804 43.244 43.657 64.392 98.91 93.306 47.55 24.883 58.85 33.92 55.149 44.095-7.433 20.431-57.614 2.113-95.558-31.168-5.09-4.464-23.604-25.28-28.455-31.99M3466.7 3109c-1.154-1.835-3.29-5.24-4.748-7.568-11.5-18.362-21.453-45.983-26.945-68.536l-.594-2.437 3.376-.515c70.621 27.594 120 83.112 131.57 147.93 1.452 8.132 2.234 7.361-4.669 5.213-36.872-11.475-78.106-42.46-97.99-74.082" transform="rotate(3.757 63803.725 -83653.34) scale(.9771)"/><path d="M3611.9 3206.4c-3.45-6.956-6.974-15.836-14.548-36.653-23.666-65.044-40.837-89.816-82.818-116.77-9.29-5.965-9.52-6.275-3.895-5.276 28.928 5.137 79.884 44.13 104.68 81.729 23.63 35.824 35.385 77.965 21.86 92.588-7.278 7.868-16.446 2.204-25.283-15.62M3674 3226c-1.717-3.685-4.532-7.938-7.502-20.762-8.368-36.126-21.176-59.675-44.892-82.536-18.461-17.796-10.857-16.904 14.712 1.986 43.95 32.472 72.497 78.024 62.008 102.52-5.34 12.468-18.502 11.295-24.326-1.205M3561.2 3043.7c.74.689 3.709 2.376 5.798 4.369 16.501 15.735 43.86 34.45 44.247 30.329.108-1.147-3.803-6.015-10.01-12.46-22.105-22.95-35.024-47.986-41.299-80.036-5.59-28.558-6.942-35.375-16.023-36.708-22.824-3.35-26.265 37.324-1.896 72.098 2.379 3.395 16.576 19.978 19.183 22.408m74.8 52.1c24.662 25.038 46.559 43.118 65.67 50.437 10.634 4.073 10.559 3.316-.526-5.347-37.81-29.55-53.87-56.505-69.614-116.85-13.548-51.929-18.589-65.528-29.353-64.339-21.61 2.388-19.494 59.762 7.01 102.71 3.556 5.762 21.002 27.481 26.813 33.381" transform="rotate(3.757 63803.725 -83653.34) scale(.9771)"/><path d="M3708.1 3125.2c1.51 1.555 4.313 4.437 6.23 6.404 15.119 15.52 36.904 33.665 57.255 44.83l2.199 1.206-.202-2.055c-7.396-75.459-47.383-137.57-106.28-167-7.39-3.693-7.335-3.628-7.054 3.595 1.5 38.587 21.83 86.217 47.848 113.02" transform="rotate(3.757 63803.725 -83653.34) scale(.9771)"/><path d="M3653.8 2958.6c5.568 5.411 12.945 11.482 30.448 25.059 54.691 42.423 72.404 67.398 84.068 115.9 2.581 10.735 2.8 11.053 3.704 5.412 4.652-29.01-15.624-88.882-41.237-125.93-24.404-35.301-66.063-57.698-84.122-49.292-9.717 4.523-7.128 14.983 7.14 28.848m6.499-68.097c2.847 2.901 7.167 6.149 18.044 13.564 30.64 20.889 48.692 41.17 61.039 71.708 9.612 23.772 11.794 16.274 4.564-14.683-12.427-53.214-46.205-96.1-72.844-95.521-13.56.295-20.462 15.088-10.803 24.931M3311.9 3538.7l-5.471-4.504c-17.6-14.494-39.57-39.193-35.505-39.974 1.131-.218 6.352 3.208 13.364 8.768 24.966 19.798 50.461 31.098 82.924 34.658 28.927 3.172 35.014 5.562 36.997 14.523 4.985 22.524-29.887 22.164-67.568 2.592-3.68-1.911-21.989-13.798-24.741-16.063m-60.6-67.5c-27.291-22.144-45.384-45.367-53.613-64.104-4.58-10.426-3.82-10.388 5.366.268 31.333 36.347 58.932 50.844 119.8 64.403 52.384 11.668 65.645 17.456 64.715 28.245-1.867 21.66-55.169 16.928-100.47-5.33-6.076-2.985-29.371-18.265-35.801-23.482m-31.697-73.1c-1.591-1.472-4.54-4.205-6.552-6.074-15.878-14.742-31.785-40.258-42.703-60.742l-1.18-2.213 2.052.226c75.364 8.302 137.47 49.089 165.48 108.67 3.514 7.476 3.772 6.98-3.447 6.613-38.567-1.964-86.227-21.116-113.65-46.482" transform="rotate(3.757 63803.725 -83653.34) scale(.9771)"/><path d="M3385.2 3454.5c-5.137-5.822-11.398-12.83-23.899-31.116-39.063-57.14-62.394-76.609-109.93-91.738-10.521-3.348-10.822-3.589-5.131-4.084 29.27-2.55 88.664 21.92 122.37 51.792 32.119 28.462 54.326 66.03 45.062 83.665-4.985 9.488-15.308 6.4-28.471-8.518m65.099 2.799c-2.615-3.113-6.409-6.465-12.606-18.078-17.46-32.716-36.324-51.505-64.969-67.77-22.298-12.661-14.654-13.767 14.942-2.162 50.874 19.95 90.236 56.506 86.466 82.883-1.92 13.427-14.964 15.687-23.833 5.127M3294.6 3310l6.222 3.392c20.02 10.912 51.328 21.906 50.632 17.826-.194-1.135-5.234-4.82-12.903-9.434-27.305-16.425-45.736-38.169-59.765-67.66-12.5-26.278-16.757-31.243-25.873-30.172-22.91 2.693-14.687 41.455 17.544 69.097 3.147 2.7 21.013 15.243 24.142 16.95m85.301 31.501c30.316 17.777 56.219 29.595 76.575 31.7 11.326 1.171 11.058.46-1.896-5.027-44.188-18.717-66.976-40.61-97.2-95.158-26.011-46.943-35.314-58.025-45.4-54.081-20.247 7.919-3.384 62.692 33.363 97.29 4.929 4.64 27.415 21.087 34.558 25.276" transform="rotate(3.757 63803.725 -83653.34) scale(.9771)"/><path d="M3457.3 3351.2c1.862 1.11 5.318 3.165 7.68 4.566 18.631 11.06 44.417 22.941 66.97 28.433l1.167 2.043-.705-1.94c-25.9-71.26-80.225-121.95-144.74-135.06-8.096-1.645-8.053-1.626-5.905 5.276 11.475 36.872 43.45 77.56 75.536 96.684" transform="rotate(3.757 63803.725 -83653.34) scale(.9771)"/><path d="M3361.6 3204.5c6.784 3.777 15.486 7.721 35.917 16.28 63.841 26.743 87.47 46.274 111.35 90.076 5.285 9.694 5.578 9.944 4.984 4.262-3.054-29.22-38.147-81.704-72.525-110.8-32.755-27.727-78.87-38.625-94.122-25.812-8.206 6.894-2.987 16.321 14.395 26M3350.2 3137.2c3.504 2.06 9.596 2.904 21.975 7.38 34.873 12.61 57.285 27.66 76.845 54.164 15.226 20.632 15.414 12.91.367-15.093-25.865-48.137-69.664-80.786-95.233-73.288-13.016 3.817-15.842 19.848-3.954 26.837m-168.7 715.3-6.474-2.883c-20.827-9.278-48.48-27.194-44.77-29.03 1.033-.51 6.977 1.401 15.216 4.894 29.336 12.438 57.006 16.601 89.247 11.402 28.73-4.632 34.796-2.124 38.99 6.04 10.54 20.52-22.547 27.282-64.082 18.462-4.055-.861-24.87-7.437-28.128-8.886M3105.4 3803.5c-32.024-14.478-55.75-31.485-68.659-47.364-7.183-8.836-5.995-10.208 5.593-2.229 39.525 27.216 70.054 34.457 132.34 31.389 53.602-2.64 67.689.78 69.52 11.453 3.68 21.428-48.73 30.372-98.2 20.361-6.635-1.343-33.048-10.198-40.593-13.61m-49.601-62.8a6032.484 6032.484 0 0 1-7.877-4.217c-19.093-10.24-41.487-29.37-57.434-46.237l-1.723-1.822 2.039-.325c74.876-11.927 145.56 10.981 188.33 61.035 5.366 6.28 5.484 5.734-1.575 7.29-37.712 8.306-88.808 1.873-121.76-15.724" transform="rotate(3.757 63803.725 -83653.34) scale(.9771)"/><path d="M3230.4 3752.3c-6.493-4.258-14.318-9.315-31.202-23.655-52.755-44.808-80.004-57.879-129.82-60.542-11.025-.59-11.378-.746-5.995-2.66 27.683-9.842 91.006-1.066 131.39 18.878 38.478 19.003 69.422 50.632 64.906 70.034-2.43 10.44-12.642 8.855-29.278-2.055m62.999-12.7c-3.314-2.355-7.201-6.109-16.237-15.681-25.456-26.966-48.542-40.083-80.455-48.244-24.842-6.353-17.882-9.37 13.68-5.568 54.253 6.535 101.67 32.05 104.65 58.528 1.518 13.478-10.397 18.953-21.638 10.965m-188.2-102.8 6.895 1.637c22.184 5.264 55.344 7.663 53.601 3.909-.485-1.045-6.317-3.277-14.928-5.714-30.66-8.677-54.09-24.816-75.366-49.593-18.957-22.078-24.368-25.751-32.883-22.326-21.402 8.609-3.435 43.886 34.93 62.08 3.746 1.777 24.282 9.182 27.75 10.007m90.601 8.3c33.806 9.605 62.166 13.695 82.362 10.392 11.238-1.838 10.792-2.455-3.147-4.354-47.55-6.48-75.233-21.61-118.69-66.34-37.395-38.494-48.571-47.901-57.35-41.56-17.623 12.73 12.778 61.788 57.028 86.063 5.935 3.256 31.828 13.536 39.793 15.8" transform="rotate(3.757 63803.725 -83653.34) scale(.9771)"/><path d="M3273.2 3634.1c2.088.584 5.96 1.662 8.607 2.396 20.877 5.794 48.09 12.042 71.3 11.725l2.508-.034-1.188-1.688c-43.626-62.012-109.31-96.741-175.02-92.532-8.244.528-7.934.063-4.13 6.21 20.324 32.835 61.943 63.87 97.918 73.923" transform="rotate(3.757 63803.725 -83653.34) scale(.9771)"/><path d="M3142.6 3517.6c7.535 1.874 17.329 2.628 39.249 5.82 68.494 9.973 96.237 22.372 130.72 58.425 7.632 7.978 7.98 8.143 5.924 2.813-10.574-27.41-58.061-68.864-98.835-88-38.85-18.233-85.504-17.844-97.078-1.631-6.228 8.723.712 17.77 20.018 22.573m-28.398-62.1c3.92 1.075 10.073.302 23.191 1.398 36.954 3.086 62.559 11.789 88.346 32.285 20.074 15.954 18.244 8.45-3.576-14.668-37.51-39.74-87.23-61.234-110.13-47.61-11.656 6.937-11.133 24.948 2.166 28.595m22.903 735.3-6.988-1.18c-22.482-3.798-53.894-14.262-50.757-16.963.873-.751 7.106-.379 15.955.954 31.508 4.745 59.403.792 89.171-12.638 26.526-11.967 33.072-11.09 39.248-4.301 15.524 17.064-14.775 32.114-57.172 34.455-4.14.228-25.944.264-29.458-.328M3050.8 4162.4c-34.692-5.623-62.096-16.859-78.545-29.034-9.153-6.774-8.475-7.119 4.79-2.433 45.248 15.985 76.61 15.027 135.95-4.153 51.066-16.506 65.575-16.84 70.12-7.012 9.126 19.733-39.208 41.939-89.574 45.18-6.756.435-34.565-1.223-42.739-2.548m-64.102-47.7c-2.112-.489-6.028-1.399-8.702-2.023-21.1-4.922-47.69-17.607-67.472-29.75l-2.138-1.312 1.884-.843c69.206-30.973 143.41-27.22 197.72 10.002 6.814 4.67 6.786 4.112.373 7.448-34.259 17.82-85.27 24.898-121.66 16.478" transform="rotate(3.757 63803.725 -83653.34) scale(.9771)"/><path d="M3158.3 4080.5c-7.375-2.427-16.257-5.258-36.281-14.731-62.568-29.599-92.537-34.625-141.21-23.681-10.772 2.422-11.065 1.061-6.361-2.181 24.19-16.675 87.606-24.602 131.77-15.782 42.084 8.404 80.206 30.887 80.875 50.795.36 10.712-9.898 11.798-28.796 5.58m57.703-30.3c-3.828-1.37-8.758-2.26-19.962-9.17-31.564-19.465-57.289-26.148-90.227-25.788-25.64.28-19.591-4.522 11.824-9.387 54.002-8.363 106.45 5.173 116.17 29.983 4.948 12.629-4.82 19.008-17.805 14.363m-208.6-48.801 7.084-.2c22.791-.645 55.408-6.902 52.756-10.08-.738-.884-6.948-1.536-15.896-1.67-31.86-.472-58.706-10.058-85.647-28.517-24.006-16.448-30.18-18.604-37.525-13.1-18.461 13.833 8.073 43.4 49.836 51.068 4.078.749 25.829 2.598 29.392 2.498m89.6-15.699c35.144.128 63.489-2.576 82.155-10.966 10.386-4.668 9.797-5.149-4.162-3.398-47.615 5.973-78.325-1.53-131.81-33.592-46.032-27.59-59.635-32.52-66.387-24.054-13.555 16.998 28.468 56.094 77.627 67.531 6.594 1.534 34.3 4.448 42.58 4.478" transform="rotate(3.757 63803.725 -83653.34) scale(.9771)"/><path d="M3168.8 3955.5c2.167.027 6.188.074 8.934.104 21.665.235 49.913-2.322 72.186-8.856l2.407-.706-1.99.654c-58.063-48.76-130.45-65.495-192.88-44.588-7.834 2.623-7.778 2.647-2.463 7.548 28.39 26.177 76.46 45.373 113.81 45.845" transform="rotate(3.757 63803.725 -83653.34) scale(.9771)"/><path d="M3012.5 3876.3c7.763-.117 17.272-1.046 39.247-3.838 68.664-8.723 98.868-3.585 141.42 22.456 9.417 5.763 9.796 5.834 6.446 1.206-17.229-23.798-73.896-51.766-118.2-59.877-42.213-7.728-87.559 6.003-94.372 24.721-3.665 10.072 5.565 15.631 25.458 15.332M2969 3823.4c4.065.039 9.416-.719 22.35-3.164 36.437-6.89 63.555-5.33 93.873 7.55 23.601 10.025 19.84 3.174-7.146-13.629-46.39-28.882-100.61-35.322-119.04-16.086-9.385 9.793-3.823 25.197 9.967 25.329m211.896 704.8-7.053.687c-22.693 2.209-55.687.3-53.366-3.128.646-.954 6.76-2.224 15.649-3.252 31.653-3.66 57.672-13.664 83.149-34.095 22.702-18.205 28.697-20.818 36.434-15.882 19.448 12.407-5.487 36.69-45.964 49.517-3.952 1.253-25.302 5.806-28.85 6.153m-90.499-4.9c-34.955 3.645-64.19-.043-83.253-7.486-10.607-4.142-10.043-4.652 3.986-3.602 47.855 3.58 77.604-5.665 130.27-39.057 45.325-28.736 58.802-34.005 65.763-25.71 13.977 16.653-27.084 50.838-74.85 67.138-6.407 2.186-33.682 7.858-41.918 8.717M3016.2 4494c-2.166.082-6.184.23-8.928.328-21.652.777-50.542-4.5-72.816-11.035l-2.782-2.697 1.614-1.288c59.266-47.29 132.06-62.204 193.94-39.739 7.765 2.82 7.471 1.732 2.157 6.632-28.39 26.177-75.86 46.391-113.19 47.8" transform="rotate(3.757 63803.725 -83653.34) scale(.9771)"/><path d="M3173.3 4417.1c-7.748-.505-17.198-1.91-39.005-5.8-68.141-12.153-98.177-9.754-142.57 13.016-9.824 5.039-10.207 5.081-6.519.718 18.97-22.436 78.26-46.938 123.23-49.448 42.848-2.391 85.19 8.44 91.055 27.477 3.157 10.242-6.341 15.332-26.194 14.037m48.103-43.7c-4.049-.368-9.297-1.658-21.922-5.386-35.565-10.502-62.036-10.218-93.726-1.228-24.668 6.998-20.104.884 9.095-11.686 50.192-21.607 103.93-23.412 119.82-2.022 8.088 10.888.466 21.57-13.267 20.321m-214.3 5.801 6.784-2.051c21.823-6.603 51.762-21.211 48.37-23.582-.945-.66-7.109.34-15.778 2.56-30.868 7.902-59.184 5.68-90.023-5.066-27.48-9.575-34.105-11.938-39.84-4.772-14.415 18.01 19.157 41.77 61.47 38.21 4.13-.346 25.605-4.27 29.017-5.3m82.6-38.399c34.059-8.668 60.691-19.343 76.504-32.334 8.798-7.229 8.104-7.538-4.907-2.187-44.382 18.252-75.885 19.057-135.91 2.142-51.655-14.557-66.008-17.146-70.43-7.261-8.875 19.847 41.939 47.181 92.396 45.957 6.768-.164 34.322-4.274 42.347-6.316" transform="rotate(3.757 63803.725 -83653.34) scale(.9771)"/><path d="M3151.2 4292.5c2.099-.542 5.99-1.55 8.649-2.242 20.968-5.454 47.706-13.566 67.64-25.46l2.155-1.284-1.874-.867c-68.808-31.846-143.06-29.031-197.83 7.5-6.872 4.585-6.838 4.027-.467 7.443 34.03 18.253 85.558 24.247 121.73 14.91" transform="rotate(3.757 63803.725 -83653.34) scale(.9771)"/><path d="M2979.9 4257c7.462-2.145 16.314-6.428 36.896-14.616 64.313-25.586 94.54-28.708 142.43-14.71 10.597 3.098 10.982 3.067 6.537-.523-22.856-18.46-84.724-30.622-129.61-26.873-42.766 3.571-82.955 27.3-84.88 47.127-1.035 10.668 9.509 15.093 28.63 9.596M2924.2 4217.4c3.934-1.026 8.848-4.84 20.764-10.433 33.57-15.755 60.063-21.016 92.634-16.093 25.354 3.832 20.029-1.763-10.409-10.936-52.321-15.768-106.4-7.796-119.17 15.59-6.5 11.904 2.833 25.351 16.178 21.872m386.603 624.8-6.615 2.543c-21.283 8.178-53.5 15.075-52.178 11.153.368-1.092 5.92-3.948 14.214-7.312 29.528-11.976 52.02-28.65 71.11-55.147 17.01-23.61 23.063-26.18 31.805-23.386 21.974 7.024 3.423 35.376-32.17 58.53-3.476 2.26-22.84 12.34-26.166 13.62m-88.5 19.299c-32.867 12.446-62.198 16.472-82.531 14.156-11.314-1.289-10.899-1.926 2.932-4.502 47.177-8.788 73.855-25.302 115.65-71.588 35.966-39.833 48.337-47.43 57.192-41.195 17.778 12.515-12.911 56.05-54.935 84.002-5.637 3.75-30.561 16.195-38.305 19.128m-79.403-9.301c-2.073.634-5.918 1.806-8.546 2.605-20.73 6.301-50.051 8.68-73.255 8.08l-2.508-.064 1.209-1.674c44.378-61.477 110.75-95.784 176.33-89.976 8.229.729 7.73-.26 3.852 5.84-20.722 32.586-61.362 64.262-97.082 75.19" transform="rotate(3.757 63803.725 -83653.34) scale(.9771)"/><path d="M3274.4 4736.6c-7.598 1.598-16.679 3.557-38.752 5.41-68.973 5.79-97.43 15.876-134.45 49.314-8.194 7.4-8.553 7.54-6.113 2.374 12.547-26.566 63.439-65.47 106.23-79.51 40.776-13.38 84.65-13.8 95.217 3.085 5.685 9.086-2.663 15.232-22.132 19.327m35.5-53.6c-4.006.689-9.41.797-22.569.452-37.07-.971-62.622 6.131-90.914 23.002-22.024 13.132-19.224 6.057 5.73-13.637 42.897-33.854 94.395-49.465 115.27-32.906 10.627 8.43 6.076 20.753-7.515 23.09M3104.3 4743.9c.859-.532 3.57-2.212 6.023-3.734 19.377-12.016 44.494-33.846 40.604-35.258-1.083-.393-6.778 2.167-14.579 6.553-27.774 15.617-55.713 20.83-88.283 18.437-29.022-2.132-35.442-.888-39.019 7.564-8.991 21.244 28.633 33.421 68.59 19.054 3.902-1.402 23.634-10.74 26.664-12.615m69.8-58.401c30.652-17.192 53.586-34.416 65.49-51.062 6.623-9.262 5.872-9.381-5.307-.84-38.132 29.134-68.356 38.078-130.71 37.322-53.663-.65-68.192.607-69.892 11.302-3.413 21.472 52.737 34.594 101.16 20.346 6.495-1.911 32.044-13.016 39.267-17.067" transform="rotate(3.757 63803.725 -83653.34) scale(.9771)"/><path d="M3221 4622.9a5859.43 5859.43 0 0 0 7.77-4.41c18.834-10.71 42.528-25.562 58.682-42.23l1.746-1.801-2.035-.35c-74.723-12.851-145.68 9.18-189.07 58.702-5.443 6.214-5.555 5.666 1.485 7.308 37.607 8.773 88.914 1.186 121.42-17.219" transform="rotate(3.757 63803.725 -83653.34) scale(.9771)"/><path d="M3046.4 4633.1c6.646-4.014 14.107-10.444 31.844-23.714 55.422-41.464 83.79-52.357 133.67-51.324 11.038.229 11.402.099 6.175-2.209-26.878-11.865-89.715-7.505-132.06 7.832-40.35 14.614-73.041 47.983-69.732 67.626 1.78 10.57 13.079 12.074 30.108 1.789m-64.005-23.7c3.53-2.016 7.33-6.963 17.372-15.473 28.292-23.974 52.546-35.971 85.271-39.73 25.474-2.927 18.872-6.935-12.904-7.836-54.623-1.547-104.97 18.44-111.51 44.268-3.33 13.148 9.8 25.612 21.774 18.772M3518.4 5112.9l-5.774 4.11c-18.578 13.217-48.176 28.023-47.872 23.895.084-1.149 4.75-5.298 11.944-10.62 25.614-18.954 42.518-41.492 54.038-72.05 10.264-27.23 15.45-31.343 24.618-30.927 23.045 1.046 12.486 33.415-15.849 65.04-2.766 3.087-18.202 18.484-21.106 20.552m-80.999 41c-28.484 20.587-55.658 32.079-75.89 35.153-11.258 1.71-11.024.987 1.654-5.112 43.244-20.804 64.394-43.659 93.308-98.913 24.883-47.55 33.919-58.85 44.095-55.149 20.431 7.433 2.105 57.621-31.176 95.565-4.464 5.09-25.28 23.604-31.991 28.455m-78.9 11.701c-1.835 1.154-5.24 3.29-7.568 4.748-18.362 11.5-45.981 21.45-68.534 26.943l-2.437.594-.513-3.379c27.594-70.62 83.113-120 147.93-131.57 8.133-1.451 7.359-2.23 5.21 4.672-11.474 36.872-42.462 78.108-74.084 97.992" transform="rotate(3.757 63803.725 -83653.34) scale(.9771)"/><path d="M3455.9 5020.4c-6.956 3.45-15.836 6.974-36.653 14.548-65.044 23.666-89.813 40.834-116.77 82.816-5.965 9.29-6.275 9.52-5.276 3.895 5.137-28.928 44.137-79.888 81.735-104.69 35.824-23.63 77.956-35.378 92.58-21.852 7.868 7.277 2.204 16.445-15.62 25.282m19.604-62.099c-3.685 1.717-7.935 4.53-20.759 7.5-36.126 8.368-59.675 21.176-82.536 44.892-17.796 18.46-16.902 10.854 1.989-14.714 32.472-43.951 78.02-72.495 102.51-62.006 12.468 5.339 11.292 18.504-1.208 24.328M3293.2 5071.1c.689-.74 2.379-3.711 4.372-5.8 15.734-16.502 34.452-43.863 30.331-44.25-1.146-.107-6.014 3.803-12.46 10.011-22.95 22.104-47.986 35.023-80.036 41.298-28.558 5.592-35.372 6.94-36.705 16.021-3.348 22.824 37.316 26.271 72.09 1.904 3.395-2.38 19.977-16.576 22.407-19.183m52.101-74.801c25.038-24.662 43.124-46.563 50.443-65.674 4.073-10.634 3.316-10.559-5.347.526-29.55 37.81-56.505 53.87-116.85 69.614-51.929 13.549-65.526 18.587-64.336 29.35 2.388 21.61 59.754 19.502 102.71-7.003 5.762-3.556 27.481-21.001 33.381-26.812" transform="rotate(3.757 63803.725 -83653.34) scale(.9771)"/><path d="M3374.7 4924.2c1.555-1.51 4.437-4.313 6.404-6.23 15.52-15.119 33.668-36.906 44.832-57.257l1.207-2.199-2.055.202c-75.459 7.396-137.57 47.38-167 106.27-3.693 7.39-3.631 7.337 3.592 7.056 38.587-1.5 86.214-21.828 113.02-47.846" transform="rotate(3.757 63803.725 -83653.34) scale(.9771)"/><path d="M3208.1 4978.5c5.411-5.568 11.482-12.945 25.059-30.448 42.423-54.691 67.401-72.406 115.91-84.07 10.735-2.581 11.053-2.8 5.412-3.704-29.01-4.652-88.875 15.62-125.92 41.233-35.301 24.404-57.707 66.07-49.301 84.128 4.523 9.717 14.983 7.128 28.848-7.14M3140 4972c2.901-2.847 6.149-7.167 13.564-18.044 20.889-30.64 41.173-48.694 71.712-61.041 23.772-9.611 16.277-11.795-14.68-4.566-53.214 12.427-96.103 46.207-95.524 72.846.295 13.56 15.085 20.464 24.928 10.805m648.1 348.5-4.504 5.47c-14.494 17.6-39.191 39.567-39.972 35.503-.218-1.131 3.208-6.352 8.768-13.364 19.798-24.966 31.1-50.464 34.66-82.927 3.172-28.927 5.562-35.014 14.523-36.997 22.524-4.985 22.16 29.893 2.588 67.575-1.911 3.68-13.798 21.989-16.063 24.74m-67.5 60.6c-22.144 27.291-45.363 45.377-64.1 53.607-10.426 4.58-10.388 3.82.268-5.366 36.347-31.333 50.846-58.934 64.405-119.8 11.668-52.384 17.456-65.645 28.245-64.715 21.661 1.867 16.922 55.178-5.335 100.48-2.986 6.076-18.265 29.371-23.482 35.801M3647.5 5412.8c-1.472 1.591-4.205 4.54-6.074 6.552-14.742 15.878-40.254 31.78-60.738 42.697l-2.213 1.18.226-2.052c8.302-75.365 49.089-137.47 108.67-165.48 7.476-3.514 6.98-3.772 6.613 3.447-1.964 38.567-21.12 86.234-46.486 113.65" transform="rotate(3.757 63803.725 -83653.34) scale(.9771)"/><path d="M3703.9 5247.2c-5.822 5.137-12.828 11.395-31.114 23.896-57.14 39.063-76.609 62.394-91.738 109.93-3.348 10.521-3.588 10.823-4.084 5.131-2.55-29.27 21.925-88.67 51.796-122.38 28.462-32.119 66.024-54.318 83.658-45.053 9.488 4.985 6.4 15.308-8.518 28.471m2.9-65.095c-3.113 2.615-6.463 6.406-18.076 12.603-32.716 17.46-51.503 36.321-67.768 64.966-12.661 22.298-13.767 14.654-2.162-14.942 19.95-50.874 56.504-90.234 82.881-86.463 13.427 1.92 15.684 14.966 5.125 23.836m-147.4 155.6 3.392-6.222c10.912-20.02 21.91-51.331 17.828-50.635-1.135.193-4.82 5.234-9.434 12.903-16.425 27.305-38.167 45.733-67.658 59.762-26.278 12.5-31.243 16.757-30.172 25.873 2.693 22.91 41.45 14.693 69.093-17.538 2.7-3.147 15.243-21.013 16.95-24.142m31.501-85.301c17.777-30.316 29.6-56.224 31.705-76.581 1.171-11.326.46-11.058-5.027 1.896-18.717 44.188-40.608 66.974-95.156 97.198-46.943 26.011-58.025 35.314-54.081 45.4 7.919 20.247 62.685 3.392 97.283-33.355 4.64-4.929 21.087-27.415 25.276-34.558" transform="rotate(3.757 63803.725 -83653.34) scale(.9771)"/><path d="M3600.7 5175.1c1.11-1.862 3.165-5.318 4.566-7.68 11.06-18.631 24.098-43.227 29.858-65.713l.623-2.43-1.94.705c-71.26 25.9-121.95 80.225-135.06 144.74-1.645 8.096-1.629 8.056 5.273 5.908 36.872-11.475 77.558-43.446 96.682-75.534" transform="rotate(3.757 63803.725 -83653.34) scale(.9771)"/><path d="M3454 5270.8c3.777-6.784 7.043-15.999 15.845-36.326 27.502-63.518 46.712-87.063 90.514-110.94 9.694-5.285 9.944-5.578 4.262-4.984-29.22 3.054-81.699 38.142-110.8 72.52-27.727 32.755-38.633 78.878-25.82 94.13 6.894 8.206 16.321 2.987 26-14.395M3386.6 5282.1c2.06-3.504 2.906-9.598 7.383-21.978 12.61-34.873 27.662-57.288 54.166-76.848 20.632-15.226 12.91-15.414-15.093-.367-48.136 25.865-80.788 69.667-73.291 95.236 3.816 13.015 19.845 15.845 26.834 3.957M4101.9 5451l-2.883 6.474c-9.278 20.827-27.193 48.477-29.028 44.767-.51-1.033 1.401-6.977 4.894-15.216 12.438-29.336 16.602-57.01 11.403-89.251-4.632-28.73-2.123-34.8 6.041-38.993 20.52-10.54 27.278 22.556 18.459 64.092-.86 4.055-7.437 24.872-8.886 28.128m-49 76.099c-14.478 32.024-31.484 55.747-47.363 68.656-8.836 7.183-10.206 5.99-2.228-5.596 27.216-39.525 34.457-70.054 31.39-132.34-2.64-53.602.78-67.692 11.453-69.524 21.428-3.679 30.368 48.742 20.358 98.21-1.343 6.635-10.198 33.049-13.61 40.594m-62.8 49.5a6097.886 6097.886 0 0 1-4.217 7.877c-10.24 19.093-29.369 41.483-46.236 57.43l-1.822 1.723-.325-2.039c-11.927-74.876 10.98-145.56 61.035-188.33 6.28-5.366 5.734-5.484 7.29 1.575 8.306 37.713 1.872 88.811-15.725 121.76" transform="rotate(3.757 63803.725 -83653.34) scale(.9771)"/><path d="M4001.7 5402c-4.258 6.493-9.313 14.315-23.653 31.198-44.808 52.755-57.878 80-60.541 129.82-.59 11.025-.746 11.378-2.66 5.995-9.842-27.683-1.064-91.01 18.88-131.39 19.003-38.478 50.63-69.415 70.031-64.9 10.44 2.43 8.854 12.646-2.057 29.282M3989 5339c-2.355 3.314-6.109 7.201-15.681 16.237-26.966 25.455-40.082 48.538-48.242 80.452-6.352 24.842-9.369 17.878-5.567-13.683 6.536-54.253 32.05-101.67 58.526-104.65 13.478-1.518 18.952 10.4 10.964 21.642M3886.2 5527.2l1.637-6.895c5.264-22.184 7.664-55.348 3.91-53.605-1.045.485-3.277 6.317-5.714 14.927-8.676 30.66-24.814 54.087-49.59 75.362-22.079 18.957-25.752 24.368-22.327 32.882 8.61 21.402 43.883 3.442 62.078-34.923 1.777-3.746 9.182-24.282 10.006-27.75m8.3-90.598c9.605-33.806 13.697-62.169 10.393-82.365-1.838-11.238-2.454-10.792-4.354 3.148-6.48 47.549-21.608 75.229-66.338 118.68-38.494 37.395-47.9 48.568-41.56 57.346 12.732 17.624 61.784-12.767 86.059-57.017 3.256-5.936 13.536-31.828 15.8-39.793" transform="rotate(3.757 63803.725 -83653.34) scale(.9771)"/><path d="M3883.5 5359.2c.583-2.088 1.662-5.96 2.396-8.607 5.794-20.877 12.045-48.097 11.728-71.306l-.034-2.508-1.688 1.188c-62.012 43.626-96.741 109.31-92.532 175.02.528 8.244.063 7.934 6.21 4.13 32.835-20.324 63.866-61.936 73.92-97.911" transform="rotate(3.757 63803.725 -83653.34) scale(.9771)"/><path d="M3767 5489.8c1.874-7.535 2.63-17.332 5.821-39.252 9.973-68.494 22.372-96.237 58.425-130.72 7.979-7.632 8.144-7.98 2.814-5.924-27.411 10.574-68.86 58.055-87.996 98.828-18.233 38.85-17.847 85.51-1.635 97.084 8.723 6.228 17.77-.708 22.571-20.015m-62 28.399c1.075-3.92.304-10.076 1.4-23.194 3.086-36.954 11.79-62.562 32.286-88.349 15.954-20.074 8.451-18.244-14.668 3.576-39.739 37.51-61.234 87.23-47.609 110.13 6.936 11.656 24.943 11.14 28.59-2.16M4440.1 5495.5l-1.18 6.988c-3.798 22.482-14.262 53.89-16.963 50.754-.751-.873-.379-7.106.954-15.955 4.745-31.508.792-59.403-12.638-89.171-11.967-26.526-11.09-33.076-4.301-39.252 17.064-15.524 33.923 14.76 35.727 57.183.176 4.142-1.008 25.94-1.6 29.455M4411.8 5581.7c-5.623 34.692-16.859 62.088-29.034 78.537-6.774 9.153-7.119 8.475-2.433-4.79 15.985-45.248 15.027-76.61-4.153-135.95-16.506-51.066-16.84-65.58-7.012-70.124 19.733-9.126 41.94 39.219 45.18 89.586.435 6.756-1.223 34.565-2.548 42.739m-47.7 64.102c-.489 2.112-1.399 6.028-2.023 8.702-4.922 21.1-17.607 47.686-29.75 67.468l-1.312 2.138-.843-1.884c-30.973-69.206-27.22-143.41 10.002-197.72 4.67-6.814 4.112-6.786 7.448-.373 17.821 34.259 24.898 85.275 16.478 121.67" transform="rotate(3.757 63803.725 -83653.34) scale(.9771)"/><path d="M4329.9 5474.2c-2.427 7.375-5.258 16.253-14.73 36.277-29.599 62.568-35.174 92.281-24.845 141.09 2.286 10.801 2.226 11.183-1.017 6.479-16.675-24.19-24.602-87.61-15.78-131.78 8.404-42.084 30.885-80.2 50.794-80.867 10.712-.36 11.798 9.902 5.58 28.8M4299.6 5416.5c-1.37 3.828-2.26 8.754-9.17 19.959-19.465 31.564-26.148 57.285-25.787 90.223.28 25.64-4.522 19.591-9.387-11.824-8.363-54.002 5.174-106.45 29.983-116.17 12.63-4.948 19.007 4.829 14.362 17.813M4250.8 5625.1l-.2-7.084c-.645-22.791-6.902-55.412-10.079-52.759-.884.738-1.536 6.948-1.67 15.896-.472 31.86-10.057 58.702-28.516 85.643-16.448 24.006-18.604 30.18-13.1 37.525 13.833 18.461 43.399-8.066 51.067-49.829.749-4.078 2.597-25.829 2.498-29.392m-15.7-89.6c.128-35.144-2.575-63.497-10.964-82.163-4.668-10.386-5.149-9.797-3.398 4.162 5.973 47.615-1.53 78.32-33.59 131.81-27.592 46.032-32.52 59.635-24.055 66.387 16.998 13.555 56.092-28.457 67.53-77.615 1.533-6.594 4.447-34.3 4.477-42.58" transform="rotate(3.757 63803.725 -83653.34) scale(.9771)"/><path d="M4204.8 5463.7c.027-2.167.074-6.188.104-8.934.235-21.665-2.322-49.917-8.856-72.19l-.706-2.407.655 1.987c-48.76 58.062-65.495 130.45-44.588 192.88 2.623 7.834 2.647 7.781 7.547 2.466 26.177-28.39 45.372-76.456 45.844-113.81" transform="rotate(3.757 63803.725 -83653.34) scale(.9771)"/><path d="M4125.7 5620c-.117-7.763-1.046-17.272-3.838-39.247-8.723-68.664-3.585-98.871 22.456-141.43 5.763-9.417 5.834-9.797 1.206-6.446-23.798 17.229-51.764 73.889-59.875 118.19-7.728 42.213 6 87.57 24.72 94.383 10.07 3.665 15.63-5.565 15.331-25.458m-52.9 43.508c.039-4.065-.719-9.416-3.164-22.35-6.89-36.437-5.33-63.559 7.55-93.876 10.027-23.6 3.176-19.844-13.626 7.142-28.882 46.39-35.322 100.61-16.086 119.05 9.792 9.386 25.195 3.827 25.327-9.963M4777.1 5451.5l.733 7.049c2.357 22.678.635 55.586-2.807 53.288-.959-.64-2.27-6.745-3.359-15.627-3.873-31.628-14.102-57.677-34.712-83.011-18.364-22.574-19.249-29.078-14.273-36.79 12.508-19.384 34.985 5.89 48.076 46.282 1.279 3.943 5.971 25.264 6.341 28.808m-4.499 90.401c3.455 34.974.588 64.018-6.716 83.135-4.064 10.637-5.832 10.286-4.713-3.738 3.816-47.836-5.172-77.898-38.961-130.31-29.078-45.107-33.172-59.017-24.845-65.94 16.719-13.899 50.707 27.035 66.746 74.89 2.151 6.419 7.675 33.724 8.489 41.965M4743 5616.2c.072 2.166.2 6.185.286 8.93.676 21.656-4.682 50.604-11.315 72.849l-.717 2.404-1.3-1.603c-47.77-58.88-63.276-131.55-41.314-193.61 2.755-7.789 2.223-7.618 7.1-2.281 26.05 28.506 46.027 75.98 47.26 113.31" transform="rotate(3.757 63803.725 -83653.34) scale(.9771)"/><path d="M4665.7 5459.2c-.44 7.752-.91 17.052-4.884 38.844-12.416 68.093-10.105 98.222 12.506 142.69 5.004 9.841 5.045 10.225.696 6.521-22.37-19.049-46.442-78.275-49.371-123.22-2.791-42.824 9.125-85.432 28.184-91.224 10.254-3.117 13.997 6.523 12.869 26.386M4623.2 5411c-.381 4.047-1.688 9.291-5.457 21.904-10.618 35.53-10.428 62.08-1.534 93.796 6.924 24.689.83 20.171-11.662-9.062-21.472-50.25-23.098-104.07-1.661-119.89 10.912-8.055 21.608-.474 20.314 13.255m5.2 214.397-2.031-6.79c-6.537-21.843-21.046-51.758-23.425-48.37-.662.942.321 7.108 2.517 15.783 7.82 30.89 5.554 59.255-5.265 90.068-9.64 27.457-10.116 33.98-2.892 39.64 18.157 14.23 39.742-18.976 36.31-61.298-.335-4.132-4.194-25.619-5.214-29.034m-38.2-82.599c-8.586-34.079-19.215-60.68-32.174-76.52-7.21-8.813-7.521-8.12-2.197 4.903 18.158 44.42 18.897 75.969 1.875 135.96-14.65 51.629-17.23 66.02-7.35 70.457 19.833 8.905 47.165-41.981 46.061-92.44-.148-6.769-4.192-34.332-6.215-42.362" transform="rotate(3.757 63803.725 -83653.34) scale(.9771)"/><path d="M4542 5481.3c-.538-2.1-1.54-5.994-2.227-8.652-5.416-20.979-13.556-47.649-25.423-67.597l-1.282-2.155-.87 1.872c-31.93 68.77-29.204 143.02 7.26 197.84 4.576 6.878 4.018 6.843 7.443.476 18.294-34.007 24.372-85.596 15.1-121.78" transform="rotate(3.757 63803.725 -83653.34) scale(.9771)"/><path d="M4506.3 5652.6c-2.138-7.464-6.392-16.301-14.567-36.889-25.544-64.33-28.646-94.559-14.617-142.44 3.105-10.595 3.074-10.98-.518-6.537-18.476 22.843-30.686 84.732-26.943 129.62 3.566 42.766 28.64 83.127 48.488 84.82 10.678.91 13.636-9.451 8.157-28.577m-39.6 55.703c-1.024-3.934-4.802-8.846-10.394-20.763-15.75-33.572-21-60.069-16.078-92.639 3.832-25.354-1.763-20.029-10.936 10.408-15.768 52.321-7.814 106.4 15.57 119.17 11.904 6.502 25.311-2.832 21.837-16.178M5092.1 5321.4c.356.946 1.48 3.93 2.496 6.633 8.027 21.34 14.746 53.692 10.834 52.34-1.09-.375-3.905-5.948-7.209-14.265-11.763-29.613-28.216-52.14-54.573-71.422-23.486-17.182-27.569-22.291-24.816-31.046 6.918-22.007 36.933-4.258 59.834 31.498 2.236 3.49 12.178 22.926 13.435 26.26m18.699 88.802c12.206 32.957 16.839 61.859 14.618 82.203-1.235 11.32-1.874 10.908-4.516-2.91-9.011-47.135-25.695-73.473-71.667-115.61-39.563-36.262-48.164-47.898-41.972-56.782 12.432-17.836 56.23 12.909 84.388 54.796 3.777 5.618 16.273 30.536 19.149 38.302m-8.9 79.101c.644 2.07 1.834 5.91 2.645 8.534 6.398 20.7 7.395 50.768 6.621 73.967l-.084 2.507-1.664-1.221c-61.14-44.84-94.568-111.2-89.065-176.81.69-8.232.219-7.932 6.29-4.007 32.428 20.967 64.161 61.357 75.256 97.025" transform="rotate(3.757 63803.725 -83653.34) scale(.9771)"/><path d="M4986.6 5357.7c1.54 7.61 3.477 16.808 5.163 38.895 5.27 69.015 15.744 97.541 49.355 134.41 7.438 8.159 7.58 8.518 2.403 6.102-26.625-12.423-65.835-63.296-80.081-106.02-13.573-40.712-14.081-84.34 2.755-94.986 9.06-5.727 16.458 2.106 20.405 21.605m-54.9-35.006c.708 4.003 2.348 8.802 1.904 21.958-1.248 37.062 5.704 62.774 22.364 91.191 12.97 22.12 5.798 19.252-14.018-5.606-34.062-42.731-49.879-94.075-33.419-115.03 8.38-10.666 20.768-6.095 23.17 7.485M4992.8 5528.2l-3.69-6.05c-11.871-19.467-33.47-44.638-34.911-40.758-.401 1.08 2.117 6.794 6.446 14.626 15.413 27.888 21.414 55.414 19.182 87.996-1.989 29.032-2.485 35.958 5.941 39.597 21.18 9.145 33.52-28.593 19.45-68.655-1.373-3.911-10.564-23.713-12.418-26.756m-58.1-70c-17.343-30.567-33.799-53.74-50.36-65.761-9.215-6.69-9.34-5.94-.878 5.3 28.862 38.34 37.387 68.534 36.956 130.89-.371 53.666.948 68.098 11.651 69.741 21.49 3.299 34.381-52.646 19.893-100.99-1.943-6.485-13.175-31.979-17.261-39.18" transform="rotate(3.757 63803.725 -83653.34) scale(.9771)"/><path d="M4872.7 5411.1a5845.81 5845.81 0 0 0-4.356-7.8c-10.578-18.91-26.89-42.103-43.647-58.165l-1.81-1.735-.34 2.036c-12.438 74.793 10.06 145.14 59.29 188.85 6.178 5.485 6.152 5.413 7.756-1.636 8.564-37.655 1.286-88.919-16.892-121.55" transform="rotate(3.757 63803.725 -83653.34) scale(.9771)"/><path d="M4881.9 5586.1c-3.97-6.672-9.517-14.452-22.891-32.11-41.79-55.177-52.4-83.903-51.052-133.77.298-11.037.17-11.401-2.17-6.189-12.033 26.802-8.017 89.885 7.07 132.32 14.376 40.436 48.819 72.887 68.442 69.462 10.557-1.843 10.775-12.616.6-29.712M4857.9 5650.2c-1.995-3.542-5.321-7.802-13.894-17.791-24.152-28.14-36.314-52.416-40.288-85.116-3.093-25.455-7.151-18.777-8.232 12.994-1.858 54.614 19.606 104.81 45.477 111.18 13.17 3.244 23.704-9.253 16.937-21.27m504.6-535.997 4.108 5.775c13.214 18.58 28.019 48.183 23.892 47.876-1.15-.085-5.295-4.755-10.612-11.952-18.934-25.628-41.46-42.548-72.011-54.09-27.222-10.284-31.275-15.517-30.848-24.685 1.073-23.044 34.496-13.6 65.773 15.119 3.054 2.804 17.632 19.053 19.699 21.957m40.999 81c20.566 28.499 32.006 55.752 35.047 75.99 1.692 11.261.969 11.025-5.109-1.663-20.732-43.279-43.606-64.756-99.154-93.1-47.803-24.393-58.353-34.408-54.63-44.576 7.476-20.416 57.494-1.97 95.413 31.338 5.086 4.468 23.586 25.297 28.432 32.012m11.601 78.999c1.15 1.837 3.28 5.247 4.732 7.578 11.463 18.386 21.33 46.087 26.766 68.654l.587 2.439-1.93-.733c-70.878-26.927-121.23-82.156-132.61-147-1.427-8.137-2.248-7.381 4.65-5.216 36.842 11.568 77.988 42.618 97.806 74.282" transform="rotate(3.757 63803.725 -83653.34) scale(.9771)"/><path d="M5269.4 5177.2c3.512 6.925 7.753 15.17 15.257 36.012 23.449 65.123 40.546 89.99 82.427 117.1 9.268 6 9.496 6.31 3.875 5.29-28.908-5.244-79.67-44.347-104.3-82.055-23.47-35.928-35.229-78.16-21.655-92.74 7.304-7.843 15.4-1.35 24.398 16.394M5208.3 5156.8c1.702 3.692 3.204 8.883 6.276 21.684 8.652 36.06 22.12 58.895 45.735 81.861 18.382 17.878 10.82 16.998-14.658-2.014-43.796-32.68-72.195-78.381-61.598-102.83 5.394-12.444 18.472-11.225 24.245 1.298m112.1 182.701-5.165-4.853c-16.619-15.61-44.206-34.23-44.564-30.106-.1 1.147 3.846 5.987 10.1 12.387 22.27 22.79 34.528 48.428 40.64 80.509 5.446 28.585 8.309 34.465 17.398 35.734 22.847 3.192 24.887-36.298.674-71.178-2.364-3.405-16.487-20.052-19.084-22.493m-74.599-52.3c-24.534-25.163-47.107-42.863-66.266-50.056-10.66-4.002-10.581-3.246.56 5.343 38.007 29.3 54.462 56.18 69.863 116.61 13.254 52.005 18.235 65.708 29.005 64.582 21.624-2.26 19.765-59.877-6.521-102.96-3.526-5.78-20.861-27.588-26.642-33.517" transform="rotate(3.757 63803.725 -83653.34) scale(.9771)"/><path d="M5173.2 5258.1a6104.14 6104.14 0 0 0-6.27-6.365c-15.218-15.423-35.717-34.455-55.998-45.744l-2.192-1.22.189 2.056c6.931 75.503 46.582 138.34 105.65 167.43 7.411 3.65 6.911 3.899 6.675-3.326-1.263-38.596-21.862-86.19-48.05-112.83" transform="rotate(3.757 63803.725 -83653.34) scale(.9771)"/><path d="M5228.4 5424.1c-5.599-5.38-13.734-10.929-31.147-24.621-54.41-42.782-72.283-67.359-84.211-115.8-2.64-10.72-2.86-11.038-3.733-5.392-4.494 29.034 15.995 88.598 41.798 125.52 24.585 35.175 65.264 58.118 83.378 49.831 9.746-4.458 8.26-15.748-6.085-29.532m-6.3 67.994c-2.863-2.886-8.605-5.29-19.43-12.781-30.494-21.101-48.366-41.422-60.496-72.047-9.443-23.84-11.599-16.423-4.215 14.497 12.693 53.151 45.07 96.578 71.712 96.187 13.562-.199 22.14-16.064 12.43-25.856m347.499-647.2 5.503 4.465c17.702 14.37 39.754 38.858 35.695 39.667-1.13.225-6.374-3.164-13.424-8.676-25.103-19.625-50.756-30.812-83.242-34.152-28.948-2.976-34.173-6.95-36.107-15.922-4.862-22.55 28.903-20.573 66.722-1.268 3.692 1.884 22.086 13.641 24.854 15.886m60.899 67.1c27.173 22.288 45.683 44.852 54.036 63.534 4.648 10.395 3.15 11.397-5.976.69-31.127-36.525-58.739-51.426-119.69-64.596-52.457-11.334-65.188-18.275-64.195-29.058 1.995-21.65 54.972-16.739 100.15 5.758 6.06 3.018 29.274 18.42 35.676 23.671M5662 4985.5c1.583 1.481 4.515 4.232 6.517 6.112 15.79 14.835 32.472 39.094 43.51 59.512l1.194 2.207-2.054-.214c-75.412-7.856-137.76-48.274-166.12-107.69-3.558-7.456-3.814-6.959 3.408-6.634 38.578 1.736 86.272 21.18 113.54 46.707" transform="rotate(3.757 63803.725 -83653.34) scale(.9771)"/><path d="M5496.4 4929.1c5.17 5.793 11.414 12.702 24.014 30.92 39.37 56.928 62.308 76.599 109.74 92.056 10.497 3.42 10.798 3.663 5.103 4.12-29.286 2.347-88.188-22.51-122.04-52.22-32.255-28.307-53.957-66.861-44.576-84.433 5.047-9.455 14.51-5.285 27.758 9.557m-64.199-4c2.592 3.132 5.376 7.764 11.629 19.347 17.615 32.632 36.523 51.271 65.239 67.408 22.354 12.562 14.85 13.676-14.654 1.838-50.715-20.349-89.921-57.255-85.952-83.602 2.02-13.412 14.944-15.614 23.737-4.99M5587.5 5073l-6.237-3.365c-20.068-10.823-51.48-21.717-50.767-17.64.198 1.135 5.254 4.8 12.94 9.381 27.373 16.313 45.828 37.972 59.966 67.411 12.598 26.232 16.874 31.18 25.985 30.075 22.9-2.777 14.684-41.52-17.67-69.02-3.158-2.685-21.08-15.15-24.216-16.843M5502.1 5041.6c-30.169-18.026-56.495-29.32-76.858-31.358-11.33-1.134-11.06-.423 1.913 5.02 44.25 18.57 67.082 40.356 97.466 94.815 26.148 46.866 34.5 58.867 44.623 55.018 20.322-7.728 3.666-63.036-32.795-97.936-4.89-4.682-27.24-21.312-34.35-25.56" transform="rotate(3.757 63803.725 -83653.34) scale(.9771)"/><path d="M5424.5 5032.1a6029.65 6029.65 0 0 0-7.693-4.544c-18.664-11.004-43.278-24.107-65.775-29.82l-2.43-.618.709 1.938c26.049 71.205 80.48 121.78 145.03 134.76 8.099 1.629 7.679 1.998 5.599-4.925-11.112-36.984-43.292-77.76-75.436-96.79" transform="rotate(3.757 63803.725 -83653.34) scale(.9771)"/><path d="M5520.4 5178.5c-6.79-3.766-16.047-7.006-36.385-15.784-63.55-27.426-87.119-46.608-111.05-90.382-5.297-9.687-5.59-9.938-4.99-4.256 3.09 29.217 38.219 81.613 72.604 110.7 32.762 27.719 79.03 38.529 94.262 25.692 8.195-6.908 2.96-16.326-14.438-25.975M5531.8 5246c-3.506-2.058-9.65-2.86-22.031-7.332-34.876-12.602-57.319-27.631-76.872-54.14-15.221-20.636-15.411-12.914-.37 15.093 25.852 48.143 69.704 80.763 95.271 73.26 13.015-3.82 15.895-19.9 4.002-26.88m168.6-715.901 6.455 2.925c20.766 9.415 48.393 27.54 44.672 29.35-1.036.505-6.968-1.445-15.185-4.99-29.257-12.622-56.82-16.916-89.092-11.914-28.757 4.457-35.256 3.733-39.501-4.405-10.67-20.453 23.105-29.127 64.582-20.036 4.05.888 24.822 7.6 28.069 9.07m76 49.6c31.935 14.673 55.648 31.834 68.463 47.79 7.13 8.878 6.387 9.039-5.251 1.135-39.701-26.957-70.122-33.783-132.42-31.071-53.616 2.334-67.926.188-69.83-10.473-3.821-21.402 48.89-30.632 98.419-20.923 6.643 1.302 33.099 10.085 40.624 13.542m49.695 62.2c1.919 1.008 5.476 2.882 7.905 4.164 19.16 10.113 41.128 30.669 56.984 47.621l1.713 1.832-2.04.314c-74.94 11.526-145.5-11.76-188-62.042-5.333-6.31-5.454-5.764 1.614-7.281 37.756-8.105 88.755-1.984 121.82 15.392" transform="rotate(3.757 63803.725 -83653.34) scale(.9771)"/><path d="M5651.5 4630.4c6.47 4.292 14.344 9.427 31.154 23.852 52.527 45.075 80.104 57.839 129.94 60.142 11.029.51 11.383.664 6.014 2.616-27.611 10.042-91.31 1.796-131.6-18.345-38.386-19.19-69.595-49.682-65.217-69.114 2.355-10.456 13.127-10.148 29.706.85M5587.9 4644.5c3.331 2.33 7.884 4.564 16.874 14.18 25.324 27.09 48.421 40.355 80.295 48.668 24.812 6.471 17.713 9.514-13.876 5.948-54.3-6.13-101.79-31.251-104.97-57.706-1.618-13.467 10.376-18.995 21.675-11.09m188.502 102.1-6.887-1.67c-22.16-5.37-55.231-7.895-53.506-4.133.48 1.047 6.301 3.307 14.9 5.784 30.619 8.821 54.326 24.042 75.786 48.66 19.123 21.934 23.67 27.182 32.2 23.797 21.442-8.509 3.484-43.92-34.793-62.299-3.738-1.794-24.238-9.297-27.701-10.138m-90.499-8.501c-33.878-9.35-61.899-14.1-82.111-10.89-11.246 1.786-10.803 2.404 3.127 4.369 47.518 6.701 74.898 22.024 118.69 66.425 37.685 38.21 48.823 47.483 57.553 41.076 17.528-12.863-12.915-61.538-57.347-85.48-5.96-3.21-31.929-13.296-39.91-15.5" transform="rotate(3.757 63803.725 -83653.34) scale(.9771)"/><path d="M5608.7 4748.6c-2.085-.593-5.953-1.69-8.596-2.436-20.85-5.891-48.785-10.756-71.992-10.265l-2.508.053 1.2 1.68c44.092 61.681 109.74 95.514 175.46 91.613 8.247-.49 8.178-.522 4.327-6.64-20.57-32.682-61.966-63.784-97.894-74.006" transform="rotate(3.757 63803.725 -83653.34) scale(.9771)"/><path d="M5739 4865.9c-7.526-1.91-16.948-3.49-38.892-6.519-68.566-9.466-96.381-22.276-130.69-58.494-7.593-8.015-7.94-8.182-5.91-2.842 10.443 27.462 57.889 69.227 98.566 88.567 38.757 18.428 86.058 17.02 97.512.722 6.162-8.769-1.301-16.541-20.584-21.434m28.298 62.3c-3.915-1.094-9.28-1.754-22.405-2.755-36.976-2.82-62.742-11.386-88.674-31.698-20.186-15.812-18.334-8.22 3.367 15.009 37.304 39.932 87.974 60.248 110.77 46.46 11.606-7.018 10.218-23.304-3.063-27.016m-22.095-735.8 6.988 1.18c22.482 3.794 53.883 14.257 50.747 16.958-.873.753-7.106.383-15.956-.947-31.51-4.733-59.403-.769-89.166 12.672-26.521 11.978-33.087 11.143-39.268 4.358-15.535-17.054 14.777-34.008 57.199-35.818 4.142-.176 25.94 1.005 29.455 1.597m86.201 28.3c34.694 5.608 62.054 16.79 78.515 28.951 9.159 6.766 8.481 7.11-4.788 2.437-45.263-15.943-76.623-14.955-135.94 4.28-51.05 16.554-65.592 16.932-70.15 7.11-9.149-19.723 39.262-42.049 89.627-45.309 6.756-.437 34.566 1.21 42.74 2.532m64.096 47.699c2.112.485 6.03 1.391 8.705 2.012 21.106 4.896 47.67 17.506 67.47 29.62l2.14 1.308-1.882.847c-69.16 31.077-143.82 27.632-197.72-10.177-6.764-4.744-6.809-3.63-.4-6.976 34.231-17.872 85.281-25.01 121.68-16.634" transform="rotate(3.757 63803.725 -83653.34) scale(.9771)"/><path d="M5723.8 4302.8c7.38 2.414 16.209 5.245 36.252 14.676 62.63 29.467 92.303 34.962 141.09 24.517 10.796-2.312 11.177-2.252 6.481 1-24.15 16.734-87.694 24.977-131.78 15.732-42-8.809-80.178-30.356-80.888-50.264-.381-10.711 9.935-11.845 28.844-5.661m-57.599 28.7c3.814 1.408 8.547 4.015 19.77 10.895 31.616 19.38 57.287 26.004 90.224 25.546 25.64-.357 19.671 4.368-11.788 8.94-54.077 7.86-106.47-4.375-116.27-29.154-4.985-12.614 5.124-21 18.062-16.226M5874.7 4381.5l-7.083.221c-22.79.713-55.464 7.054-52.8 10.222.74.883 6.953 1.515 15.901 1.618 31.863.368 58.659 9.828 85.665 28.19 24.063 16.364 30.245 18.497 37.57 12.967 18.412-13.9-8.068-43.264-49.854-50.807-4.08-.736-25.837-2.52-29.399-2.41M5785 4397.3c-35.141-.446-63.618 3-82.252 11.462-10.368 4.708-9.777 5.186 4.175 3.381 47.592-6.156 78.234 1.216 131.86 33.055 46.145 27.4 59.356 33.57 66.176 25.157 13.692-16.888-28.363-56.316-77.416-68.195-6.58-1.593-34.258-4.757-42.538-4.861" transform="rotate(3.757 63803.725 -83653.34) scale(.9771)"/><path d="M5713.1 4428a4968.92 4968.92 0 0 0-8.934-.067c-21.666-.146-49.62.891-71.943 7.25l-2.412.688 1.587 1.32c58.29 48.487 130.76 64.883 193.09 43.684 7.82-2.66 7.643-2.13 2.367-7.071-28.184-26.399-76.404-45.487-113.76-45.804" transform="rotate(3.757 63803.725 -83653.34) scale(.9771)"/><path d="M5869.4 4506.4c-7.763.155-17.439 1.983-39.434 4.615-68.726 8.222-98.742 3.481-141.43-22.337-9.447-5.714-9.827-5.783-6.452-1.173 17.353 23.709 73.958 51.338 118.31 59.197 42.257 7.488 87.244-5.053 94.193-23.721 3.739-10.045-5.295-16.977-25.185-16.58M5913 4558.9c-4.065-.017-9.826 2.344-22.777 4.702-36.483 6.642-63.49 4.91-93.723-8.168-23.534-10.18-19.815-3.411 7.27 13.23 46.56 28.609 100.16 36.422 118.72 17.307 9.45-9.73 4.297-27.015-9.494-27.072" transform="rotate(3.757 63803.725 -83653.34) scale(.9771)"/></g><use xlink:href="#b" transform="rotate(-15 -1130.539 982.003) scale(.8)" height="100%" width="100%"/><use xlink:href="#b" transform="rotate(-30 -1030.496 868.961) scale(.64)" height="100%" width="100%"/><use xlink:href="#b" transform="rotate(-45 -950.624 762.656) scale(.512)" height="100%" width="100%"/><use xlink:href="#b" transform="rotate(-60 -886.936 662.852) scale(.4096)" height="100%" width="100%"/><use xlink:href="#b" transform="rotate(-75 -836.183 569.047) scale(.32768)" height="100%" width="100%"/><use xlink:href="#b" transform="rotate(-90 -795.73 480.47) scale(.26214)" height="100%" width="100%"/><use xlink:href="#b" transform="rotate(-105 -763.63 396.464) scale(.20972)" height="100%" width="100%"/><use xlink:href="#b" transform="rotate(-120 -738.086 316.01) scale(.16777)" height="100%" width="100%"/><use xlink:href="#b" transform="rotate(-135.004 -717.82 238.238) scale(.1342)" height="100%" width="100%"/><use xlink:href="#b" transform="rotate(-150 -701.825 162.05) scale(.10737)" height="100%" width="100%"/><use xlink:href="#b" transform="rotate(-164.997 -689.278 86.313) scale(.0859)" height="100%" width="100%"/><use xlink:href="#b" transform="rotate(180 -679.45 9.651) scale(.06872)" height="100%" width="100%"/><use xlink:href="#b" transform="matrix(-.0531 .01423 -.01423 -.0531 -1338.8 37.111)" height="100%" width="100%"/><use xlink:href="#b" transform="rotate(150.001 -666.057 -153.437) scale(.04398)" height="100%" width="100%"/><use xlink:href="#b" transform="matrix(-.02488 .02488 -.02488 -.02488 -1302.7 50.145)" height="100%" width="100%"/><use xlink:href="#b" transform="rotate(119.988 -658.758 -347.523) scale(.02815)" height="100%" width="100%"/><use xlink:href="#b" transform="rotate(104.999 -656.921 -467.638) scale(.02252)" height="100%" width="100%"/><use xlink:href="#b" transform="matrix(0 .01801 -.01801 0 -1271.2 40.972)" height="100%" width="100%"/><use xlink:href="#b" transform="rotate(74.998 -656.448 -807.428) scale(.01441)" height="100%" width="100%"/><use xlink:href="#b" transform="rotate(60.002 -658.636 -1079.324) scale(.01153)" height="100%" width="100%"/><use xlink:href="#b" transform="rotate(44.996 -663.068 -1511.58) scale(.00922)" height="100%" width="100%"/><use xlink:href="#b" transform="rotate(30.018 -674.737 -2345.973) scale(.00738)" height="100%" width="100%"/><use xlink:href="#b" transform="rotate(14.961 -702.073 -4783.631) scale(.0059)" height="100%" width="100%"/><use xlink:href="#b" transform="translate(-1265.5 17.98) scale(.00472)" height="100%" width="100%"/><use xlink:href="#b" transform="rotate(-15.117 -580.01 4820.07) scale(.00378)" height="100%" width="100%"/><use xlink:href="#b" transform="rotate(-29.924 -600.406 2374.431) scale(.00302)" height="100%" width="100%"/><use xlink:href="#b" transform="rotate(-45.05 -617.452 1540.254) scale(.00242)" height="100%" width="100%"/><use xlink:href="#b" transform="rotate(-60 -621.415 1108.1) scale(.00194)" height="100%" width="100%"/><use xlink:href="#b" transform="matrix(.0004 -.0015 .0015 .0004 -1271.1 16.158)" height="100%" width="100%"/><use xlink:href="#b" transform="matrix(0 -.00124 .00124 0 -1271.6 16.491)" height="100%" width="100%"/><use xlink:href="#b" transform="rotate(-105.005 -629.308 496.406) scale(.00099)" height="100%" width="100%"/><use xlink:href="#b" transform="rotate(-120.096 -629.86 375.808) scale(.00079)" height="100%" width="100%"/></g></svg>