<?xml version="1.0" encoding="UTF-8" standalone="no"?>
<svg id="svg2" xmlns:rdf="http://www.w3.org/1999/02/22-rdf-syntax-ns#" xmlns="http://www.w3.org/2000/svg" height="508mm" width="677.33mm" version="1.1" xmlns:cc="http://creativecommons.org/ns#" xmlns:xlink="http://www.w3.org/1999/xlink" viewBox="0 0 2400.0001 1800.0001" xmlns:dc="http://purl.org/dc/elements/1.1/">
<defs id="defs4">
<clipPath id="clipPath4966" clipPathUnits="userSpaceOnUse">
<rect id="rect4968" opacity="0.599" height="1800" width="2400" y="-881.92" x="-2471.4"/>
</clipPath>
</defs>
<g id="layer1" transform="translate(2471.4 881.92)">
<g id="g4691" clip-path="url(#clipPath4966)">
<g id="g80912" transform="matrix(0.975 .063905 -.063905 0.975 -5333.6 -4352.4)">
<path id="path80914" d="m5701.1 3854.1c1.0057-0.098 4.1796-0.4077 7.0533-0.6873 22.693-2.2085 55.695-0.3009 53.374 3.126-0.6461 0.9539-6.7597 2.2243-15.649 3.2521-31.653 3.6594-57.664 13.662-83.142 34.093-22.702 18.205-28.697 20.818-36.434 15.882-19.448-12.407 5.4723-36.686 45.95-49.513 3.9521-1.2526 25.302-5.8057 28.849-6.1525"/>
<path id="path80916" d="m5791.7 3858.9c34.955-3.6452 64.205 0.039 83.268 7.4826 10.607 4.1416 10.043 4.6515-3.9864 3.6021-47.855-3.5794-77.597 5.6636-130.26 39.056-45.325 28.736-58.801 34.005-65.763 25.71-13.977-16.654 27.061-50.833 74.828-67.133 6.4073-2.1864 33.682-7.8584 41.918-8.7173"/>
<path id="path80918" d="m5865.9 3888.3c2.1661-0.082 6.1838-0.2293 8.9284-0.3278 21.652-0.7777 50.55 4.499 72.823 11.033 0 0 2.4069 0.7061 2.4069 0.7061l-1.2317 3.2769c-59.266 47.29-132.06 62.204-193.94 39.74-7.7655-2.819-7.4789-1.73-2.1643-6.6303 28.39-26.177 75.851-46.389 113.18-47.798"/>
<path id="path80920" d="m5708.8 3965.2c7.7478 0.5054 17.198 1.9107 39.005 5.8001 68.141 12.153 98.185 9.7524 142.57-13.018 9.8237-5.039 10.207-5.0812 6.5187-0.7185-18.969 22.436-78.244 46.936-123.21 49.446-42.848 2.3914-85.211-8.4367-91.078-27.473-3.1562-10.242 6.3414-15.332 26.194-14.037"/>
<path id="path80922" d="m5660.8 4008.9c4.0486 0.3681 9.2968 1.6576 21.922 5.3855 35.565 10.502 62.044 10.217 93.734 1.2273 24.668-6.9976 20.112-0.8852-9.0873 11.685-50.192 21.607-103.94 23.412-119.83 2.0229-8.0878-10.888-0.4739-21.57 13.26-20.32"/>
<path id="path80924" d="m5875.1 4003c-0.9673 0.2922-4.0199 1.2152-6.7834 2.0513-21.824 6.6022-51.755 21.21-48.362 23.58 0.9444 0.6598 7.108-0.3402 15.777-2.5595 30.868-7.9025 59.191-5.6813 90.031 5.0641 27.48 9.5748 34.113 11.937 39.847 4.7716 14.415-18.011-19.18-41.767-61.492-38.209-4.1312 0.3473-25.606 4.2701-29.018 5.3007"/>
<path id="path80926" d="m5792.5 4041.5c-34.059 8.6676-60.683 19.342-76.496 32.333-8.7983 7.2285-8.1039 7.5381 4.9073 2.1873 44.382-18.252 75.892-19.058 135.92-2.1427 51.655 14.557 66.016 17.146 70.437 7.2601 8.8753-19.847-41.961-47.179-92.418-45.955-6.768 0.1642-34.322 4.2742-42.347 6.3165"/>
<path id="path80928" d="m5731 4089.8c-2.0989 0.5419-5.9907 1.5508-8.6485 2.2421-20.969 5.4539-47.692 13.565-67.626 25.458l-2.1541 1.2851s1.8734 0.867 1.8734 0.867c68.808 31.846 143.06 29.031 197.83-7.5008 6.8727-4.584 6.8378-4.026 0.4673-7.4429-34.03-18.253-85.573-24.246-121.74-14.908"/>
<path id="path80930" d="m5902.3 4125.2c-7.4619 2.1452-16.306 6.4277-36.889 14.616-64.313 25.586-94.54 28.708-142.43 14.71-10.597-3.0976-10.982-3.0668-6.5372 0.5228 22.856 18.46 84.74 30.621 129.62 26.873 42.766-3.5712 82.939-27.3 84.864-47.127 1.0356-10.668-9.5165-15.093-28.637-9.5955"/>
<path id="path80932" d="m5958 4164.9c-3.9337 1.0255-8.8401 4.8407-20.757 10.433-33.57 15.755-59.998 20.244-92.628 15.734-25.4-3.5106-20.005 2.0161 10.546 10.803 52.516 15.104 106.25 8.2879 119.02-15.098 6.5004-11.904-2.841-25.351-16.186-21.872"/>
<path id="path80934" d="m5571.1 3540.1c0.9431-0.3629 3.9197-1.5071 6.6149-2.5426 21.283-8.178 53.506-15.079 52.184-11.157-0.368 1.0917-5.9207 3.948-14.214 7.3114-29.528 11.976-52.014 28.646-71.104 55.144-17.01 23.611-23.056 26.177-31.798 23.383-21.974-7.024-3.4419-35.365 32.151-58.518 3.4752-2.2607 22.839-12.34 26.165-13.62"/>
<path id="path80936" d="m5659.6 3520.9c32.867-12.446 61.645-17.25 82.005-15.18 11.329 1.1515 11.438 2.9434-2.3923 5.5196-47.177 8.7877-73.855 25.302-115.65 71.588-35.966 39.833-48.331 47.426-57.186 41.192-17.778-12.515 12.891-56.039 54.915-83.991 5.637-3.7494 30.561-16.195 38.305-19.128"/>
<path id="path80938" d="m5739 3530.1c2.0727-0.634 5.9185-1.8064 8.5461-2.605 20.73-6.3009 50.057-8.6831 73.262-8.0839 0 0 2.5074 0.065 2.5074 0.065l-1.2082 1.6738c-44.378 61.477-110.48 95.404-176.13 90.396-8.2374-0.6284-7.9334-0.1592-4.0543-6.2593 20.722-32.586 61.356-64.259 97.076-75.186"/>
<path id="path80940" d="m5607.6 3645.7c7.5981-1.5981 16.686-3.5598 38.759-5.4127 68.973-5.7897 97.437-15.88 134.46-49.318 8.1937-7.4 8.5534-7.5396 6.1135-2.3738-12.547 26.566-63.425 65.464-106.22 79.505-40.776 13.379-84.671 13.809-95.238-3.0769-5.6855-9.0854 2.6562-15.229 22.125-19.324"/>
<path id="path80942" d="m5572.1 3699.3c4.0066-0.6888 9.4098-0.797 22.569-0.4522 37.07 0.9713 62.629-6.1341 90.921-23.004 22.024-13.132 19.23-6.0596-5.7239 13.634-42.896 33.854-94.4 49.468-115.27 32.908-10.626-8.4295-6.0822-20.75 7.5088-23.086"/>
<path id="path80944" d="m5777.7 3638.4c-0.859 0.5322-3.5695 2.2124-6.0233 3.734-19.377 12.016-44.488 33.843-40.597 35.255 1.083 0.393 6.7782-2.167 14.579-6.5531 27.774-15.617 55.72-20.833 88.29-18.44 29.022 2.1324 35.442 0.8877 39.019-7.5644 8.9916-21.244-28.647-33.415-68.604-19.048-3.9013 1.4027-23.634 10.74-26.664 12.616"/>
<path id="path80946" d="m5707.9 3696.8c-30.652 17.192-53.579 34.413-65.483 51.06-6.6235 9.2624-5.8725 9.3813 5.3065 0.8402 38.132-29.134 68.364-38.08 130.72-37.324 53.663 0.6506 68.199-0.6098 69.899-11.304 3.4132-21.472-52.758-34.586-101.18-20.338-6.4946 1.9112-32.044 13.016-39.266 17.067"/>
<path id="path80948" d="m5661 3759.4c-1.8863 1.0681-5.3829 3.0526-7.7701 4.4101-18.834 10.71-42.514 25.557-58.668 42.225l-1.7457 1.8012s2.0344 0.3498 2.0344 0.3498c74.724 12.851 145.68-9.1806 189.07-58.702 5.4437-6.2139 5.555-5.666-1.4849-7.3082-37.607-8.7724-88.929-1.1812-121.43 17.224"/>
<path id="path80950" d="m5835.7 3749.1c-6.6459 4.0143-14.1 10.442-31.836 23.712-55.422 41.464-83.79 52.357-133.67 51.324-11.038-0.2285-11.402-0.099-6.175 2.2086 26.878 11.865 89.73 7.5017 132.08-7.8362 40.35-14.614 73.027-47.979 69.717-67.622-1.7806-10.569-13.086-12.072-30.115-1.7859"/>
<path id="path80952" d="m5899.7 3772.9c-3.53 2.0162-7.322 6.9612-17.365 15.471-28.292 23.974-52.539 35.969-85.264 39.728-25.474 2.9266-18.872 6.9353 12.904 7.8356 54.623 1.5477 104.97-18.438 111.51-44.268 3.3304-13.148-9.8139-25.608-21.789-18.768"/>
<path id="path80954" d="m5363.4 3269.5c0.8231-0.5862 3.4212-2.4353 5.7738-4.1091 18.578-13.218 48.181-28.029 47.877-23.901-0.084 1.149-4.7507 5.2983-11.944 10.621-25.614 18.953-42.518 41.491-54.038 72.05-10.264 27.23-15.444 31.337-24.613 30.921-23.045-1.0463-12.502-33.4 15.833-65.024 2.7665-3.0878 18.208-18.49 21.111-20.558"/>
<path id="path80956" d="m5444.4 3228.5c28.484-20.587 55.668-32.089 75.901-35.163 11.258-1.7107 11.024-0.9872-1.654 5.1117-43.244 20.804-64.389 43.654-93.303 98.908-24.883 47.55-33.919 58.851-44.095 55.149-20.431-7.4331-2.1211-57.606 31.16-95.55 4.4642-5.0896 25.28-23.604 31.991-28.455"/>
<path id="path80958" d="m5523.3 3216.8c1.835-1.1538 5.2406-3.2906 7.5681-4.7483 18.362-11.5 45.986-21.455 68.539-26.948 0 0 2.4371-0.5935 2.4371-0.5935l0.5179 3.374c-27.593 70.621-83.112 120-147.93 131.57-8.1327 1.4516-7.364 2.2356-5.2159-4.6668 11.475-36.872 42.458-78.103 74.079-97.988"/>
<path id="path80960" d="m5425.9 3362c6.9562-3.449 15.836-6.9737 36.653-14.548 65.044-23.666 89.818-40.839 116.77-82.821 5.965-9.2906 6.2754-9.5197 5.2765-3.8946-5.1374 28.928-44.126 79.879-81.724 104.68-35.824 23.63-77.973 35.392-92.597 21.866-7.8681-7.2776-2.2048-16.445 15.619-25.282"/>
<path id="path80962" d="m5406.4 3424.1c3.6849-1.7169 8.87-3.2405 21.658-6.3641 36.024-8.7993 58.782-22.317 81.643-46.032 17.796-18.461 16.907-10.859-1.983 14.71-32.472 43.951-78.026 72.499-102.52 62.011-12.468-5.339-11.298-18.5 1.2023-24.324"/>
<path id="path80964" d="m5588.6 3311.3c-0.6888 0.7393-2.3732 3.7067-4.3657 5.7962-15.735 16.501-34.447 43.857-30.326 44.244 1.1471 0.1079 5.8795-4.0048 12.25-10.289 22.684-22.378 48.197-34.744 80.246-41.019 28.558-5.5912 35.378-6.9442 36.711-16.025 3.3488-22.824-37.333-26.258-72.106-1.8903-3.3953 2.3792-19.978 16.576-22.408 19.184"/>
<path id="path80966" d="m5536.6 3386.1c-25.038 24.662-43.112 46.555-50.431 65.666-4.0727 10.634-3.316 10.559 5.3469-0.5256 29.55-37.811 56.505-53.87 116.85-69.614 51.929-13.549 65.532-18.591 64.342-29.355-2.3874-21.61-59.771-19.488-102.72 7.0168-5.7614 3.5552-27.481 21.001-33.381 26.812"/>
<path id="path80968" d="m5507.2 3458.2c-1.5554 1.5099-4.4374 4.3131-6.4044 6.2295-15.519 15.119-33.662 36.902-44.826 57.253l-1.2063 2.1993 2.0544-0.2014c75.459-7.3963 137.57-47.385 167-106.28 3.6928-7.3899 3.6253-7.3334-3.5982-7.0525-38.587 1.5001-86.22 21.832-113.02 47.85"/>
<path id="path80970" d="m5673.8 3403.8c-5.411 5.5681-11.483 12.945-25.059 30.448-42.423 54.691-67.394 72.402-115.9 84.066-10.735 2.5814-11.053 2.7993-5.412 3.7039 29.01 4.6524 88.888-15.628 125.94-41.24 35.301-24.404 57.688-66.058 49.282-84.117-4.5227-9.7166-14.983-7.128-28.847 7.1396"/>
<path id="path80972" d="m5741.9 3410.4c-2.9014 2.8473-6.1488 7.1673-13.564 18.044-20.889 30.64-41.167 48.69-71.705 61.037-23.772 9.6115-16.271 11.792 14.686 4.5625 53.214-12.427 96.097-46.204 95.518-72.842-0.295-13.56-15.092-20.46-24.934-10.801"/>
<path id="path80974" d="m5093.6 3062.1c0.642-0.7803 2.6689-3.2423 4.5044-5.471 14.494-17.6 39.195-39.573 39.976-35.508 0.2175 1.1313-3.208 6.3521-8.7683 13.364-19.798 24.966-31.096 50.458-34.656 82.921-3.1724 28.927-5.562 35.014-14.523 36.997-22.524 4.9849-22.168-29.88-2.5956-67.562 1.9109-3.6792 13.798-21.989 16.063-24.741"/>
<path id="path80976" d="m5161.1 3001.5c22.144-27.291 45.371-45.39 64.108-53.62 10.426-4.5792 10.388-3.8197-0.268 5.366-36.347 31.333-50.842 58.928-64.401 119.8-11.668 52.384-17.456 65.645-28.245 64.715-21.661-1.8672-16.934-55.16 5.3237-100.46 2.9856-6.0761 18.265-29.371 23.482-35.801"/>
<path id="path80978" d="m5234.2 2969.7c1.472-1.5911 4.2052-4.5397 6.0738-6.5523 14.742-15.878 40.262-31.791 60.746-42.709l2.2136-1.1798-0.2261 2.0519c-8.3023 75.365-49.089 137.47-108.67 165.48-7.4766 3.5143-6.5058 4.0415-6.225-3.182 1.5002-38.588 20.724-86.486 46.09-113.91"/>
<path id="path80980" d="m5177.8 3135.4c5.8218-5.1372 12.832-11.401 31.118-23.902 57.14-39.063 76.609-62.394 91.738-109.93 3.3482-10.521 3.5885-10.823 4.0843-5.1311 2.5497 29.27-21.916 88.658-51.788 122.37-28.462 32.119-66.037 54.335-83.671 45.071-9.4881-4.9846-6.3997-15.308 8.5178-28.471"/>
<path id="path80982" d="m5175 3200.4c3.1128-2.6147 6.4674-6.4114 18.081-12.609 32.716-17.46 51.508-36.327 67.772-64.972 12.661-22.298 13.767-14.654 2.1616 14.942-19.949 50.874-56.508 90.239-82.885 86.469-13.427-1.9191-15.689-14.961-5.1292-23.83"/>
<path id="path80984" d="m5322.3 3044.7c-0.4839 0.8871-2.0106 3.687-3.3923 6.2221-10.912 20.02-21.904 51.325-17.824 50.629 1.1357-0.1936 4.8212-5.2342 9.434-12.903 16.425-27.305 38.172-45.739 67.663-59.768 26.278-12.5 31.243-16.757 30.172-25.873-2.6922-22.911-41.459-14.681-69.102 17.55-2.6991 3.1469-15.243 21.013-16.95 24.142"/>
<path id="path80986" d="m5290.8 3130c-17.777 30.317-29.59 56.213-31.696 76.57-1.1715 11.326-0.4601 11.058 5.027-1.8961 18.717-44.188 40.613-66.979 95.16-97.203 46.943-26.01 58.025-35.314 54.081-45.399-7.9186-20.248-62.699-3.3763-97.297 33.37-4.6408 4.929-21.087 27.415-25.276 34.558"/>
<path id="path80988" d="m5281.1 3207.4c-1.1098 1.862-3.1648 5.3177-4.5664 7.6792-11.059 18.632-22.938 44.415-28.431 66.968l-2.0406 1.1644s1.9401-0.7052 1.9401-0.7052c71.26-25.9 121.95-80.225 135.06-144.74 1.6452-8.0957 1.624-8.0502-5.2784-5.9021-36.872 11.475-77.562 43.452-96.686 75.539"/>
<path id="path80990" d="m5427.8 3111.7c-3.777 6.7836-7.7215 15.486-16.28 35.917-26.743 63.841-46.272 87.467-90.074 111.35-9.6935 5.2851-9.9442 5.5784-4.2621 4.9843 29.221-3.0546 81.709-38.153 110.81-72.53 27.727-32.755 38.618-78.862 25.805-94.114-6.8938-8.2064-16.321-2.9869-25.999 14.395"/>
<path id="path80992" d="m5495.2 3100.3c-2.0603 3.5044-2.9014 9.5931-7.3777 21.972-12.61 34.873-28.132 56.729-54.401 76.603-20.449 15.471-12.671 15.653 15.332 0.6061 48.136-25.865 80.783-69.662 73.286-95.23-3.8164-13.015-19.85-15.84-26.84-3.9513"/>
<path id="path80994" d="m4779.7 2931.8c0.4108-0.9232 1.7081-3.8364 2.8831-6.4737 9.2782-20.827 27.195-48.484 29.03-44.774 0.5109 1.0326-1.4012 6.9769-4.8942 15.216-12.438 29.336-16.6 57.002-11.401 89.244 4.6323 28.729 2.1254 34.793-6.0387 38.986-20.52 10.54-27.285-22.535-18.466-64.07 0.8609-4.0555 7.4371-24.871 8.886-28.128"/>
<path id="path80996" d="m4828.8 2855.6c14.478-32.024 31.486-55.754 47.365-68.663 8.8357-7.183 10.209-5.9982 2.2301 5.589-27.215 39.525-34.457 70.054-31.389 132.34 2.6396 53.602-0.7787 67.685-11.452 69.517-21.428 3.6785-30.375-48.72-20.364-98.189 1.3429-6.6355 10.198-33.049 13.61-40.594"/>
<path id="path80998" d="m4890.6 2805.7c0.9974-1.9244 3.8767-5.1478 5.1748-7.568 10.241-19.093 29.372-41.49 46.238-57.437l1.8226-1.7232 0.3247 2.0386c11.927 74.876-10.981 145.56-61.035 188.33-6.2808 5.3666-5.7343 5.4846-7.2893-1.5751-8.3069-37.712-2.4238-88.898 14.764-122.06"/>
<path id="path81000" d="m4880 2980.6c4.2579-6.4926 9.316-14.322 23.656-31.205 44.808-52.755 57.88-80.007 60.544-129.83 0.5894-11.025 0.7459-11.378 2.6597-5.9946 9.8421 27.683 1.0672 91.002-18.877 131.39-19.003 38.478-50.635 69.429-70.036 64.913-10.439-2.4299-8.8562-12.638 2.0541-29.274"/>
<path id="path81002" d="m4892.7 3043.6c2.3546-3.3139 6.109-7.2013 15.681-16.237 26.966-25.455 40.085-48.545 48.245-80.459 6.3524-24.842 9.3717-17.885 5.5695 13.676-6.5356 54.253-32.052 101.67-58.529 104.65-13.478 1.5176-18.955-10.393-10.967-21.635"/>
<path id="path81004" d="m4995.4 2855.4c-0.2338 0.9831-0.9705 4.0859-1.637 6.8952-5.264 22.184-7.6613 55.341-3.9072 53.598 1.045-0.4851 3.2771-6.3167 5.7139-14.927 8.6764-30.66 24.817-54.094 49.594-75.369 22.078-18.957 25.751-24.368 22.326-32.883-8.6093-21.402-43.889-3.4281-62.084 34.937-1.7767 3.7458-9.1815 24.282-10.006 27.749"/>
<path id="path81006" d="m4987.2 2946c-9.6049 33.806-13.694 62.162-10.39 82.358 1.8383 11.238 2.4545 10.792 4.3542-3.1474 6.4803-47.549 21.611-75.236 66.341-118.69 38.494-37.395 47.903-48.574 41.562-57.353-12.731-17.624-61.793 12.787-86.068 57.038-3.2562 5.9355-13.536 31.828-15.8 39.793"/>
<path id="path81008" d="m4998.2 3023.4c-0.5835 2.0877-1.6618 5.9609-2.3962 8.6071-5.7942 20.877-12.038 48.084-11.722 71.293l0.034 2.5081 1.6884-1.1878c62.012-43.626 96.741-109.31 92.532-175.02-0.5282-8.2443-0.063-7.9347-6.2095-4.1302-32.836 20.324-63.873 61.95-73.928 97.925"/>
<path id="path81010" d="m5114.7 2892.8c-1.8743 7.5346-2.6262 17.326-5.8179 39.246-9.9731 68.494-22.372 96.237-58.425 130.72-7.9783 7.6316-8.1438 7.9801-2.8136 5.9238 27.411-10.574 68.867-58.068 88.003-98.841 18.233-38.849 17.84-85.497 1.6276-97.072-8.7228-6.2274-17.772 0.7151-22.575 20.021"/>
<path id="path81012" d="m5176.7 2864.3c-1.0752 3.9205-0.3002 10.07-1.3959 23.188-3.0867 36.954-11.788 62.556-32.283 88.343-15.954 20.074-8.4506 18.244 14.668-3.5762 39.739-37.509 61.234-87.23 47.609-110.13-6.9358-11.656-24.95-11.126-28.598 2.1731"/>
<path id="path81014" d="m4441.5 2887.4c0.1679-0.9964 0.6987-4.1409 1.1797-6.9878 3.7983-22.482 14.262-53.898 16.963-50.761 0.7517 0.873 0.3792 7.1062-0.9536 15.955-4.7454 31.508-0.7922 59.403 12.638 89.171 11.967 26.526 11.09 33.068 4.3011 39.245-17.064 15.524-32.114-14.763-34.455-57.16-0.2287-4.1396-0.2644-25.948 0.3278-29.462"/>
<path id="path81016" d="m4469.8 2801.1c5.6227-34.692 16.859-62.104 29.035-78.552 6.7745-9.1527 7.1188-8.4746 2.4326 4.7904-15.985 45.248-15.027 76.609 4.1532 135.95 16.506 51.066 16.841 65.571 7.0124 70.117-19.733 9.1257-41.94-39.196-45.181-89.563-0.4348-6.7561 1.2232-34.565 2.548-42.739"/>
<path id="path81018" d="m4517.6 2737c0.4886-2.1118 1.3988-6.0279 2.0227-8.7024 4.9219-21.1 17.607-47.693 29.751-67.475l1.3122-2.1377 0.8433 1.8842c30.973 69.206 27.219 143.41-10.002 197.72-4.6706 6.8142-4.1122 6.7862-7.4482 0.373-17.821-34.259-24.898-85.267-16.478-121.66"/>
<path id="path81020" d="m4551.8 2908.6c2.4268-7.3753 5.2586-16.261 14.731-36.285 29.599-62.568 34.625-92.537 23.681-141.21-2.4217-10.772-2.3667-11.154 0.9349-6.4912 16.979 23.978 25.85 87.729 17.029 131.9-8.4045 42.084-30.888 80.214-50.796 80.882-10.712 0.3595-11.798-9.8945-5.5799-28.792"/>
<path id="path81022" d="m4582 2966.3c1.3692-3.8278 2.2612-8.7619 9.1707-19.966 19.465-31.564 26.149-57.293 25.788-90.231-0.2804-25.64 4.5221-19.591 9.3871 11.824 8.3629 54.002-5.1737 106.45-29.983 116.17-12.629 4.9478-19.009-4.8132-14.364-17.798"/>
<path id="path81024" d="m4630.8 2757.7c0.028 1.0101 0.1179 4.1979 0.1997 7.084 0.6452 22.791 6.9028 55.404 10.08 52.752 0.8845-0.7383 1.5366-6.9483 1.6694-15.896 0.4728-31.86 10.059-58.71 28.518-85.651 16.448-24.006 18.604-30.18 13.1-37.525-13.833-18.461-43.402 8.0808-51.069 49.844-0.7488 4.0777-2.5976 25.829-2.4983 29.392"/>
<path id="path81026" d="m4646.5 2847.3c-0.1281 35.144 2.5773 63.482 10.967 82.148 4.668 10.386 5.1488 9.7972 3.3977-4.1618-5.9731-47.615 1.5312-78.329 33.592-131.82 27.591-46.032 32.52-59.635 24.054-66.387-16.999-13.555-56.096 28.48-67.533 77.638-1.534 6.5939-4.4475 34.3-4.4778 42.58"/>
<path id="path81028" d="m4676.8 2919.1c-0.027 2.1675-0.074 6.1877-0.1039 8.9338-0.2347 21.665 2.3229 49.909 8.857 72.182l0.7061 2.4068-0.6532-1.9941c48.76-58.062 65.495-130.45 44.588-192.88-2.6235-7.8336-2.6486-7.7733-7.5489-2.4587-26.177 28.39-45.373 76.463-45.845 113.81"/>
<path id="path81030" d="m4756 2762.8c0.1166 7.7633 1.0464 17.272 3.8381 39.247 8.7232 68.664 3.586 98.864-22.455 141.42-5.7628 9.4174-5.8338 9.7966-1.2062 6.4462 23.798-17.229 51.768-73.903 59.879-118.21 7.7283-42.213-6.0056-87.548-24.724-94.36-10.071-3.6655-15.631 5.5651-15.332 25.458"/>
<path id="path81032" d="m4808.8 2719.2c-0.039 4.065 0.7187 9.4161 3.1643 22.35 6.8896 36.437 5.331 63.551-7.5489 93.869-10.026 23.601-3.1735 19.836 13.628-7.1498 28.882-46.389 35.321-100.6 16.084-119.04-9.792-9.3853-25.197-3.819-25.328 9.9708"/>
<path id="path81034" d="m4104.1 2931.3c-0.098-1.0057-0.4077-4.1796-0.6873-7.0533-2.2085-22.693-0.2999-55.691 3.1269-53.37 0.9539 0.6461 2.2244 6.7597 3.2522 15.649 3.6593 31.653 13.663 57.668 34.094 83.146 18.205 22.702 20.818 28.697 15.882 36.434-12.407 19.448-36.688-5.4797-49.515-45.957-1.2526-3.9521-5.8056-25.302-6.1525-28.849"/>
<path id="path81036" d="m4108.9 2840.7c-3.6451-34.955 0.041-64.197 7.4845-83.26 4.1416-10.607 4.6514-10.043 3.602 3.9864-3.5794 47.855 5.6644 77.6 39.056 130.27 28.736 45.325 34.005 58.802 25.71 65.763-16.653 13.977-50.836-27.072-67.136-74.839-2.1864-6.4073-7.8584-33.682-8.7174-41.918"/>
<path id="path81038" d="m4138.2 2766.6c-0.082-2.166-0.2292-6.1838-0.3278-8.9283-0.7777-21.652 4.4998-50.546 11.034-72.82 0 0 2.6962-2.7851 2.6962-2.7851l1.2875 1.6136c47.29 59.266 62.204 132.06 39.74 193.94-2.819 7.7654-1.7307 7.4751-6.631 2.1605-26.177-28.39-46.39-75.855-47.798-113.18"/>
<path id="path81040" d="m4215.2 2923.7c0.5054-7.7478 1.9107-17.198 5.8001-39.005 12.153-68.141 9.753-98.181-13.017-142.57-5.039-9.8236-5.0812-10.207-0.7184-6.5186 22.436 18.969 46.937 78.252 49.447 123.22 2.3914 42.848-8.4384 85.2-27.475 91.066-10.242 3.1562-15.332-6.3415-14.037-26.194"/>
<path id="path81042" d="m4258.9 2971.7c0.3681-4.0486 1.6576-9.2968 5.3855-21.922 10.502-35.565 10.217-62.04 1.2278-93.73-6.9976-24.668-0.8847-20.108 11.685 9.0912 21.607 50.192 23.412 103.94 2.0224 119.82-10.888 8.0879-21.57 0.4702-20.321-13.264"/>
<path id="path81044" d="m4253 2757.4c0.2922 0.9673 1.2152 4.0199 2.0513 6.7834 6.6022 21.824 21.211 51.759 23.581 48.366 0.6598-0.9445-0.3402-7.108-2.5595-15.777-7.9025-30.868-5.6809-59.187 5.0645-90.027 9.5749-27.48 11.938-34.109 4.772-39.844-18.011-14.415-41.768 19.169-38.21 61.481 0.3473 4.1313 4.2701 25.606 5.3006 29.018"/>
<path id="path81046" d="m4291.5 2840c8.6677 34.059 19.342 60.687 32.334 76.5 7.2286 8.7983 7.5381 8.1039 2.1873-4.9073-18.252-44.382-19.058-75.888-2.1423-135.91 14.557-51.655 17.146-66.012 7.2604-70.433-19.847-8.8753-47.18 41.95-45.956 92.406 0.1642 6.768 4.2742 34.322 6.3164 42.347"/>
<path id="path81048" d="m4339.8 2901.6c0.5419 2.0988 1.5507 5.9907 2.2421 8.6484 5.4539 20.969 13.566 47.7 25.458 67.634l1.2851 2.1541 0.867-1.8734c31.846-68.808 29.031-143.06-7.5008-197.83-4.584-6.8727-4.026-6.8377-7.4429-0.4673-18.253 34.03-24.246 85.566-14.909 121.73"/>
<path id="path81050" d="m4375.2 2730.3c2.1452 7.4619 6.4279 16.31 14.616 36.892 25.586 64.313 28.708 94.54 14.71 142.43-3.0976 10.597-3.0668 10.982 0.5228 6.5372 18.46-22.856 30.621-84.732 26.873-129.62-3.5712-42.766-27.3-82.947-47.127-84.872-10.668-1.0357-15.093 9.5126-9.5956 28.633"/>
<path id="path81052" d="m4414.9 2674.6c1.0255 3.9337 4.8408 8.844 10.433 20.76 15.755 33.57 21.016 60.059 16.093 92.63-3.8318 25.354 1.7627 20.029 10.936-10.408 15.768-52.321 7.7958-106.39-15.59-119.16-11.904-6.5003-25.351 2.8373-21.872 16.182"/>
<path id="path81054" d="m3790.1 3061.3c-0.3629-0.9431-1.5071-3.9197-2.5426-6.6149-8.178-21.283-15.077-53.503-11.155-52.181 1.0917 0.368 3.9479 5.9206 7.3114 14.213 11.976 29.528 28.648 52.017 55.145 71.107 23.611 17.01 26.179 23.06 23.384 31.802-7.024 21.974-35.37 3.4323-58.524-32.161-2.2607-3.4752-12.34-22.839-13.62-26.165"/>
<path id="path81056" d="m3770.8 2972.8c-12.446-32.867-16.476-62.205-14.159-82.538 1.2888-11.314 1.9261-10.899 4.5023 2.9317 8.7876 47.177 25.302 73.855 71.588 115.65 39.833 35.966 47.427 48.334 41.194 57.189-12.515 17.778-56.045-12.901-83.997-54.925-3.7494-5.6369-16.195-30.56-19.128-38.305"/>
<path id="path81058" d="m3780 2893.4c-0.6341-2.0727-1.8065-5.9185-2.6051-8.5461-6.3009-20.73-8.6814-50.054-8.0822-73.258l0.065-2.5075 1.6738 1.2082c61.477 44.378 95.404 110.48 90.396 176.13-0.6285 8.2374-0.1592 7.9334-6.2593 4.0543-32.586-20.722-64.26-61.359-75.188-97.079"/>
<path id="path81060" d="m3895.6 3024.8c-1.5981-7.5981-3.5582-16.682-5.4111-38.756-5.7897-68.973-15.878-97.433-49.317-134.46-7.4-8.1936-7.5396-8.5533-2.3738-6.1135 26.566 12.547 65.467 63.432 79.508 106.23 13.379 40.776 13.805 84.661-3.0813 95.228-9.0854 5.6855-15.231-2.6595-19.325-22.128"/>
<path id="path81062" d="m3949.3 3060.3c-0.6888-4.0065-0.797-9.4097-0.4522-22.569 0.9713-37.07-6.1326-62.625-23.003-90.918-13.132-22.024-6.0582-19.227 13.636 5.7274 33.854 42.896 49.467 94.397 32.907 115.27-8.4296 10.626-20.752 6.0788-23.088-7.5123"/>
<path id="path81064" d="m3888.3 2854.8c0.5321 0.8591 2.2124 3.5696 3.7339 6.0234 12.016 19.377 33.844 44.491 35.256 40.6 0.393-1.0829-2.1671-6.7781-6.5531-14.578-15.617-27.774-20.831-55.716-18.438-88.286 2.1323-29.022 0.8877-35.442-7.5645-39.019-21.244-8.9915-33.418 28.64-19.051 68.597 1.4027 3.9013 10.74 23.634 12.616 26.664"/>
<path id="path81066" d="m3946.8 2924.5c17.192 30.652 34.414 53.582 51.061 65.486 9.2624 6.6234 9.3814 5.8724 0.8403-5.3066-29.134-38.132-38.079-68.36-37.323-130.72 0.6506-53.663-0.6084-68.195-11.303-69.895-21.472-3.4132-34.59 52.748-20.342 101.17 1.9112 6.4946 13.016 32.044 17.067 39.266"/>
<path id="path81068" d="m4009.4 2971.4c1.0681 1.8862 3.0526 5.3828 4.41 7.7701 10.71 18.834 25.56 42.521 42.228 58.675l1.8012 1.7457 0.3499-2.0344c12.851-74.724-9.1807-145.68-58.702-189.07-6.214-5.4437-5.6661-5.5551-7.3083 1.4849-8.7724 37.607-1.1836 88.922 17.222 121.43"/>
<path id="path81070" d="m3999.1 2796.8c4.0142 6.6459 10.443 14.104 23.713 31.84 41.464 55.422 52.357 83.79 51.324 133.67-0.2285 11.038-0.099 11.402 2.2086 6.175 11.865-26.878 7.5038-89.722-7.8341-132.07-14.614-40.35-47.981-73.034-67.624-69.725-10.569 1.7806-12.073 13.082-1.787 30.112"/>
<path id="path81072" d="m4022.8 2732.8c2.0162 3.5299 6.9623 7.3255 15.472 17.368 23.974 28.292 35.97 52.542 39.729 85.267 2.9267 25.474 6.9353 18.872 7.8356-12.904 1.5477-54.623-18.438-104.97-44.268-111.51-13.148-3.3304-25.61 9.8066-18.77 21.781"/>
<path id="path81074" d="m3519.4 3268.9c-0.5862-0.8231-2.4353-3.4213-4.1091-5.7738-13.218-18.578-28.026-48.178-23.898-47.874 1.149 0.084 5.2982 4.7508 10.621 11.944 18.953 25.614 41.491 42.518 72.05 54.038 27.23 10.264 31.34 15.447 30.923 24.616-1.0462 23.045-33.408 12.494-65.032-15.841-3.0877-2.7665-18.488-18.205-20.555-21.108"/>
<path id="path81076" d="m3478.4 3187.9c-20.587-28.484-32.084-55.663-35.158-75.896-1.7107-11.258-0.9872-11.024 5.1118 1.6541 20.804 43.244 43.657 64.392 98.91 93.306 47.55 24.883 58.851 33.919 55.149 44.095-7.4332 20.431-57.614 2.1131-95.558-31.168-5.0896-4.4641-23.604-25.28-28.455-31.991"/>
<path id="path81078" d="m3466.7 3109c-1.1538-1.8349-3.2906-5.2406-4.7484-7.5681-11.5-18.362-21.453-45.983-26.945-68.536l-0.5935-2.4371s3.3763-0.5151 3.3763-0.5151c70.621 27.594 120 83.112 131.57 147.93 1.4516 8.1328 2.2332 7.3613-4.6692 5.2132-36.872-11.475-78.106-42.46-97.99-74.082"/>
<path id="path81080" d="m3611.9 3206.4c-3.4491-6.9562-6.9738-15.836-14.548-36.653-23.666-65.044-40.837-89.816-82.818-116.77-9.2905-5.965-9.5196-6.2755-3.8946-5.2765 28.928 5.1374 79.884 44.131 104.68 81.729 23.63 35.824 35.385 77.965 21.859 92.588-7.2775 7.8681-16.445 2.2048-25.282-15.619"/>
<path id="path81082" d="m3674 3226c-1.7169-3.685-4.5316-7.9379-7.5021-20.762-8.368-36.126-21.176-59.675-44.892-82.536-18.461-17.796-10.857-16.904 14.712 1.9859 43.951 32.472 72.497 78.024 62.008 102.52-5.339 12.468-18.502 11.295-24.326-1.2051"/>
<path id="path81084" d="m3561.2 3043.7c0.7393 0.6888 3.709 2.3761 5.7985 4.3686 16.501 15.735 43.859 34.45 44.247 30.329 0.1079-1.147-3.8031-6.0147-10.011-12.46-22.104-22.95-35.023-47.986-41.298-80.036-5.5913-28.558-6.9421-35.375-16.023-36.708-22.824-3.3488-26.265 37.324-1.8968 72.098 2.3791 3.3953 16.576 19.978 19.183 22.408"/>
<path id="path81086" d="m3636 3095.8c24.662 25.038 46.559 43.118 65.67 50.437 10.634 4.0727 10.559 3.316-0.5256-5.3469-37.811-29.55-53.87-56.505-69.614-116.85-13.548-51.929-18.589-65.528-29.353-64.339-21.61 2.3874-19.494 59.762 7.0103 102.71 3.5552 5.7614 21.001 27.481 26.812 33.381"/>
<path id="path81088" d="m3708.1 3125.2c1.5099 1.5554 4.3132 4.4374 6.2296 6.4044 15.119 15.519 36.904 33.665 57.255 44.829l2.1992 1.2063s-0.2014-2.0544-0.2014-2.0544c-7.3962-75.459-47.383-137.57-106.28-167-7.3899-3.6929-7.3354-3.6284-7.0546 3.5951 1.5002 38.587 21.83 86.217 47.848 113.02"/>
<path id="path81090" d="m3653.8 2958.6c5.5681 5.411 12.945 11.482 30.448 25.059 54.691 42.423 72.404 67.398 84.068 115.9 2.5813 10.735 2.7993 11.053 3.7038 5.4119 4.6524-29.01-15.624-88.882-41.237-125.93-24.404-35.301-66.063-57.698-84.122-49.292-9.7167 4.5228-7.128 14.983 7.1396 28.848"/>
<path id="path81092" d="m3660.3 2890.5c2.8473 2.9014 7.1673 6.1488 18.044 13.564 30.64 20.889 48.692 41.17 61.039 71.708 9.6115 23.772 11.794 16.274 4.5643-14.683-12.427-53.214-46.205-96.1-72.844-95.521-13.56 0.295-20.462 15.088-10.803 24.931"/>
<path id="path81094" d="m3311.9 3538.7c-0.7803-0.642-3.2423-2.669-5.471-4.5044-17.6-14.494-39.57-39.193-35.505-39.974 1.1313-0.2175 6.3521 3.208 13.364 8.7683 24.966 19.798 50.461 31.098 82.924 34.658 28.927 3.1723 35.014 5.562 36.997 14.523 4.985 22.524-29.887 22.164-67.568 2.5918-3.6792-1.9109-21.989-13.798-24.741-16.063"/>
<path id="path81096" d="m3251.3 3471.2c-27.291-22.144-45.384-45.367-53.613-64.104-4.5791-10.426-3.8197-10.388 5.366 0.2679 31.333 36.347 58.932 50.844 119.8 64.403 52.384 11.668 65.645 17.456 64.715 28.245-1.8671 21.661-55.169 16.928-100.47-5.3295-6.0761-2.9856-29.371-18.265-35.801-23.482"/>
<path id="path81098" d="m3219.6 3398.1c-1.5912-1.472-4.5397-4.2052-6.5523-6.0738-15.878-14.742-31.785-40.258-42.703-60.742l-1.1798-2.2135 2.0519 0.2261c75.364 8.3023 137.47 49.089 165.48 108.67 3.5142 7.4765 3.7726 6.9807-3.447 6.6131-38.567-1.9636-86.227-21.116-113.65-46.482"/>
<path id="path81100" d="m3385.2 3454.5c-5.1372-5.8218-11.398-12.83-23.899-31.116-39.063-57.14-62.394-76.609-109.93-91.738-10.521-3.3482-10.822-3.5886-5.131-4.0843 29.27-2.5497 88.664 21.921 122.37 51.792 32.119 28.462 54.326 66.03 45.062 83.665-4.9846 9.4881-15.308 6.3996-28.471-8.5178"/>
<path id="path81102" d="m3450.3 3457.3c-2.6147-3.1128-6.4085-6.4652-12.606-18.078-17.46-32.716-36.324-51.505-64.969-67.77-22.298-12.661-14.654-13.767 14.942-2.1616 50.874 19.949 90.236 56.506 86.466 82.883-1.9191 13.427-14.964 15.687-23.833 5.127"/>
<path id="path81104" d="m3294.6 3310c0.8871 0.484 3.687 2.0106 6.2221 3.3923 20.02 10.912 51.328 21.906 50.632 17.826-0.1937-1.1357-5.2342-4.8211-12.903-9.434-27.305-16.425-45.736-38.169-59.765-67.66-12.5-26.278-16.757-31.243-25.873-30.172-22.911 2.6923-14.687 41.455 17.544 69.097 3.1469 2.699 21.013 15.243 24.142 16.95"/>
<path id="path81106" d="m3379.9 3341.5c30.316 17.777 56.219 29.595 76.575 31.7 11.326 1.1715 11.058 0.4601-1.8961-5.027-44.188-18.717-66.976-40.61-97.2-95.158-26.011-46.943-35.314-58.025-45.399-54.081-20.248 7.9187-3.3847 62.692 33.362 97.29 4.929 4.6408 27.415 21.087 34.558 25.276"/>
<path id="path81108" d="m3457.3 3351.2c1.862 1.1097 5.3177 3.1647 7.6792 4.5664 18.632 11.059 44.418 22.941 66.971 28.433l1.1672 2.0431-0.7052-1.9402c-25.9-71.26-80.225-121.95-144.74-135.06-8.0957-1.6451-8.0529-1.6264-5.9049 5.276 11.475 36.872 43.449 77.56 75.536 96.684"/>
<path id="path81110" d="m3361.6 3204.5c6.7836 3.777 15.486 7.7214 35.917 16.28 63.841 26.743 87.47 46.274 111.35 90.076 5.2851 9.6935 5.5784 9.9443 4.9843 4.2621-3.0546-29.221-38.147-81.704-72.525-110.8-32.755-27.727-78.87-38.625-94.122-25.812-8.2064 6.8938-2.9869 16.321 14.395 25.999"/>
<path id="path81112" d="m3350.2 3137.2c3.5044 2.0603 9.5958 2.9038 21.975 7.3802 34.873 12.61 57.285 27.66 76.845 54.164 15.226 20.632 15.414 12.91 0.3671-15.093-25.865-48.137-69.664-80.786-95.233-73.288-13.016 3.8164-15.842 19.848-3.954 26.837"/>
<path id="path81114" d="m3181.5 3852.5c-0.9232-0.4108-3.8364-1.7081-6.4737-2.8831-20.827-9.2782-48.48-27.194-44.77-29.03 1.0327-0.5108 6.9769 1.4012 15.216 4.8942 29.336 12.438 57.006 16.601 89.247 11.402 28.729-4.6322 34.796-2.1243 38.989 6.0398 10.54 20.52-22.546 27.282-64.081 18.462-4.0555-0.8609-24.871-7.4371-28.128-8.886"/>
<path id="path81116" d="m3105.4 3803.5c-32.024-14.478-55.75-31.485-68.659-47.364-7.183-8.8357-5.9945-10.208 5.5927-2.229 39.525 27.216 70.054 34.457 132.34 31.389 53.602-2.6396 67.689 0.7799 69.521 11.453 3.6785 21.428-48.731 30.372-98.2 20.361-6.6355-1.3429-33.049-10.198-40.594-13.61"/>
<path id="path81118" d="m3055.8 3740.7c-1.912-1.0211-5.4565-2.9186-7.8766-4.2167-19.093-10.241-41.487-29.37-57.434-46.237l-1.7232-1.8226s2.0386-0.3247 2.0386-0.3247c74.876-11.927 145.56 10.981 188.33 61.035 5.3666 6.2808 5.4846 5.7343-1.5751 7.2893-37.712 8.3069-88.808 1.8737-121.76-15.723"/>
<path id="path81120" d="m3230.4 3752.3c-6.4927-4.2579-14.318-9.3147-31.202-23.655-52.755-44.808-80.004-57.879-129.82-60.542-11.025-0.5894-11.378-0.746-5.9946-2.6597 27.683-9.8421 91.006-1.0658 131.39 18.878 38.478 19.003 69.422 50.632 64.906 70.034-2.4299 10.439-12.642 8.855-29.278-2.0554"/>
<path id="path81122" d="m3293.4 3739.6c-3.3139-2.3547-7.2013-6.109-16.237-15.681-25.456-26.966-48.542-40.083-80.455-48.244-24.842-6.3525-17.882-9.3702 13.68-5.5681 54.253 6.5356 101.67 32.05 104.65 58.528 1.5176 13.478-10.397 18.953-21.638 10.965"/>
<path id="path81124" d="m3105.2 3636.8c0.9831 0.2337 4.0859 0.9704 6.8952 1.637 22.184 5.264 55.344 7.6627 53.601 3.9086-0.4852-1.045-6.3167-3.2771-14.928-5.7139-30.66-8.6763-54.091-24.816-75.366-49.593-18.957-22.078-24.368-25.751-32.883-22.326-21.402 8.6092-3.435 43.886 34.93 62.081 3.7458 1.7766 24.282 9.1815 27.749 10.006"/>
<path id="path81126" d="m3195.8 3645.1c33.806 9.6049 62.166 13.695 82.362 10.392 11.238-1.8382 10.792-2.4545-3.1474-4.3542-47.549-6.4803-75.233-21.61-118.69-66.34-37.395-38.494-48.571-47.901-57.349-41.56-17.624 12.731 12.777 61.788 57.027 86.063 5.9355 3.2562 31.828 13.536 39.793 15.8"/>
<path id="path81128" d="m3273.2 3634.1c2.0877 0.5835 5.9608 1.6618 8.607 2.3962 20.877 5.7943 48.09 12.042 71.3 11.725l2.5081-0.034-1.1878-1.6883c-43.626-62.012-109.31-96.741-175.02-92.532-8.2443 0.5282-7.9347 0.063-4.1302 6.2095 20.324 32.836 61.943 63.87 97.918 73.924"/>
<path id="path81130" d="m3142.6 3517.6c7.5346 1.8742 17.329 2.6279 39.249 5.8196 68.494 9.9731 96.237 22.372 130.72 58.425 7.6316 7.9783 7.9802 8.1438 5.9238 2.8136-10.574-27.411-58.061-68.864-98.835-88-38.849-18.233-85.504-17.844-97.078-1.6313-6.2274 8.7229 0.7118 17.771 20.018 22.573"/>
<path id="path81132" d="m3114.2 3455.5c3.9204 1.0752 10.073 0.3021 23.191 1.3978 36.954 3.0866 62.559 11.789 88.346 32.285 20.074 15.954 18.244 8.4506-3.5763-14.668-37.509-39.739-87.23-61.234-110.13-47.609-11.656 6.9359-11.133 24.947 2.1668 28.594"/>
<path id="path81134" d="m3137.1 4190.8c-0.9964-0.1679-4.1409-0.6987-6.9878-1.1797-22.482-3.7983-53.894-14.262-50.757-16.963 0.873-0.7518 7.1061-0.3792 15.955 0.9535 31.508 4.7455 59.403 0.7922 89.171-12.638 26.526-11.967 33.072-11.09 39.248-4.301 15.524 17.064-14.775 32.114-57.172 34.455-4.1395 0.2287-25.944 0.2644-29.458-0.3278"/>
<path id="path81136" d="m3050.8 4162.4c-34.692-5.6227-62.096-16.859-78.545-29.034-9.1526-6.7745-8.4746-7.1188 4.7904-2.4326 45.248 15.985 76.609 15.027 135.95-4.1532 51.066-16.506 65.575-16.841 70.12-7.0122 9.1258 19.733-39.208 41.939-89.574 45.18-6.7561 0.4347-34.565-1.2233-42.739-2.5481"/>
<path id="path81138" d="m2986.7 4114.7c-2.1118-0.4886-6.0279-1.3988-8.7024-2.0227-21.1-4.922-47.69-17.607-67.472-29.75l-2.1377-1.3123s1.8842-0.8433 1.8842-0.8433c69.206-30.973 143.41-27.219 197.72 10.002 6.8142 4.6706 6.7862 4.1122 0.373 7.4482-34.259 17.821-85.271 24.898-121.66 16.478"/>
<path id="path81140" d="m3158.3 4080.5c-7.3752-2.4268-16.257-5.2582-36.281-14.731-62.568-29.599-92.537-34.625-141.21-23.681-10.772 2.4218-11.065 1.0613-6.361-2.1812 24.19-16.675 87.606-24.602 131.77-15.782 42.084 8.4045 80.206 30.887 80.875 50.795 0.3594 10.712-9.8983 11.798-28.796 5.5795"/>
<path id="path81142" d="m3216 4050.2c-3.8278-1.3693-8.7581-2.2608-19.962-9.1703-31.564-19.465-57.289-26.148-90.227-25.788-25.64 0.2803-19.591-4.5221 11.824-9.3871 54.002-8.363 106.45 5.1737 116.17 29.983 4.9478 12.629-4.8209 19.008-17.805 14.363"/>
<path id="path81144" d="m3007.4 4001.4c1.0101-0.028 4.1979-0.1179 7.084-0.1997 22.791-0.6452 55.408-6.9023 52.756-10.08-0.7383-0.8845-6.9483-1.5366-15.896-1.6694-31.86-0.4728-58.706-10.059-85.647-28.518-24.006-16.448-30.18-18.604-37.525-13.1-18.461 13.833 8.0731 43.4 49.836 51.068 4.0776 0.7487 25.829 2.5976 29.392 2.4983"/>
<path id="path81146" d="m3097 3985.7c35.144 0.1281 63.489-2.5761 82.155-10.966 10.386-4.6679 9.7971-5.1488-4.1619-3.3977-47.615 5.9731-78.325-1.5305-131.81-33.592-46.032-27.591-59.635-32.52-66.387-24.054-13.555 16.998 28.468 56.094 77.627 67.531 6.5939 1.5341 34.299 4.4475 42.58 4.4778"/>
<path id="path81148" d="m3168.8 3955.5c2.1675 0.027 6.1877 0.074 8.9337 0.1039 21.665 0.2347 49.913-2.3222 72.186-8.8563 0 0 2.4069-0.7061 2.4069-0.7061s-1.9904 0.654-1.9904 0.654c-58.062-48.76-130.45-65.495-192.88-44.588-7.8336 2.6234-7.7771 2.6478-2.4625 7.5481 28.39 26.177 76.46 45.373 113.81 45.845"/>
<path id="path81150" d="m3012.5 3876.3c7.7633-0.1166 17.272-1.0465 39.247-3.8381 68.664-8.7232 98.868-3.5852 141.42 22.456 9.4173 5.7628 9.7965 5.8337 6.4461 1.2061-17.229-23.798-73.896-51.766-118.2-59.877-42.213-7.7283-87.559 6.0029-94.372 24.721-3.6655 10.072 5.5651 15.631 25.458 15.332"/>
<path id="path81152" d="m2969 3823.4c4.065 0.039 9.4161-0.7188 22.35-3.1644 36.437-6.8895 63.555-5.33 93.873 7.5499 23.601 10.026 19.84 3.1745-7.1462-13.628-46.389-28.882-100.61-35.322-119.04-16.086-9.3853 9.792-3.8227 25.196 9.9671 25.328"/>
<path id="path81154" d="m3180.9 4528.2c-1.0057 0.098-4.1796 0.4076-7.0533 0.6873-22.693 2.2085-55.687 0.2989-53.366-3.1279 0.6461-0.9539 6.7597-2.2243 15.649-3.2521 31.653-3.6594 57.672-13.664 83.149-34.095 22.702-18.205 28.697-20.818 36.434-15.882 19.448 12.407-5.487 36.69-45.964 49.517-3.9521 1.2526-25.302 5.8056-28.849 6.1525"/>
<path id="path81156" d="m3090.4 4523.3c-34.955 3.6451-64.19-0.043-83.253-7.4862-10.607-4.1416-10.043-4.6514 3.9864-3.602 47.855 3.5794 77.604-5.6652 130.27-39.057 45.325-28.736 58.802-34.005 65.763-25.71 13.977 16.653-27.084 50.838-74.85 67.138-6.4073 2.1864-33.682 7.8583-41.918 8.7173"/>
<path id="path81158" d="m3016.2 4494c-2.166 0.082-6.1838 0.2293-8.9283 0.3279-21.652 0.7776-50.542-4.5006-72.816-11.035l-2.7813-2.697 1.6136-1.2875c59.266-47.29 132.06-62.204 193.94-39.739 7.7654 2.819 7.4713 1.7315 2.1567 6.6317-28.39 26.177-75.859 46.391-113.19 47.799"/>
<path id="path81160" d="m3173.3 4417.1c-7.7478-0.5055-17.198-1.9108-39.005-5.8001-68.141-12.153-98.177-9.7538-142.57 13.016-9.8236 5.039-10.207 5.0812-6.5187 0.7184 18.969-22.436 78.26-46.938 123.23-49.448 42.848-2.3913 85.189 8.4402 91.055 27.477 3.1563 10.242-6.3414 15.332-26.194 14.037"/>
<path id="path81162" d="m3221.4 4373.4c-4.0486-0.3682-9.2968-1.6576-21.922-5.3856-35.565-10.502-62.036-10.218-93.726-1.2284-24.668 6.9977-20.104 0.8843 9.0949-11.686 50.192-21.607 103.93-23.412 119.82-2.0219 8.0878 10.888 0.4664 21.57-13.267 20.321"/>
<path id="path81164" d="m3007.1 4379.2c0.9673-0.2922 4.0199-1.2152 6.7835-2.0513 21.824-6.6022 51.763-21.211 48.37-23.582-0.9445-0.6597-7.108 0.3402-15.777 2.5596-30.868 7.9025-59.184 5.6804-90.023-5.065-27.48-9.5748-34.105-11.938-39.84-4.7724-14.415 18.011 19.157 41.77 61.469 38.211 4.1312-0.3473 25.606-4.2701 29.018-5.3006"/>
<path id="path81166" d="m3089.7 4340.8c34.059-8.6676 60.691-19.343 76.504-32.334 8.7984-7.2285 8.1039-7.5381-4.9073-2.1872-44.382 18.252-75.885 19.057-135.91 2.142-51.655-14.557-66.008-17.146-70.429-7.2608-8.8753 19.847 41.938 47.181 92.395 45.957 6.768-0.1642 34.322-4.2742 42.347-6.3165"/>
<path id="path81168" d="m3151.2 4292.5c2.0989-0.5419 5.9907-1.5508 8.6485-2.2421 20.969-5.454 47.707-13.566 67.641-25.459l2.1541-1.2851s-1.8734-0.867-1.8734-0.867c-68.808-31.846-143.06-29.031-197.83 7.5008-6.8726 4.584-6.8377 4.026-0.4672 7.4429 34.03 18.253 85.558 24.247 121.73 14.909"/>
<path id="path81170" d="m2979.9 4257c7.4619-2.1452 16.314-6.4281 36.896-14.616 64.313-25.586 94.54-28.708 142.43-14.71 10.597 3.0976 10.982 3.0668 6.5372-0.5227-22.856-18.46-84.724-30.622-129.61-26.873-42.766 3.5712-82.955 27.3-84.88 47.127-1.0356 10.668 9.5088 15.093 28.629 9.5958"/>
<path id="path81172" d="m2924.2 4217.4c3.9337-1.0255 8.8479-4.8408 20.764-10.433 33.57-15.755 60.063-21.016 92.634-16.093 25.354 3.8319 20.029-1.7627-10.409-10.936-52.321-15.768-106.4-7.7959-119.17 15.59-6.5003 11.904 2.8334 25.351 16.178 21.872"/>
<path id="path81174" d="m3310.8 4842.2c-0.9432 0.3629-3.9198 1.5071-6.6149 2.5426-21.283 8.178-53.5 15.075-52.178 11.153 0.368-1.0917 5.9207-3.948 14.214-7.3114 29.528-11.976 52.02-28.65 71.11-55.147 17.01-23.611 23.063-26.181 31.805-23.386 21.974 7.024 3.4226 35.376-32.171 58.529-3.4752 2.2607-22.839 12.34-26.165 13.62"/>
<path id="path81176" d="m3222.3 4861.5c-32.867 12.446-62.198 16.472-82.531 14.156-11.314-1.2889-10.899-1.9261 2.9317-4.5023 47.177-8.7877 73.855-25.302 115.65-71.588 35.966-39.833 48.337-47.429 57.192-41.195 17.778 12.515-12.911 56.05-54.935 84.002-5.6369 3.7494-30.561 16.195-38.305 19.128"/>
<path id="path81178" d="m3142.9 4852.2c-2.0727 0.6341-5.9185 1.8064-8.5461 2.6051-20.73 6.3009-50.051 8.6798-73.255 8.0805 0 0-2.5075-0.065-2.5075-0.065l1.2082-1.6738c44.378-61.477 110.75-95.784 176.33-89.976 8.2291 0.7288 7.731-0.2604 3.852 5.8397-20.722 32.586-61.362 64.262-97.082 75.19"/>
<path id="path81180" d="m3274.4 4736.6c-7.598 1.598-16.679 3.5565-38.752 5.4095-68.973 5.7897-97.43 15.877-134.45 49.315-8.1936 7.4-8.5533 7.5396-6.1134 2.3738 12.547-26.566 63.439-65.47 106.23-79.511 40.776-13.379 84.65-13.8 95.217 3.0859 5.6854 9.0854-2.6629 15.232-22.132 19.327"/>
<path id="path81182" d="m3309.9 4683c-4.0065 0.6888-9.4097 0.797-22.569 0.4522-37.07-0.9712-62.622 6.1312-90.914 23.002-22.024 13.132-19.224 6.0568 5.7308-13.637 42.896-33.854 94.394-49.465 115.27-32.906 10.626 8.4295 6.0753 20.753-7.5158 23.089"/>
<path id="path81184" d="m3104.3 4743.9c0.859-0.5322 3.5696-2.2124 6.0234-3.734 19.377-12.016 44.494-33.846 40.604-35.258-1.083-0.3931-6.7782 2.167-14.579 6.5531-27.774 15.617-55.713 20.83-88.283 18.437-29.022-2.1324-35.442-0.8877-39.019 7.5644-8.9915 21.244 28.633 33.421 68.59 19.054 3.9013-1.4027 23.634-10.74 26.664-12.616"/>
<path id="path81186" d="m3174.1 4685.5c30.652-17.192 53.586-34.416 65.49-51.062 6.6235-9.2624 5.8725-9.3814-5.3065-0.8402-38.132 29.134-68.356 38.078-130.71 37.322-53.663-0.6506-68.192 0.6072-69.892 11.302-3.4133 21.472 52.737 34.594 101.16 20.346 6.4947-1.9112 32.044-13.016 39.267-17.067"/>
<path id="path81188" d="m3221 4622.9c1.8863-1.068 5.3829-3.0525 7.7701-4.41 18.834-10.71 42.528-25.562 58.682-42.23l1.7457-1.8012s-2.0345-0.3499-2.0345-0.3499c-74.723-12.851-145.68 9.1807-189.07 58.702-5.4437 6.214-5.5551 5.6661 1.4849 7.3083 37.607 8.7724 88.914 1.1861 121.42-17.219"/>
<path id="path81190" d="m3046.4 4633.1c6.646-4.0142 14.107-10.444 31.844-23.714 55.422-41.464 83.79-52.357 133.67-51.324 11.038 0.2285 11.402 0.099 6.175-2.2086-26.878-11.865-89.715-7.5059-132.06 7.832-40.35 14.614-73.041 47.983-69.732 67.626 1.7806 10.569 13.079 12.074 30.108 1.7882"/>
<path id="path81192" d="m2982.4 4609.4c3.5299-2.0163 7.3292-6.9634 17.372-15.473 28.292-23.974 52.546-35.971 85.271-39.73 25.474-2.9267 18.872-6.9353-12.904-7.8357-54.623-1.5476-104.97 18.439-111.51 44.268-3.3305 13.148 9.7992 25.612 21.774 18.772"/>
<path id="path81194" d="m3518.4 5112.9c-0.8232 0.5862-3.4213 2.4353-5.7739 4.1091-18.578 13.218-48.176 28.024-47.872 23.896 0.084-1.149 4.7508-5.2982 11.944-10.621 25.614-18.953 42.518-41.491 54.038-72.05 10.264-27.23 15.45-31.342 24.618-30.926 23.045 1.0463 12.486 33.415-15.849 65.039-2.7665 3.0878-18.202 18.485-21.106 20.553"/>
<path id="path81196" d="m3437.4 5153.9c-28.484 20.587-55.658 32.079-75.89 35.153-11.258 1.7107-11.024 0.9872 1.654-5.1117 43.244-20.804 64.394-43.659 93.308-98.913 24.883-47.55 33.919-58.851 44.095-55.149 20.431 7.4332 2.1052 57.621-31.176 95.565-4.4642 5.0896-25.28 23.604-31.991 28.455"/>
<path id="path81198" d="m3358.5 5165.6c-1.835 1.1538-5.2406 3.2907-7.5681 4.7484-18.362 11.5-45.981 21.45-68.534 26.943 0 0-2.4371 0.5935-2.4371 0.5935l-0.5124-3.3787c27.594-70.621 83.113-120 147.93-131.57 8.1328-1.4515 7.3585-2.2308 5.2105 4.6716-11.475 36.872-42.463 78.108-74.085 97.992"/>
<path id="path81200" d="m3455.9 5020.4c-6.9562 3.4491-15.836 6.9738-36.653 14.548-65.044 23.666-89.813 40.834-116.77 82.816-5.965 9.2906-6.2755 9.5197-5.2765 3.8947 5.1374-28.928 44.137-79.888 81.735-104.69 35.824-23.629 77.956-35.378 92.58-21.852 7.8681 7.2775 2.2047 16.445-15.619 25.282"/>
<path id="path81202" d="m3475.5 4958.3c-3.6849 1.7169-7.935 4.5294-20.759 7.4998-36.126 8.368-59.675 21.176-82.536 44.892-17.796 18.461-16.902 10.854 1.9888-14.714 32.472-43.951 78.021-72.495 102.51-62.006 12.468 5.339 11.292 18.504-1.208 24.328"/>
<path id="path81204" d="m3293.2 5071.1c0.6888-0.7393 2.379-3.7112 4.3715-5.8007 15.735-16.501 34.453-43.862 30.332-44.249-1.147-0.1078-6.0147 3.8031-12.46 10.011-22.95 22.104-47.986 35.023-80.036 41.298-28.558 5.5913-35.372 6.94-36.705 16.021-3.3489 22.824 37.316 26.271 72.089 1.9034 3.3953-2.3791 19.978-16.576 22.408-19.183"/>
<path id="path81206" d="m3345.3 4996.3c25.038-24.662 43.124-46.563 50.443-65.674 4.0727-10.634 3.316-10.559-5.3469 0.5256-29.55 37.811-56.505 53.87-116.85 69.614-51.929 13.549-65.526 18.587-64.336 29.351 2.3874 21.61 59.754 19.501 102.71-7.004 5.7614-3.5552 27.481-21.001 33.381-26.812"/>
<path id="path81208" d="m3374.7 4924.2c1.5553-1.5098 4.4373-4.3131 6.4043-6.2295 15.519-15.119 33.668-36.906 44.832-57.257l1.2063-2.1992-2.0544 0.2014c-75.459 7.3963-137.57 47.381-167 106.27-3.6928 7.3899-3.6314 7.3374 3.5921 7.0566 38.587-1.5002 86.214-21.828 113.02-47.846"/>
<path id="path81210" d="m3208.1 4978.5c5.411-5.5681 11.482-12.945 25.059-30.448 42.423-54.691 67.401-72.406 115.91-84.07 10.735-2.5813 11.053-2.7993 5.412-3.7039-29.01-4.6523-88.875 15.62-125.92 41.233-35.301 24.404-57.707 66.069-49.301 84.128 4.5228 9.7167 14.983 7.128 28.848-7.1396"/>
<path id="path81212" d="m3140 4972c2.9014-2.8474 6.1488-7.1674 13.564-18.044 20.889-30.64 41.173-48.694 71.712-61.041 23.772-9.6115 16.277-11.795-14.68-4.5662-53.214 12.427-96.103 46.207-95.524 72.846 0.295 13.56 15.085 20.464 24.928 10.805"/>
<path id="path81214" d="m3788.1 5320.5c-0.642 0.7803-2.669 3.2422-4.5044 5.4709-14.494 17.6-39.191 39.566-39.972 35.502-0.2175-1.1313 3.208-6.3521 8.7683-13.364 19.798-24.966 31.1-50.464 34.66-82.927 3.1723-28.927 5.562-35.014 14.523-36.997 22.524-4.9849 22.16 29.893 2.588 67.575-1.9109 3.6792-13.798 21.989-16.063 24.741"/>
<path id="path81216" d="m3720.6 5381.1c-22.144 27.291-45.363 45.377-64.1 53.607-10.426 4.5792-10.388 3.8197 0.268-5.366 36.347-31.333 50.846-58.934 64.405-119.8 11.668-52.384 17.456-65.645 28.245-64.715 21.661 1.8672 16.922 55.178-5.3354 100.48-2.9855 6.0761-18.265 29.371-23.482 35.801"/>
<path id="path81218" d="m3647.5 5412.8c-1.472 1.5911-4.2052 4.5397-6.0738 6.5523-14.742 15.878-40.254 31.779-60.738 42.697l-2.2135 1.1798 0.226-2.0519c8.3023-75.365 49.089-137.47 108.67-165.48 7.4766-3.5142 6.9808-3.7726 6.6132 3.447-1.9637 38.567-21.12 86.234-46.486 113.65"/>
<path id="path81220" d="m3703.9 5247.2c-5.8218 5.1372-12.828 11.395-31.114 23.896-57.14 39.063-76.609 62.394-91.738 109.93-3.3482 10.521-3.5885 10.823-4.0843 5.1311-2.5497-29.27 21.925-88.67 51.796-122.38 28.462-32.119 66.024-54.318 83.658-45.053 9.4881 4.9846 6.3997 15.308-8.5178 28.471"/>
<path id="path81222" d="m3706.8 5182.1c-3.1129 2.6147-6.4631 6.4056-18.076 12.603-32.716 17.46-51.503 36.321-67.768 64.966-12.661 22.298-13.767 14.654-2.1616-14.942 19.949-50.874 56.504-90.234 82.881-86.463 13.427 1.9191 15.684 14.966 5.1248 23.836"/>
<path id="path81224" d="m3559.4 5337.7c0.484-0.8871 2.0106-3.687 3.3924-6.2221 10.912-20.02 21.909-51.331 17.828-50.635-1.1357 0.1936-4.8211 5.2341-9.434 12.903-16.425 27.305-38.167 45.733-67.658 59.762-26.278 12.5-31.243 16.757-30.172 25.873 2.6922 22.911 41.45 14.693 69.093-17.538 2.699-3.1469 15.243-21.013 16.95-24.142"/>
<path id="path81226" d="m3590.9 5252.4c17.777-30.316 29.6-56.224 31.705-76.581 1.1715-11.326 0.4601-11.058-5.027 1.8961-18.717 44.188-40.608 66.974-95.156 97.198-46.943 26.011-58.025 35.314-54.081 45.399 7.9187 20.248 62.685 3.3932 97.283-33.354 4.6409-4.9291 21.087-27.415 25.276-34.558"/>
<path id="path81228" d="m3600.7 5175.1c1.1098-1.862 3.1647-5.3177 4.5664-7.6792 11.059-18.632 24.098-43.228 29.858-65.714l0.6225-2.4298s-1.9401 0.7052-1.9401 0.7052c-71.26 25.9-121.95 80.225-135.06 144.74-1.6451 8.0958-1.6288 8.0557 5.2736 5.9076 36.872-11.475 77.558-43.446 96.682-75.534"/>
<path id="path81230" d="m3454 5270.8c3.777-6.7836 7.0432-15.999 15.845-36.326 27.502-63.518 46.712-87.063 90.514-110.94 9.6935-5.285 9.9442-5.5783 4.2621-4.9842-29.221 3.0546-81.699 38.142-110.8 72.52-27.727 32.755-38.633 78.878-25.82 94.13 6.8938 8.2064 16.321 2.9869 25.999-14.395"/>
<path id="path81232" d="m3386.6 5282.1c2.0603-3.5044 2.9064-9.5983 7.3828-21.978 12.61-34.873 27.662-57.288 54.166-76.848 20.632-15.226 12.91-15.414-15.093-0.367-48.136 25.865-80.788 69.667-73.291 95.236 3.8164 13.015 19.845 15.845 26.834 3.9565"/>
<path id="path81234" d="m4101.9 5451c-0.4108 0.9232-1.7081 3.8364-2.8831 6.4738-9.2782 20.827-27.193 48.477-29.028 44.767-0.5108-1.0326 1.4012-6.9769 4.8942-15.216 12.438-29.336 16.602-57.01 11.403-89.251-4.6322-28.729-2.1232-34.8 6.0409-38.993 20.52-10.54 27.278 22.556 18.459 64.092-0.8609 4.0555-7.4371 24.872-8.886 28.128"/>
<path id="path81236" d="m4052.9 5527.1c-14.478 32.024-31.484 55.747-47.363 68.656-8.8357 7.183-10.206 5.9909-2.2279-5.5963 27.216-39.525 34.457-70.054 31.389-132.34-2.6396-53.602 0.7811-67.692 11.454-69.524 21.428-3.6785 30.368 48.742 20.358 98.21-1.3428 6.6355-10.198 33.049-13.61 40.594"/>
<path id="path81238" d="m3990.1 5576.6c-1.0211 1.9119-2.9186 5.4565-4.2167 7.8766-10.241 19.093-29.369 41.483-46.236 57.43l-1.8227 1.7232-0.3247-2.0386c-11.927-74.876 10.981-145.56 61.035-188.33 6.2808-5.3666 5.7343-5.4846 7.2893 1.5751 8.3069 37.713 1.8725 88.811-15.724 121.76"/>
<path id="path81240" d="m4001.7 5402c-4.2579 6.4926-9.3135 14.315-23.653 31.198-44.808 52.755-57.878 80-60.541 129.82-0.5895 11.025-0.746 11.378-2.6598 5.9946-9.842-27.683-1.0644-91.009 18.88-131.39 19.003-38.478 50.63-69.415 70.031-64.899 10.439 2.4299 8.8536 12.645-2.0567 29.281"/>
<path id="path81242" d="m3989 5339c-2.3547 3.3139-6.109 7.2013-15.681 16.237-26.966 25.455-40.082 48.538-48.242 80.452-6.3524 24.842-9.3687 17.878-5.5666-13.683 6.5356-54.253 32.049-101.67 58.526-104.65 13.478-1.5176 18.952 10.4 10.964 21.642"/>
<path id="path81244" d="m3886.2 5527.2c0.2338-0.9831 0.9705-4.0859 1.637-6.8952 5.264-22.184 7.6642-55.348 3.9101-53.605-1.045 0.4851-3.2771 6.3167-5.7139 14.927-8.6763 30.66-24.814 54.087-49.591 75.362-22.078 18.957-25.751 24.368-22.326 32.882 8.6092 21.402 43.883 3.4419 62.078-34.923 1.7767-3.7458 9.1815-24.282 10.006-27.749"/>
<path id="path81246" d="m3894.5 5436.6c9.6049-33.806 13.697-62.169 10.393-82.365-1.8383-11.238-2.4545-10.792-4.3542 3.1475-6.4803 47.549-21.608 75.229-66.338 118.68-38.494 37.395-47.9 48.568-41.559 57.346 12.731 17.624 61.783-12.767 86.058-57.017 3.2562-5.9355 13.536-31.828 15.8-39.793"/>
<path id="path81248" d="m3883.5 5359.2c0.5834-2.0877 1.6618-5.9609 2.3961-8.607 5.7943-20.877 12.045-48.097 11.728-71.306l-0.034-2.5081-1.6883 1.1878c-62.012 43.626-96.741 109.31-92.532 175.02 0.5282 8.2443 0.063 7.9347 6.2094 4.1301 32.836-20.324 63.867-61.936 73.921-97.911"/>
<path id="path81250" d="m3767 5489.8c1.8742-7.5346 2.6295-17.332 5.8213-39.252 9.9731-68.494 22.372-96.237 58.425-130.72 7.9784-7.6316 8.1439-7.9802 2.8137-5.9238-27.411 10.574-68.86 58.055-87.996 98.828-18.233 38.849-17.847 85.51-1.6348 97.084 8.7229 6.2275 17.769-0.7085 22.571-20.015"/>
<path id="path81252" d="m3705 5518.2c1.0752-3.9204 0.3038-10.076 1.3995-23.194 3.0867-36.954 11.791-62.562 32.287-88.349 15.954-20.074 8.4506-18.244-14.668 3.5762-39.739 37.509-61.234 87.23-47.609 110.13 6.9359 11.656 24.943 11.139 28.59-2.1603"/>
<path id="path81254" d="m4440.1 5495.5c-0.1679 0.9965-0.6987 4.141-1.1797 6.9879-3.7983 22.482-14.262 53.89-16.963 50.754-0.7517-0.873-0.3792-7.1061 0.9536-15.955 4.7455-31.508 0.7922-59.403-12.638-89.171-11.967-26.526-11.09-33.076-4.3009-39.252 17.064-15.524 33.923 14.76 35.727 57.183 0.1763 4.142-1.0079 25.94-1.6001 29.455"/>
<path id="path81256" d="m4411.8 5581.7c-5.6227 34.692-16.859 62.088-29.034 78.537-6.7745 9.1526-7.1188 8.4746-2.4326-4.7904 15.985-45.248 15.027-76.609-4.1532-135.95-16.506-51.066-16.841-65.579-7.012-70.124 19.733-9.1257 41.939 39.219 45.18 89.586 0.4348 6.756-1.2232 34.565-2.548 42.739"/>
<path id="path81258" d="m4364.1 5645.8c-0.4886 2.1118-1.3988 6.0279-2.0227 8.7024-4.922 21.1-17.607 47.686-29.75 67.468l-1.3123 2.1377-0.8432-1.8842c-30.973-69.206-27.219-143.41 10.002-197.72 4.6706-6.8142 4.1122-6.7862 7.4483-0.373 17.821 34.259 24.898 85.275 16.478 121.67"/>
<path id="path81260" d="m4329.9 5474.2c-2.4267 7.3753-5.2578 16.253-14.73 36.277-29.599 62.568-35.174 92.281-24.845 141.09 2.2856 10.801 2.2257 11.183-1.0167 6.4788-16.675-24.19-24.602-87.61-15.781-131.78 8.4045-42.084 30.886-80.199 50.795-80.867 10.712-0.3595 11.798 9.9021 5.5791 28.8"/>
<path id="path81262" d="m4299.6 5416.5c-1.3692 3.8278-2.2603 8.7543-9.1698 19.959-19.465 31.564-26.148 57.285-25.787 90.223 0.2803 25.64-4.5221 19.591-9.3871-11.824-8.363-54.002 5.1737-106.45 29.983-116.17 12.629-4.9478 19.007 4.8285 14.362 17.813"/>
<path id="path81264" d="m4250.8 5625.1c-0.028-1.0101-0.118-4.1979-0.1997-7.084-0.6452-22.791-6.9018-55.412-10.079-52.759-0.8844 0.7383-1.5365 6.9483-1.6694 15.896-0.4728 31.86-10.058 58.702-28.517 85.643-16.448 24.006-18.604 30.18-13.1 37.525 13.833 18.461 43.399-8.0656 51.067-49.829 0.7487-4.0776 2.5975-25.829 2.4983-29.392"/>
<path id="path81266" d="m4235.1 5535.5c0.1281-35.144-2.5749-63.497-10.964-82.163-4.668-10.386-5.1489-9.7972-3.3978 4.1619 5.9731 47.615-1.5298 78.321-33.591 131.81-27.591 46.032-32.52 59.635-24.054 66.387 16.998 13.555 56.092-28.457 67.529-77.615 1.5341-6.5939 4.4476-34.299 4.4778-42.58"/>
<path id="path81268" d="m4204.8 5463.7c0.027-2.1675 0.074-6.1877 0.1039-8.9337 0.2347-21.665-2.3215-49.917-8.8556-72.19l-0.7061-2.4069 0.6547 1.9867c-48.76 58.062-65.495 130.45-44.588 192.88 2.6234 7.8336 2.6471 7.7809 7.5473 2.4663 26.177-28.39 45.372-76.456 45.844-113.81"/>
<path id="path81270" d="m4125.7 5620c-0.1166-7.7633-1.0465-17.272-3.8381-39.247-8.7232-68.664-3.5844-98.871 22.456-141.43 5.7628-9.4173 5.8338-9.7966 1.2062-6.4462-23.798 17.229-51.764 73.889-59.875 118.19-7.7282 42.213 6.0003 87.57 24.719 94.383 10.071 3.6655 15.631-5.5651 15.332-25.458"/>
<path id="path81272" d="m4072.8 5663.5c0.039-4.065-0.7187-9.4161-3.1644-22.35-6.8895-36.437-5.329-63.559 7.5509-93.876 10.026-23.6 3.1755-19.844-13.627 7.1425-28.882 46.389-35.322 100.61-16.086 119.05 9.7921 9.3852 25.195 3.8263 25.327-9.9635"/>
<path id="path81274" d="m4777.1 5451.5c0.1049 1.005 0.435 4.1768 0.7334 7.0486 2.3569 22.678 0.6347 55.586-2.8078 53.288-0.9583-0.6396-2.2701-6.7445-3.3582-15.627-3.8739-31.628-14.102-57.677-34.712-83.011-18.364-22.574-19.249-29.078-14.273-36.79 12.508-19.384 34.985 5.8897 48.076 46.282 1.2783 3.9438 5.9709 25.264 6.3409 28.808"/>
<path id="path81276" d="m4772.6 5541.9c3.4547 34.974 0.5879 64.018-6.7163 83.135-4.0641 10.637-5.8316 10.286-4.7128-3.738 3.8161-47.836-5.1715-77.898-38.961-130.31-29.078-45.107-33.172-59.017-24.845-65.94 16.719-13.899 50.707 27.035 66.746 74.89 2.1515 6.419 7.6748 33.724 8.4888 41.965"/>
<path id="path81278" d="m4743 5616.2c0.072 2.1664 0.2003 6.1848 0.286 8.9298 0.6762 21.656-4.6822 50.604-11.315 72.849l-0.7167 2.4038-1.3006-1.6031c-47.77-58.88-63.276-131.55-41.314-193.61 2.7557-7.7881 2.2234-7.617 7.1002-2.2809 26.051 28.506 46.027 75.98 47.26 113.31"/>
<path id="path81280" d="m4665.7 5459.2c-0.4402 7.7518-0.9102 17.052-4.8836 38.844-12.416 68.093-10.105 98.222 12.506 142.69 5.004 9.8415 5.0448 10.225 0.6952 6.5212-22.369-19.049-46.442-78.275-49.371-123.22-2.7906-42.824 9.125-85.432 28.184-91.224 10.254-3.1167 13.997 6.5233 12.869 26.386"/>
<path id="path81282" d="m4623.2 5411c-0.3814 4.0474-1.688 9.2913-5.4573 21.904-10.618 35.53-10.428 62.08-1.5335 93.796 6.924 24.689 0.8298 20.171-11.662-9.0616-21.472-50.25-23.098-104.07-1.6615-119.89 10.912-8.0553 21.608-0.4742 20.314 13.255"/>
<path id="path81284" d="m4628.4 5625.4c-0.2893-0.9682-1.2032-4.0235-2.031-6.7896-6.5372-21.843-21.046-51.758-23.425-48.371-0.6623 0.9427 0.3211 7.1089 2.5172 15.784 7.8196 30.89 5.5541 59.255-5.2649 90.068-9.6405 27.457-10.116 33.979-2.8924 39.64 18.157 14.23 39.742-18.976 36.31-61.298-0.335-4.1323-4.1938-25.619-5.2142-29.034"/>
<path id="path81286" d="m4590.2 5542.8c-8.5863-34.079-19.215-60.68-32.174-76.52-7.2101-8.8135-7.5211-8.1197-2.1975 4.9027 18.159 44.42 18.898 75.969 1.8753 135.96-14.65 51.629-17.23 66.021-7.3507 70.457 19.834 8.9052 47.166-41.981 46.062-92.44-0.1481-6.7684-4.1922-34.332-6.2153-42.362"/>
<path id="path81288" d="m4542 5481.3c-0.5381-2.0998-1.54-5.9935-2.2266-8.6525-5.4162-20.978-13.556-47.648-25.423-67.596 0 0-1.2825-2.1557-1.2825-2.1557l-0.8693 1.8724c-31.93 68.769-29.205 143.02 7.2597 197.84 4.5756 6.8782 4.0177 6.8426 7.4423 0.4763 18.294-34.008 24.372-85.597 15.1-121.78"/>
<path id="path81290" d="m4506.3 5652.6c-2.1383-7.464-6.3924-16.301-14.567-36.889-25.544-64.33-28.646-94.559-14.617-142.44 3.1046-10.595 3.074-10.98-0.5185-6.5375-18.475 22.844-30.685 84.733-26.942 129.62 3.5659 42.767 28.639 83.128 48.487 84.82 10.679 0.9106 13.637-9.4509 8.1578-28.576"/>
<path id="path81292" d="m4466.7 5708.3c-1.024-3.9341-4.8024-8.8459-10.394-20.763-15.75-33.572-21-60.069-16.078-92.639 3.8319-25.354-1.7627-20.029-10.936 10.408-15.768 52.321-7.8142 106.4 15.57 119.17 11.904 6.5019 25.311-2.8319 21.837-16.178"/>
<path id="path81294" d="m5092.1 5321.4c0.3561 0.9457 1.4792 3.9303 2.4957 6.6327 8.027 21.341 14.746 53.692 10.834 52.341-1.089-0.3759-3.9052-5.949-7.2087-14.266-11.763-29.613-28.216-52.139-54.573-71.422-23.486-17.182-27.569-22.291-24.816-31.046 6.9183-22.007 36.933-4.2579 59.834 31.498 2.236 3.4911 12.178 22.926 13.435 26.261"/>
<path id="path81296" d="m5110.8 5410.2c12.206 32.957 16.839 61.859 14.618 82.203-1.2353 11.32-1.8745 10.908-4.5162-2.9104-9.011-47.135-25.695-73.473-71.667-115.61-39.563-36.262-48.164-47.898-41.972-56.782 12.432-17.836 56.23 12.909 84.388 54.796 3.7769 5.6185 16.273 30.536 19.149 38.302"/>
<path id="path81298" d="m5101.9 5489.3c0.6438 2.0698 1.8341 5.91 2.6451 8.5339 6.398 20.7 7.3954 50.768 6.6211 73.967l-0.084 2.5069-1.6646-1.2208c-61.14-44.84-94.568-111.2-89.065-176.81 0.6906-8.2324 0.2191-7.9319 6.2897-4.007 32.429 20.967 64.162 61.357 75.257 97.025"/>
<path id="path81300" d="m4986.6 5357.7c1.5406 7.6099 3.477 16.808 5.1633 38.895 5.269 69.015 15.744 97.541 49.355 134.41 7.4382 8.159 7.5795 8.518 2.4023 6.1023-26.625-12.423-65.835-63.296-80.081-106.02-13.573-40.712-14.081-84.341 2.7558-94.986 9.0589-5.7277 16.458 2.1062 20.405 21.605"/>
<path id="path81302" d="m4931.7 5322.7c0.7076 4.0032 2.3475 8.8023 1.9044 21.958-1.2483 37.062 5.7037 62.774 22.364 91.191 12.969 22.12 5.7973 19.252-14.018-5.6061-34.062-42.731-49.879-94.075-33.419-115.03 8.3787-10.666 20.768-6.095 23.169 7.4849"/>
<path id="path81304" d="m4992.8 5528.2c-0.5258-0.8629-2.1859-3.5859-3.6893-6.0508-11.872-19.466-33.471-44.637-34.912-40.757-0.4009 1.0801 2.1173 6.7939 6.4461 14.626 15.413 27.888 21.414 55.414 19.182 87.996-1.9884 29.032-2.4845 35.958 5.9415 39.597 21.179 9.145 33.52-28.593 19.45-68.655-1.3737-3.9116-10.564-23.713-12.418-26.756"/>
<path id="path81306" d="m4934.7 5458.2c-17.343-30.567-33.799-53.74-50.36-65.761-9.215-6.6892-9.3393-5.9391-0.878 5.3004 28.862 38.339 37.387 68.534 36.956 130.89-0.3712 53.666 0.9475 68.098 11.651 69.741 21.49 3.2983 34.381-52.646 19.893-100.99-1.9434-6.4851-13.175-31.979-17.261-39.181"/>
<path id="path81308" d="m4872.7 5411.1c-1.0548-1.8937-3.0148-5.4041-4.3556-7.8007-10.578-18.909-26.89-42.102-43.647-58.164l-1.8109-1.7357-0.3386 2.0363c-12.439 74.793 10.059 145.14 59.29 188.85 6.1775 5.4851 6.1514 5.4132 7.7547-1.6358 8.5648-37.655 1.2859-88.919-16.892-121.55"/>
<path id="path81310" d="m4881.9 5586.1c-3.9709-6.6719-9.517-14.452-22.891-32.11-41.79-55.177-52.4-83.903-51.052-133.77 0.2983-11.037 0.1706-11.401-2.1695-6.1889-12.034 26.802-8.0174 89.885 7.07 132.32 14.375 40.436 48.818 72.887 68.441 69.462 10.558-1.8427 10.776-12.616 0.6011-29.712"/>
<path id="path81312" d="m4857.9 5650.2c-1.9946-3.5423-5.3212-7.8016-13.894-17.791-24.152-28.14-36.314-52.416-40.288-85.116-3.0931-25.455-7.1512-18.777-8.2322 12.994-1.8581 54.614 19.606 104.81 45.477 111.18 13.17 3.2443 23.704-9.2534 16.937-21.27"/>
<path id="path81314" d="m5362.5 5114.2c0.5859 0.8232 2.4344 3.4218 4.1076 5.7748 13.214 18.581 28.019 48.183 23.892 47.876-1.149-0.085-5.2948-4.7546-10.612-11.952-18.934-25.628-41.46-42.548-72.011-54.09-27.222-10.284-31.275-15.517-30.848-24.685 1.0737-23.044 34.496-13.599 65.773 15.119 3.0539 2.8039 17.632 19.053 19.699 21.957"/>
<path id="path81316" d="m5403.5 5195.2c20.566 28.499 32.006 55.752 35.047 75.99 1.6921 11.261 0.969 11.025-5.109-1.6625-20.732-43.279-43.606-64.756-99.154-93.1-47.803-24.393-58.353-34.408-54.63-44.576 7.4759-20.416 57.494-1.9707 95.413 31.338 5.0864 4.4679 23.586 25.297 28.432 32.012"/>
<path id="path81318" d="m5415.1 5274.2c1.15 1.8373 3.2796 5.2474 4.7325 7.578 11.462 18.386 21.329 46.087 26.765 68.654l0.5873 2.4386s-1.9297-0.7331-1.9297-0.7331c-70.878-26.927-121.23-82.156-132.61-147-1.4276-8.137-2.2477-7.381 4.6493-5.2156 36.843 11.568 77.989 42.618 97.807 74.282"/>
<path id="path81320" d="m5269.4 5177.2c3.5116 6.9248 7.7528 15.17 15.257 36.012 23.449 65.123 40.546 89.99 82.427 117.1 9.2683 5.9995 9.4963 6.3108 3.875 5.2909-28.908-5.2449-79.67-44.348-104.3-82.056-23.47-35.928-35.229-78.16-21.655-92.739 7.3037-7.8438 15.4-1.3508 24.398 16.393"/>
<path id="path81322" d="m5208.3 5156.8c1.7019 3.6919 3.2042 8.8832 6.2756 21.684 8.6521 36.06 22.121 58.895 45.735 81.861 18.382 17.878 10.82 16.998-14.658-2.0135-43.796-32.681-72.195-78.382-61.598-102.83 5.3943-12.445 18.472-11.226 24.245 1.2978"/>
<path id="path81324" d="m5320.4 5339.5c-0.7363-0.6921-3.0604-2.8758-5.1649-4.8525-16.619-15.61-44.206-34.23-44.564-30.107-0.1 1.1478 3.8463 5.9872 10.1 12.388 22.269 22.79 34.528 48.427 40.64 80.508 5.446 28.586 8.3087 34.466 17.398 35.735 22.847 3.1913 24.887-36.298 0.6737-71.178-2.3641-3.4057-16.487-20.052-19.084-22.493"/>
<path id="path81326" d="m5245.8 5287.2c-24.534-25.163-47.107-42.863-66.266-50.056-10.66-4.0023-10.581-3.2461 0.5609 5.3433 38.006 29.299 54.461 56.18 69.862 116.61 13.254 52.005 18.235 65.708 29.005 64.582 21.624-2.2594 19.765-59.877-6.521-102.96-3.5259-5.7794-20.861-27.588-26.642-33.517"/>
<path id="path81328" d="m5173.2 5258.1c-1.5197-1.5458-4.3412-4.41-6.27-6.3648-15.218-15.423-35.717-34.455-55.998-45.744l-2.1918-1.2199 0.1888 2.0557c6.9311 75.503 46.582 138.34 105.65 167.43 7.4114 3.6494 6.911 3.8988 6.6747-3.3263-1.2623-38.596-21.862-86.19-48.05-112.83"/>
<path id="path81330" d="m5228.4 5424.1c-5.5987-5.3794-13.734-10.929-31.147-24.621-54.41-42.782-72.283-67.359-84.211-115.8-2.64-10.72-2.8597-11.038-3.7334-5.3916-4.4939 29.034 15.995 88.598 41.798 125.52 24.585 35.175 65.264 58.118 83.378 49.831 9.7463-4.4586 8.2609-15.748-6.0848-29.532"/>
<path id="path81332" d="m5222.1 5492.1c-2.8626-2.8863-8.6053-5.2909-19.43-12.781-30.494-21.101-48.366-41.422-60.496-72.047-9.4429-23.84-11.599-16.423-4.2149 14.497 12.693 53.151 45.07 96.578 71.712 96.187 13.562-0.199 22.14-16.064 12.429-25.856"/>
<path id="path81334" d="m5569.6 4844.9c0.7849 0.6365 3.2611 2.6459 5.5028 4.4655 17.702 14.369 39.754 38.857 35.695 39.666-1.1298 0.2253-6.3742-3.1638-13.424-8.6754-25.103-19.625-50.756-30.812-83.242-34.152-28.948-2.9764-34.173-6.9503-36.107-15.922-4.8618-22.551 28.903-20.573 66.722-1.2686 3.6926 1.8848 22.086 13.642 24.854 15.887"/>
<path id="path81336" d="m5630.5 4912c27.173 22.288 45.683 44.852 54.036 63.534 4.6477 10.395 3.1496 11.397-5.9757 0.6893-31.127-36.524-58.739-51.425-119.69-64.595-52.457-11.334-65.188-18.275-64.195-29.058 1.9942-21.65 54.972-16.739 100.15 5.7582 6.0603 3.0177 29.274 18.42 35.676 23.671"/>
<path id="path81338" d="m5662 4985.5c1.5825 1.4813 4.515 4.2317 6.5166 6.1121 15.791 14.835 32.472 39.094 43.511 59.512l1.1929 2.2065-2.0532-0.2139c-75.412-7.8559-137.76-48.274-166.12-107.69-3.5584-7.4556-3.8139-6.9583 3.4078-6.6334 38.578 1.7352 86.272 21.18 113.54 46.707"/>
<path id="path81340" d="m5496.4 4929.1c5.1701 5.7927 11.414 12.702 24.014 30.92 39.37 56.928 62.308 76.599 109.74 92.056 10.497 3.4207 10.798 3.6631 5.1027 4.1196-29.286 2.3477-88.188-22.509-122.04-52.219-32.255-28.308-53.957-66.862-44.576-84.434 5.0472-9.4549 14.51-5.2849 27.758 9.5578"/>
<path id="path81342" d="m5432.2 4925.1c2.5922 3.1316 5.3763 7.7636 11.629 19.347 17.615 32.632 36.523 51.271 65.239 67.408 22.354 12.562 14.85 13.676-14.654 1.8384-50.715-20.349-89.921-57.255-85.952-83.602 2.0202-13.412 14.944-15.614 23.737-4.9912"/>
<path id="path81344" d="m5587.5 5073c-0.8892-0.4801-3.6959-1.9943-6.2371-3.3648-20.068-10.823-51.48-21.717-50.767-17.64 0.1982 1.1349 5.2538 4.7996 12.941 9.3811 27.372 16.313 45.827 37.972 59.965 67.411 12.598 26.232 16.874 31.18 25.985 30.075 22.901-2.7775 14.684-41.52-17.669-69.02-3.1588-2.685-21.08-15.15-24.217-16.843"/>
<path id="path81346" d="m5502.1 5041.6c-30.169-18.026-56.495-29.32-76.858-31.358-11.33-1.1337-11.06-0.4232 1.9129 5.0206 44.25 18.569 67.082 40.355 97.466 94.814 26.148 46.866 34.501 58.867 44.623 55.018 20.322-7.7277 3.6659-63.036-32.795-97.936-4.8906-4.6813-27.24-21.312-34.349-25.559"/>
<path id="path81348" d="m5424.5 5032.1c-1.8653-1.1043-5.327-3.1491-7.6926-4.5438-18.664-11.004-43.278-24.107-65.775-29.821l-2.4312-0.6175 0.7093 1.9387c26.049 71.205 80.48 121.78 145.03 134.76 8.0991 1.6282 7.6794 1.9975 5.5994-4.9257-11.112-36.984-43.292-77.76-75.436-96.79"/>
<path id="path81350" d="m5520.4 5178.5c-6.7898-3.7658-16.047-7.0065-36.385-15.784-63.55-27.426-87.119-46.608-111.05-90.382-5.2966-9.6872-5.5902-9.9376-4.9893-4.2562 3.0894 29.217 38.218 81.613 72.603 110.7 32.762 27.719 79.031 38.529 94.262 25.692 8.1951-6.9074 2.96-16.326-14.438-25.975"/>
<path id="path81352" d="m5531.8 5246c-3.5058-2.0577-9.6508-2.8591-22.031-7.3324-34.876-12.602-57.319-27.631-76.872-54.14-15.221-20.636-15.411-12.914-0.3708 15.093 25.853 48.143 69.705 80.763 95.272 73.26 13.015-3.8196 15.895-19.9 4.0018-26.88"/>
<path id="path81354" d="m5700.4 4530.1c0.9205 0.4168 3.8252 1.7332 6.4548 2.9253 20.766 9.4142 48.393 27.539 44.672 29.35-1.0359 0.5043-6.968-1.4452-15.185-4.9901-29.257-12.622-56.819-16.916-89.092-11.914-28.757 4.4572-35.256 3.7324-39.501-4.405-10.669-20.453 23.105-29.127 64.582-20.036 4.0497 0.8875 24.822 7.5996 28.069 9.0698"/>
<path id="path81356" d="m5776.4 4579.7c31.935 14.673 55.648 31.834 68.463 47.79 7.1308 8.8778 6.3875 9.0385-5.2514 1.1355-39.701-26.958-70.122-33.784-132.42-31.072-53.616 2.3344-67.926 0.1886-69.829-10.472-3.8217-21.403 48.889-30.633 98.418-20.924 6.6436 1.3022 33.099 10.086 40.624 13.543"/>
<path id="path81358" d="m5826.1 4641.9c1.9187 1.0083 5.4759 2.8821 7.9046 4.164 19.161 10.113 41.128 30.669 56.984 47.621l1.7135 1.8319-2.0403 0.3138c-74.939 11.526-145.5-11.76-188-62.042-5.3328-6.3095-5.4538-5.7636 1.6142-7.2809 37.756-8.1049 88.755-1.9838 121.82 15.392"/>
<path id="path81360" d="m5651.5 4630.4c6.4704 4.2917 14.344 9.4268 31.154 23.852 52.527 45.075 80.104 57.839 129.94 60.142 11.029 0.5097 11.383 0.6637 6.0136 2.6163-27.611 10.042-91.31 1.7954-131.6-18.345-38.386-19.19-69.595-49.682-65.217-69.114 2.3556-10.456 13.127-10.148 29.706 0.8488"/>
<path id="path81362" d="m5587.9 4644.5c3.3311 2.3303 7.8841 4.5642 16.874 14.18 25.324 27.09 48.421 40.355 80.295 48.668 24.812 6.4712 17.713 9.5141-13.876 5.948-54.3-6.13-101.79-31.251-104.97-57.706-1.6175-13.467 10.376-18.995 21.675-11.09"/>
<path id="path81364" d="m5776.4 4746.6c-0.982-0.2384-4.0812-0.99-6.8872-1.6699-22.159-5.37-55.231-7.8953-53.506-4.133 0.4802 1.0472 6.3012 3.3068 14.9 5.7842 30.619 8.8209 54.326 24.042 75.786 48.659 19.123 21.935 23.67 27.183 32.2 23.798 21.442-8.5092 3.4847-43.921-34.793-62.299-3.7373-1.7946-24.238-9.2975-27.701-10.138"/>
<path id="path81366" d="m5685.9 4738.1c-33.878-9.3504-61.899-14.1-82.111-10.89-11.246 1.786-10.803 2.4043 3.1272 4.3688 47.518 6.7012 74.898 22.024 118.69 66.425 37.685 38.21 48.823 47.483 57.553 41.076 17.528-12.863-12.915-61.538-57.347-85.479-5.9598-3.2114-31.929-13.297-39.911-15.5"/>
<path id="path81368" d="m5608.7 4748.6c-2.085-0.5931-5.9531-1.6894-8.5959-2.4361-20.85-5.8911-48.785-10.756-71.992-10.265l-2.5078 0.053 1.2005 1.6794c44.091 61.682 109.74 95.515 175.46 91.614 8.2467-0.4896 8.1774-0.522 4.3267-6.64-20.57-32.682-61.966-63.784-97.894-74.006"/>
<path id="path81370" d="m5739 4865.9c-7.5256-1.9099-16.948-3.4893-38.892-6.5188-68.566-9.4659-96.381-22.276-130.69-58.494-7.5932-8.015-7.9409-8.1821-5.9103-2.8421 10.443 27.462 57.889 69.227 98.566 88.567 38.757 18.428 86.058 17.019 97.512 0.7219 6.1627-8.7687-1.3009-16.541-20.584-21.434"/>
<path id="path81372" d="m5767.3 4928.2c-3.9152-1.0944-9.2792-1.7539-22.405-2.7551-36.976-2.8202-62.742-11.386-88.674-31.698-20.186-15.812-18.334-8.2207 3.3671 15.009 37.304 39.932 87.974 60.248 110.77 46.46 11.606-7.0183 10.218-23.304-3.0634-27.016"/>
<path id="path81374" d="m5745.2 4192.4c0.9965 0.1682 4.141 0.6987 6.988 1.1794 22.482 3.7945 53.883 14.258 50.747 16.959-0.8727 0.7529-7.106 0.3828-15.956-0.9471-31.51-4.733-59.403-0.7693-89.166 12.672-26.521 11.978-33.087 11.143-39.268 4.3581-15.535-17.054 14.777-34.008 57.199-35.818 4.1421-0.1763 25.94 1.0049 29.455 1.5967"/>
<path id="path81376" d="m5831.4 4220.7c34.694 5.6084 62.054 16.79 78.515 28.951 9.159 6.7655 8.4813 7.1104-4.7881 2.4366-45.263-15.943-76.623-14.955-135.94 4.2805-51.05 16.554-65.592 16.932-70.149 7.109-9.1498-19.722 39.261-42.048 89.626-45.308 6.7559-0.4373 34.566 1.2094 42.74 2.5317"/>
<path id="path81378" d="m5895.5 4268.4c2.1124 0.4855 6.0296 1.3911 8.7049 2.0122 21.106 4.8956 47.67 17.506 67.471 29.619l2.1396 1.3087-1.8829 0.8468c-69.159 31.077-143.82 27.632-197.72-10.177-6.7633-4.744-6.8086-3.6296-0.4005-6.9752 34.232-17.873 85.282-25.011 121.68-16.635"/>
<path id="path81380" d="m5723.8 4302.8c7.3796 2.414 16.209 5.2451 36.252 14.676 62.63 29.467 92.303 34.962 141.09 24.517 10.796-2.3118 11.177-2.2525 6.4813 1.0007-24.15 16.733-87.694 24.976-131.78 15.731-42.001-8.8086-80.178-30.356-80.888-50.264-0.3818-10.711 9.9346-11.845 28.844-5.6611"/>
<path id="path81382" d="m5666.2 4331.5c3.8139 1.4076 8.5472 4.0152 19.77 10.895 31.616 19.38 57.287 26.004 90.224 25.546 25.64-0.3574 19.671 4.3684-11.788 8.9405-54.077 7.859-106.47-4.3753-116.27-29.155-4.9854-12.614 5.124-21 18.062-16.226"/>
<path id="path81384" d="m5874.7 4381.5c-1.0101 0.032-4.1976 0.131-7.0835 0.2213-22.789 0.7123-55.463 7.054-52.8 10.222 0.741 0.8828 6.9531 1.5146 15.902 1.6176 31.862 0.3686 58.658 9.828 85.664 28.191 24.064 16.363 30.246 18.496 37.571 12.966 18.412-13.899-8.0684-43.264-49.854-50.807-4.08-0.7361-25.837-2.5202-29.399-2.4103"/>
<path id="path81386" d="m5785 4397.3c-35.141-0.4457-63.618 3.0005-82.252 11.462-10.368 4.7076-9.7772 5.1862 4.175 3.3813 47.592-6.1568 78.234 1.2159 131.86 33.055 46.145 27.4 59.356 33.569 66.176 25.157 13.692-16.888-28.363-56.316-77.416-68.195-6.5798-1.5935-34.258-4.7571-42.538-4.8613"/>
<path id="path81388" d="m5713.1 4428c-2.1675-0.019-6.1879-0.049-8.9341-0.067-21.666-0.1456-49.619 0.8915-71.943 7.2508 0 0-2.4123 0.6868-2.4123 0.6868l1.5869 1.3208c58.29 48.487 130.76 64.883 193.09 43.684 7.8211-2.6598 7.6437-2.1297 2.3676-7.0714-28.184-26.399-76.404-45.487-113.76-45.804"/>
<path id="path81390" d="m5869.4 4506.4c-7.7627 0.1554-17.439 1.9834-39.434 4.615-68.726 8.2221-98.742 3.4815-141.43-22.337-9.4471-5.7142-9.8268-5.7827-6.4523-1.1731 17.353 23.709 73.958 51.338 118.31 59.197 42.257 7.4882 87.244-5.0531 94.193-23.721 3.739-10.045-5.2945-16.977-25.185-16.58"/>
<path id="path81392" d="m5913 4558.9c-4.0652-0.017-9.8262 2.3437-22.777 4.7016-36.483 6.6423-63.49 4.9102-93.723-8.1677-23.534-10.18-19.815-3.4111 7.2704 13.231 46.559 28.608 100.16 36.421 118.72 17.306 9.4491-9.7305 4.2963-27.015-9.494-27.072"/>
</g>
<use id="use126702" xlink:href="#g80912" transform="matrix(.77274 -.20706 .20706 .77274 -292.69 -259.15)" height="100%" width="100%" y="0" x="0"/>
<use id="use126704" xlink:href="#g80912" transform="matrix(.55426 -.32 .32 .55426 -572.54 -398.83)" height="100%" width="100%" y="0" x="0"/>
<use id="use126706" xlink:href="#g80912" transform="matrix(.36204 -.36204 .36204 .36204 -817.71 -448.82)" height="100%" width="100%" y="0" x="0"/>
<use id="use126708" xlink:href="#g80912" transform="matrix(.2048 -.35472 .35472 .2048 -1017.5 -436.68)" height="100%" width="100%" y="0" x="0"/>
<use id="use126710" xlink:href="#g80912" transform="matrix(.084810 -.31651 .31651 .084810 -1169.4 -385.92)" height="100%" width="100%" y="0" x="0"/>
<use id="use126712" xlink:href="#g80912" transform="matrix(0 -.26214 .26214 0 -1276.2 -315.26)" height="100%" width="100%" y="0" x="0"/>
<use id="use126714" xlink:href="#g80912" transform="matrix(-.054278 -.20257 .20257 -.054278 -1344.2 -238.53)" height="100%" width="100%" y="0" x="0"/>
<use id="use126716" xlink:href="#g80912" transform="matrix(-.083886 -.14529 .14529 -.083886 -1380.8 -165.17)" height="100%" width="100%" y="0" x="0"/>
<use id="use126718" xlink:href="#g80912" transform="matrix(-.094906 -.094906 .094906 -.094906 -1393.9 -100.9)" height="100%" width="100%" y="0" x="0"/>
<use id="use126720" xlink:href="#g80912" transform="matrix(-.092989 -.053687 .053687 -.092989 -1390.7 -48.525)" height="100%" width="100%" y="0" x="0"/>
<use id="use126722" xlink:href="#g80912" transform="matrix(-.082972 -.022232 .022232 -.082972 -1377.4 -8.7102)" height="100%" width="100%" y="0" x="0"/>
<use id="use126724" xlink:href="#g80912" transform="matrix(-.068719 0 0 -.068719 -1358.9 19.302)" height="100%" width="100%" y="0" x="0"/>
<use id="use126726" xlink:href="#g80912" transform="matrix(-.053102 .014229 -.014229 -.053102 -1338.8 37.111)" height="100%" width="100%" y="0" x="0"/>
<use id="use126728" xlink:href="#g80912" transform="matrix(-.038088 .021990 -.021990 -.038088 -1319.6 46.71)" height="100%" width="100%" y="0" x="0"/>
<use id="use126730" xlink:href="#g80912" transform="matrix(-.024879 .024879 -.024879 -.024879 -1302.7 50.145)" height="100%" width="100%" y="0" x="0"/>
<use id="use126732" xlink:href="#g80912" transform="matrix(-.014074 .024376 -.024376 -.014074 -1289 49.311)" height="100%" width="100%" y="0" x="0"/>
<use id="use126734" xlink:href="#g80912" transform="matrix(-.0058281 .021751 -.021751 -.0058281 -1278.6 45.828)" height="100%" width="100%" y="0" x="0"/>
<use id="use126736" xlink:href="#g80912" transform="matrix(-1.4643e-8 .018014 -.018014 -1.4643e-8 -1271.2 40.972)" height="100%" width="100%" y="0" x="0"/>
<use id="use126738" xlink:href="#g80912" transform="matrix(0.00373 .013920 -.013920 0.00373 -1266.5 35.699)" height="100%" width="100%" y="0" x="0"/>
<use id="use126740" xlink:href="#g80912" transform="matrix(.0057646 .0099846 -.0099846 .0057646 -1264 30.657)" height="100%" width="100%" y="0" x="0"/>
<use id="use126742" xlink:href="#g80912" transform="matrix(.0065219 .0065219 -.0065219 .0065219 -1263.1 26.241)" height="100%" width="100%" y="0" x="0"/>
<use id="use126744" xlink:href="#g80912" transform="matrix(.0063901 .0036894 -.0036894 .0063901 -1263.3 22.642)" height="100%" width="100%" y="0" x="0"/>
<use id="use126746" xlink:href="#g80912" transform="matrix(.0057018 .0015278 -.0015278 .0057018 -1264.3 19.906)" height="100%" width="100%" y="0" x="0"/>
<use id="use126748" xlink:href="#g80912" transform="matrix(.0047224 0 0 .0047224 -1265.5 17.98)" height="100%" width="100%" y="0" x="0"/>
<use id="use126750" xlink:href="#g80912" transform="matrix(.0036492 -.00097779 .00097779 .0036492 -1266.9 16.756)" height="100%" width="100%" y="0" x="0"/>
<use id="use126752" xlink:href="#g80912" transform="matrix(.0026174 -.0015112 .0015112 .0026174 -1268.2 16.097)" height="100%" width="100%" y="0" x="0"/>
<use id="use126754" xlink:href="#g80912" transform="matrix(.0017097 -.0017097 .0017097 .0017097 -1269.4 15.861)" height="100%" width="100%" y="0" x="0"/>
<use id="use126756" xlink:href="#g80912" transform="matrix(.00096714 -.0016751 .0016751 .00096714 -1270.3 15.918)" height="100%" width="100%" y="0" x="0"/>
<use id="use126758" xlink:href="#g80912" transform="matrix(.00040051 -.0014947 .0014947 .00040051 -1271.1 16.158)" height="100%" width="100%" y="0" x="0"/>
<use id="use126760" xlink:href="#g80912" transform="matrix(0 -.0012379 .0012379 0 -1271.6 16.491)" height="100%" width="100%" y="0" x="0"/>
<use id="use126762" xlink:href="#g80912" transform="matrix(-.00025632 -.00095660 .00095660 -.00025632 -1271.9 16.854)" height="100%" width="100%" y="0" x="0"/>
<use id="use126764" xlink:href="#g80912" transform="matrix(-.00039614 -.00068614 .00068614 -.00039614 -1272.1 17.2)" height="100%" width="100%" y="0" x="0"/>
</g>
</g>
</svg>
