<svg xmlns="http://www.w3.org/2000/svg" width="1440" height="560" preserveAspectRatio="none"><g mask="url(&quot;#a&quot;)" fill="none"><path fill="#0e2a47" d="M0 0h1440v560H0z"/><path d="M220.6 280a4.4 4.4 0 1 0 8.8 0 4.4 4.4 0 1 0-8.8 0zm0-11a4.4 4.4 0 1 0 8.8 0 4.4 4.4 0 1 0-8.8 0zm0 22a4.4 4.4 0 1 0 8.8 0 4.4 4.4 0 1 0-8.8 0zm0-33a4.4 4.4 0 1 0 8.8 0 4.4 4.4 0 1 0-8.8 0zm0 44a4.4 4.4 0 1 0 8.8 0 4.4 4.4 0 1 0-8.8 0zm0-55a4.4 4.4 0 1 0 8.8 0 4.4 4.4 0 1 0-8.8 0zm0 66a4.4 4.4 0 1 0 8.8 0 4.4 4.4 0 1 0-8.8 0zm11-33a4.4 4.4 0 1 0 8.8 0 4.4 4.4 0 1 0-8.8 0zm0-11a4.4 4.4 0 1 0 8.8 0 4.4 4.4 0 1 0-8.8 0zm0 22a4.4 4.4 0 1 0 8.8 0 4.4 4.4 0 1 0-8.8 0zm0-33a4.4 4.4 0 1 0 8.8 0 4.4 4.4 0 1 0-8.8 0zm0 44a4.4 4.4 0 1 0 8.8 0 4.4 4.4 0 1 0-8.8 0zm0-55a4.4 4.4 0 1 0 8.8 0 4.4 4.4 0 1 0-8.8 0zm0 66a4.4 4.4 0 1 0 8.8 0 4.4 4.4 0 1 0-8.8 0zm0-77a4.4 4.4 0 1 0 8.8 0 4.4 4.4 0 1 0-8.8 0zm0 88a4.4 4.4 0 1 0 8.8 0 4.4 4.4 0 1 0-8.8 0zm0-99a4.4 4.4 0 1 0 8.8 0 4.4 4.4 0 1 0-8.8 0zm0 110a4.4 4.4 0 1 0 8.8 0 4.4 4.4 0 1 0-8.8 0zm0-121a4.4 4.4 0 1 0 8.8 0 4.4 4.4 0 1 0-8.8 0zm0 132a4.4 4.4 0 1 0 8.8 0 4.4 4.4 0 1 0-8.8 0zm0-143a4.4 4.4 0 1 0 8.8 0 4.4 4.4 0 1 0-8.8 0zm0 154a4.4 4.4 0 1 0 8.8 0 4.4 4.4 0 1 0-8.8 0zm0-165a4.4 4.4 0 1 0 8.8 0 4.4 4.4 0 1 0-8.8 0zm0 176a4.4 4.4 0 1 0 8.8 0 4.4 4.4 0 1 0-8.8 0zm0-187a4.4 4.4 0 1 0 8.8 0 4.4 4.4 0 1 0-8.8 0zm0 198a4.4 4.4 0 1 0 8.8 0 4.4 4.4 0 1 0-8.8 0zm0-209a4.4 4.4 0 1 0 8.8 0 4.4 4.4 0 1 0-8.8 0zm0 220a4.4 4.4 0 1 0 8.8 0 4.4 4.4 0 1 0-8.8 0zm11-110a4.4 4.4 0 1 0 8.8 0 4.4 4.4 0 1 0-8.8 0zm0-11a4.4 4.4 0 1 0 8.8 0 4.4 4.4 0 1 0-8.8 0zm0 22a4.4 4.4 0 1 0 8.8 0 4.4 4.4 0 1 0-8.8 0zm0-33a4.4 4.4 0 1 0 8.8 0 4.4 4.4 0 1 0-8.8 0zm0 44a4.4 4.4 0 1 0 8.8 0 4.4 4.4 0 1 0-8.8 0zm0-55a4.4 4.4 0 1 0 8.8 0 4.4 4.4 0 1 0-8.8 0zm0 66a4.4 4.4 0 1 0 8.8 0 4.4 4.4 0 1 0-8.8 0zm0-77a4.4 4.4 0 1 0 8.8 0 4.4 4.4 0 1 0-8.8 0zm0 88a4.4 4.4 0 1 0 8.8 0 4.4 4.4 0 1 0-8.8 0zm0-99a4.4 4.4 0 1 0 8.8 0 4.4 4.4 0 1 0-8.8 0zm0 110a4.4 4.4 0 1 0 8.8 0 4.4 4.4 0 1 0-8.8 0zm0-121a4.4 4.4 0 1 0 8.8 0 4.4 4.4 0 1 0-8.8 0zm0 132a4.4 4.4 0 1 0 8.8 0 4.4 4.4 0 1 0-8.8 0zm0-143a4.4 4.4 0 1 0 8.8 0 4.4 4.4 0 1 0-8.8 0zm0 154a4.4 4.4 0 1 0 8.8 0 4.4 4.4 0 1 0-8.8 0zm0-165a4.4 4.4 0 1 0 8.8 0 4.4 4.4 0 1 0-8.8 0zm0 176a4.4 4.4 0 1 0 8.8 0 4.4 4.4 0 1 0-8.8 0zm0-187a4.4 4.4 0 1 0 8.8 0 4.4 4.4 0 1 0-8.8 0zm0 198a4.4 4.4 0 1 0 8.8 0 4.4 4.4 0 1 0-8.8 0zm0-209a4.4 4.4 0 1 0 8.8 0 4.4 4.4 0 1 0-8.8 0zm0 220a4.4 4.4 0 1 0 8.8 0 4.4 4.4 0 1 0-8.8 0zm11-110a4.4 4.4 0 1 0 8.8 0 4.4 4.4 0 1 0-8.8 0zm0-11a4.4 4.4 0 1 0 8.8 0 4.4 4.4 0 1 0-8.8 0zm0 22a4.4 4.4 0 1 0 8.8 0 4.4 4.4 0 1 0-8.8 0zm0-33a4.4 4.4 0 1 0 8.8 0 4.4 4.4 0 1 0-8.8 0zm0 44a4.4 4.4 0 1 0 8.8 0 4.4 4.4 0 1 0-8.8 0zm0-55a4.4 4.4 0 1 0 8.8 0 4.4 4.4 0 1 0-8.8 0zm0 66a4.4 4.4 0 1 0 8.8 0 4.4 4.4 0 1 0-8.8 0zm0-77a4.4 4.4 0 1 0 8.8 0 4.4 4.4 0 1 0-8.8 0zm0 88a4.4 4.4 0 1 0 8.8 0 4.4 4.4 0 1 0-8.8 0zm0-99a4.4 4.4 0 1 0 8.8 0 4.4 4.4 0 1 0-8.8 0zm0 110a4.4 4.4 0 1 0 8.8 0 4.4 4.4 0 1 0-8.8 0zm0-121a4.4 4.4 0 1 0 8.8 0 4.4 4.4 0 1 0-8.8 0zm0 132a4.4 4.4 0 1 0 8.8 0 4.4 4.4 0 1 0-8.8 0zm0-143a4.4 4.4 0 1 0 8.8 0 4.4 4.4 0 1 0-8.8 0zm0 154a4.4 4.4 0 1 0 8.8 0 4.4 4.4 0 1 0-8.8 0zm0-165a4.4 4.4 0 1 0 8.8 0 4.4 4.4 0 1 0-8.8 0zm0 176a4.4 4.4 0 1 0 8.8 0 4.4 4.4 0 1 0-8.8 0zm0-187a4.4 4.4 0 1 0 8.8 0 4.4 4.4 0 1 0-8.8 0zm0 198a4.4 4.4 0 1 0 8.8 0 4.4 4.4 0 1 0-8.8 0zm11-99a4.4 4.4 0 1 0 8.8 0 4.4 4.4 0 1 0-8.8 0zm0-11a4.4 4.4 0 1 0 8.8 0 4.4 4.4 0 1 0-8.8 0zm0 22a4.4 4.4 0 1 0 8.8 0 4.4 4.4 0 1 0-8.8 0zm0-33a4.4 4.4 0 1 0 8.8 0 4.4 4.4 0 1 0-8.8 0zm0 44a4.4 4.4 0 1 0 8.8 0 4.4 4.4 0 1 0-8.8 0zm0-55a4.4 4.4 0 1 0 8.8 0 4.4 4.4 0 1 0-8.8 0zm0 66a4.4 4.4 0 1 0 8.8 0 4.4 4.4 0 1 0-8.8 0zm0-77a4.4 4.4 0 1 0 8.8 0 4.4 4.4 0 1 0-8.8 0zm0 88a4.4 4.4 0 1 0 8.8 0 4.4 4.4 0 1 0-8.8 0zm0-99a4.4 4.4 0 1 0 8.8 0 4.4 4.4 0 1 0-8.8 0zm0 110a4.4 4.4 0 1 0 8.8 0 4.4 4.4 0 1 0-8.8 0zm0-121a4.4 4.4 0 1 0 8.8 0 4.4 4.4 0 1 0-8.8 0zm0 132a4.4 4.4 0 1 0 8.8 0 4.4 4.4 0 1 0-8.8 0zm0-143a4.4 4.4 0 1 0 8.8 0 4.4 4.4 0 1 0-8.8 0zm0 154a4.4 4.4 0 1 0 8.8 0 4.4 4.4 0 1 0-8.8 0zm11-77a4.4 4.4 0 1 0 8.8 0 4.4 4.4 0 1 0-8.8 0zm0-11a4.4 4.4 0 1 0 8.8 0 4.4 4.4 0 1 0-8.8 0zm0 22a4.4 4.4 0 1 0 8.8 0 4.4 4.4 0 1 0-8.8 0zm0-33a4.4 4.4 0 1 0 8.8 0 4.4 4.4 0 1 0-8.8 0zm0 44a4.4 4.4 0 1 0 8.8 0 4.4 4.4 0 1 0-8.8 0zm0-55a4.4 4.4 0 1 0 8.8 0 4.4 4.4 0 1 0-8.8 0zm0 66a4.4 4.4 0 1 0 8.8 0 4.4 4.4 0 1 0-8.8 0zm0-77a4.4 4.4 0 1 0 8.8 0 4.4 4.4 0 1 0-8.8 0zm0 88a4.4 4.4 0 1 0 8.8 0 4.4 4.4 0 1 0-8.8 0zm0-99a4.4 4.4 0 1 0 8.8 0 4.4 4.4 0 1 0-8.8 0zm0 110a4.4 4.4 0 1 0 8.8 0 4.4 4.4 0 1 0-8.8 0zm0-121a4.4 4.4 0 1 0 8.8 0 4.4 4.4 0 1 0-8.8 0zm0 132a4.4 4.4 0 1 0 8.8 0 4.4 4.4 0 1 0-8.8 0zm0-143a4.4 4.4 0 1 0 8.8 0 4.4 4.4 0 1 0-8.8 0zm0 154a4.4 4.4 0 1 0 8.8 0 4.4 4.4 0 1 0-8.8 0zm0-165a4.4 4.4 0 1 0 8.8 0 4.4 4.4 0 1 0-8.8 0zm0 176a4.4 4.4 0 1 0 8.8 0 4.4 4.4 0 1 0-8.8 0zm0-187a4.4 4.4 0 1 0 8.8 0 4.4 4.4 0 1 0-8.8 0zm0 198a4.4 4.4 0 1 0 8.8 0 4.4 4.4 0 1 0-8.8 0zm0-209a4.4 4.4 0 1 0 8.8 0 4.4 4.4 0 1 0-8.8 0zm0 220a4.4 4.4 0 1 0 8.8 0 4.4 4.4 0 1 0-8.8 0zm0-231a4.4 4.4 0 1 0 8.8 0 4.4 4.4 0 1 0-8.8 0zm0 242a4.4 4.4 0 1 0 8.8 0 4.4 4.4 0 1 0-8.8 0zm0-253a4.4 4.4 0 1 0 8.8 0 4.4 4.4 0 1 0-8.8 0zm0 264a4.4 4.4 0 1 0 8.8 0 4.4 4.4 0 1 0-8.8 0zm11-132a4.4 4.4 0 1 0 8.8 0 4.4 4.4 0 1 0-8.8 0zm0-11a4.4 4.4 0 1 0 8.8 0 4.4 4.4 0 1 0-8.8 0zm0 22a4.4 4.4 0 1 0 8.8 0 4.4 4.4 0 1 0-8.8 0zm0-33a4.4 4.4 0 1 0 8.8 0 4.4 4.4 0 1 0-8.8 0zm0 44a4.4 4.4 0 1 0 8.8 0 4.4 4.4 0 1 0-8.8 0zm0-55a4.4 4.4 0 1 0 8.8 0 4.4 4.4 0 1 0-8.8 0zm0 66a4.4 4.4 0 1 0 8.8 0 4.4 4.4 0 1 0-8.8 0zm0-77a4.4 4.4 0 1 0 8.8 0 4.4 4.4 0 1 0-8.8 0zm0 88a4.4 4.4 0 1 0 8.8 0 4.4 4.4 0 1 0-8.8 0zm0-99a4.4 4.4 0 1 0 8.8 0 4.4 4.4 0 1 0-8.8 0zm0 110a4.4 4.4 0 1 0 8.8 0 4.4 4.4 0 1 0-8.8 0zm11-55a4.4 4.4 0 1 0 8.8 0 4.4 4.4 0 1 0-8.8 0zm0-11a4.4 4.4 0 1 0 8.8 0 4.4 4.4 0 1 0-8.8 0zm0 22a4.4 4.4 0 1 0 8.8 0 4.4 4.4 0 1 0-8.8 0zm0-33a4.4 4.4 0 1 0 8.8 0 4.4 4.4 0 1 0-8.8 0zm0 44a4.4 4.4 0 1 0 8.8 0 4.4 4.4 0 1 0-8.8 0zm0-55a4.4 4.4 0 1 0 8.8 0 4.4 4.4 0 1 0-8.8 0zm0 66a4.4 4.4 0 1 0 8.8 0 4.4 4.4 0 1 0-8.8 0zm0-77a4.4 4.4 0 1 0 8.8 0 4.4 4.4 0 1 0-8.8 0zm0 88a4.4 4.4 0 1 0 8.8 0 4.4 4.4 0 1 0-8.8 0zm0-99a4.4 4.4 0 1 0 8.8 0 4.4 4.4 0 1 0-8.8 0zm0 110a4.4 4.4 0 1 0 8.8 0 4.4 4.4 0 1 0-8.8 0zm0-121a4.4 4.4 0 1 0 8.8 0 4.4 4.4 0 1 0-8.8 0zm0 132a4.4 4.4 0 1 0 8.8 0 4.4 4.4 0 1 0-8.8 0zm0-143a4.4 4.4 0 1 0 8.8 0 4.4 4.4 0 1 0-8.8 0zm0 154a4.4 4.4 0 1 0 8.8 0 4.4 4.4 0 1 0-8.8 0zm0-165a4.4 4.4 0 1 0 8.8 0 4.4 4.4 0 1 0-8.8 0zm0 176a4.4 4.4 0 1 0 8.8 0 4.4 4.4 0 1 0-8.8 0zm0-187a4.4 4.4 0 1 0 8.8 0 4.4 4.4 0 1 0-8.8 0zm0 198a4.4 4.4 0 1 0 8.8 0 4.4 4.4 0 1 0-8.8 0zm0-209a4.4 4.4 0 1 0 8.8 0 4.4 4.4 0 1 0-8.8 0zm0 220a4.4 4.4 0 1 0 8.8 0 4.4 4.4 0 1 0-8.8 0zm11-110a4.4 4.4 0 1 0 8.8 0 4.4 4.4 0 1 0-8.8 0zm0-11a4.4 4.4 0 1 0 8.8 0 4.4 4.4 0 1 0-8.8 0zm0 22a4.4 4.4 0 1 0 8.8 0 4.4 4.4 0 1 0-8.8 0zm0-33a4.4 4.4 0 1 0 8.8 0 4.4 4.4 0 1 0-8.8 0zm0 44a4.4 4.4 0 1 0 8.8 0 4.4 4.4 0 1 0-8.8 0zm0-55a4.4 4.4 0 1 0 8.8 0 4.4 4.4 0 1 0-8.8 0zm0 66a4.4 4.4 0 1 0 8.8 0 4.4 4.4 0 1 0-8.8 0zm0-77a4.4 4.4 0 1 0 8.8 0 4.4 4.4 0 1 0-8.8 0zm0 88a4.4 4.4 0 1 0 8.8 0 4.4 4.4 0 1 0-8.8 0zm11-44a4.4 4.4 0 1 0 8.8 0 4.4 4.4 0 1 0-8.8 0zm0-11a4.4 4.4 0 1 0 8.8 0 4.4 4.4 0 1 0-8.8 0zm0 22a4.4 4.4 0 1 0 8.8 0 4.4 4.4 0 1 0-8.8 0zm0-33a4.4 4.4 0 1 0 8.8 0 4.4 4.4 0 1 0-8.8 0zm0 44a4.4 4.4 0 1 0 8.8 0 4.4 4.4 0 1 0-8.8 0zm0-55a4.4 4.4 0 1 0 8.8 0 4.4 4.4 0 1 0-8.8 0zm0 66a4.4 4.4 0 1 0 8.8 0 4.4 4.4 0 1 0-8.8 0zm0-77a4.4 4.4 0 1 0 8.8 0 4.4 4.4 0 1 0-8.8 0zm0 88a4.4 4.4 0 1 0 8.8 0 4.4 4.4 0 1 0-8.8 0zm0-99a4.4 4.4 0 1 0 8.8 0 4.4 4.4 0 1 0-8.8 0zm0 110a4.4 4.4 0 1 0 8.8 0 4.4 4.4 0 1 0-8.8 0zm0-121a4.4 4.4 0 1 0 8.8 0 4.4 4.4 0 1 0-8.8 0zm0 132a4.4 4.4 0 1 0 8.8 0 4.4 4.4 0 1 0-8.8 0zm0-143a4.4 4.4 0 1 0 8.8 0 4.4 4.4 0 1 0-8.8 0zm0 154a4.4 4.4 0 1 0 8.8 0 4.4 4.4 0 1 0-8.8 0zm0-165a4.4 4.4 0 1 0 8.8 0 4.4 4.4 0 1 0-8.8 0zm0 176a4.4 4.4 0 1 0 8.8 0 4.4 4.4 0 1 0-8.8 0zm0-187a4.4 4.4 0 1 0 8.8 0 4.4 4.4 0 1 0-8.8 0zm0 198a4.4 4.4 0 1 0 8.8 0 4.4 4.4 0 1 0-8.8 0zm0-209a4.4 4.4 0 1 0 8.8 0 4.4 4.4 0 1 0-8.8 0zm0 220a4.4 4.4 0 1 0 8.8 0 4.4 4.4 0 1 0-8.8 0zm0-231a4.4 4.4 0 1 0 8.8 0 4.4 4.4 0 1 0-8.8 0zm0 242a4.4 4.4 0 1 0 8.8 0 4.4 4.4 0 1 0-8.8 0zm0-253a4.4 4.4 0 1 0 8.8 0 4.4 4.4 0 1 0-8.8 0zm0 264a4.4 4.4 0 1 0 8.8 0 4.4 4.4 0 1 0-8.8 0zm0-275a4.4 4.4 0 1 0 8.8 0 4.4 4.4 0 1 0-8.8 0zm0 286a4.4 4.4 0 1 0 8.8 0 4.4 4.4 0 1 0-8.8 0zm0-297a4.4 4.4 0 1 0 8.8 0 4.4 4.4 0 1 0-8.8 0zm0 308a4.4 4.4 0 1 0 8.8 0 4.4 4.4 0 1 0-8.8 0zm0-319a4.4 4.4 0 1 0 8.8 0 4.4 4.4 0 1 0-8.8 0zm0 330a4.4 4.4 0 1 0 8.8 0 4.4 4.4 0 1 0-8.8 0zm0-341a4.4 4.4 0 1 0 8.8 0 4.4 4.4 0 1 0-8.8 0zm0 352a4.4 4.4 0 1 0 8.8 0 4.4 4.4 0 1 0-8.8 0zm0-363a4.4 4.4 0 1 0 8.8 0 4.4 4.4 0 1 0-8.8 0zm0 374a4.4 4.4 0 1 0 8.8 0 4.4 4.4 0 1 0-8.8 0zm11-187a4.4 4.4 0 1 0 8.8 0 4.4 4.4 0 1 0-8.8 0zm0-11a4.4 4.4 0 1 0 8.8 0 4.4 4.4 0 1 0-8.8 0zm0 22a4.4 4.4 0 1 0 8.8 0 4.4 4.4 0 1 0-8.8 0zm0-33a4.4 4.4 0 1 0 8.8 0 4.4 4.4 0 1 0-8.8 0zm0 44a4.4 4.4 0 1 0 8.8 0 4.4 4.4 0 1 0-8.8 0zm0-55a4.4 4.4 0 1 0 8.8 0 4.4 4.4 0 1 0-8.8 0zm0 66a4.4 4.4 0 1 0 8.8 0 4.4 4.4 0 1 0-8.8 0zm0-77a4.4 4.4 0 1 0 8.8 0 4.4 4.4 0 1 0-8.8 0zm0 88a4.4 4.4 0 1 0 8.8 0 4.4 4.4 0 1 0-8.8 0zm0-99a4.4 4.4 0 1 0 8.8 0 4.4 4.4 0 1 0-8.8 0zm0 110a4.4 4.4 0 1 0 8.8 0 4.4 4.4 0 1 0-8.8 0zm0-121a4.4 4.4 0 1 0 8.8 0 4.4 4.4 0 1 0-8.8 0zm0 132a4.4 4.4 0 1 0 8.8 0 4.4 4.4 0 1 0-8.8 0zm0-143a4.4 4.4 0 1 0 8.8 0 4.4 4.4 0 1 0-8.8 0zm0 154a4.4 4.4 0 1 0 8.8 0 4.4 4.4 0 1 0-8.8 0zm11-77a4.4 4.4 0 1 0 8.8 0 4.4 4.4 0 1 0-8.8 0zm0-11a4.4 4.4 0 1 0 8.8 0 4.4 4.4 0 1 0-8.8 0zm0 22a4.4 4.4 0 1 0 8.8 0 4.4 4.4 0 1 0-8.8 0zm0-33a4.4 4.4 0 1 0 8.8 0 4.4 4.4 0 1 0-8.8 0zm0 44a4.4 4.4 0 1 0 8.8 0 4.4 4.4 0 1 0-8.8 0zm0-55a4.4 4.4 0 1 0 8.8 0 4.4 4.4 0 1 0-8.8 0zm0 66a4.4 4.4 0 1 0 8.8 0 4.4 4.4 0 1 0-8.8 0zm0-77a4.4 4.4 0 1 0 8.8 0 4.4 4.4 0 1 0-8.8 0zm0 88a4.4 4.4 0 1 0 8.8 0 4.4 4.4 0 1 0-8.8 0zm0-99a4.4 4.4 0 1 0 8.8 0 4.4 4.4 0 1 0-8.8 0zm0 110a4.4 4.4 0 1 0 8.8 0 4.4 4.4 0 1 0-8.8 0zm0-121a4.4 4.4 0 1 0 8.8 0 4.4 4.4 0 1 0-8.8 0zm0 132a4.4 4.4 0 1 0 8.8 0 4.4 4.4 0 1 0-8.8 0zm0-143a4.4 4.4 0 1 0 8.8 0 4.4 4.4 0 1 0-8.8 0zm0 154a4.4 4.4 0 1 0 8.8 0 4.4 4.4 0 1 0-8.8 0zm0-165a4.4 4.4 0 1 0 8.8 0 4.4 4.4 0 1 0-8.8 0zm0 176a4.4 4.4 0 1 0 8.8 0 4.4 4.4 0 1 0-8.8 0zm11-88a4.4 4.4 0 1 0 8.8 0 4.4 4.4 0 1 0-8.8 0zm0-11a4.4 4.4 0 1 0 8.8 0 4.4 4.4 0 1 0-8.8 0zm0 22a4.4 4.4 0 1 0 8.8 0 4.4 4.4 0 1 0-8.8 0zm0-33a4.4 4.4 0 1 0 8.8 0 4.4 4.4 0 1 0-8.8 0zm0 44a4.4 4.4 0 1 0 8.8 0 4.4 4.4 0 1 0-8.8 0zm0-55a4.4 4.4 0 1 0 8.8 0 4.4 4.4 0 1 0-8.8 0zm0 66a4.4 4.4 0 1 0 8.8 0 4.4 4.4 0 1 0-8.8 0zm0-77a4.4 4.4 0 1 0 8.8 0 4.4 4.4 0 1 0-8.8 0zm0 88a4.4 4.4 0 1 0 8.8 0 4.4 4.4 0 1 0-8.8 0zm0-99a4.4 4.4 0 1 0 8.8 0 4.4 4.4 0 1 0-8.8 0zm0 110a4.4 4.4 0 1 0 8.8 0 4.4 4.4 0 1 0-8.8 0zm0-121a4.4 4.4 0 1 0 8.8 0 4.4 4.4 0 1 0-8.8 0zm0 132a4.4 4.4 0 1 0 8.8 0 4.4 4.4 0 1 0-8.8 0zm0-143a4.4 4.4 0 1 0 8.8 0 4.4 4.4 0 1 0-8.8 0zm0 154a4.4 4.4 0 1 0 8.8 0 4.4 4.4 0 1 0-8.8 0zm11-77a4.4 4.4 0 1 0 8.8 0 4.4 4.4 0 1 0-8.8 0zm0-11a4.4 4.4 0 1 0 8.8 0 4.4 4.4 0 1 0-8.8 0zm0 22a4.4 4.4 0 1 0 8.8 0 4.4 4.4 0 1 0-8.8 0zm0-33a4.4 4.4 0 1 0 8.8 0 4.4 4.4 0 1 0-8.8 0zm0 44a4.4 4.4 0 1 0 8.8 0 4.4 4.4 0 1 0-8.8 0zm0-55a4.4 4.4 0 1 0 8.8 0 4.4 4.4 0 1 0-8.8 0zm0 66a4.4 4.4 0 1 0 8.8 0 4.4 4.4 0 1 0-8.8 0zm0-77a4.4 4.4 0 1 0 8.8 0 4.4 4.4 0 1 0-8.8 0zm0 88a4.4 4.4 0 1 0 8.8 0 4.4 4.4 0 1 0-8.8 0zm0-99a4.4 4.4 0 1 0 8.8 0 4.4 4.4 0 1 0-8.8 0zm0 110a4.4 4.4 0 1 0 8.8 0 4.4 4.4 0 1 0-8.8 0zm0-121a4.4 4.4 0 1 0 8.8 0 4.4 4.4 0 1 0-8.8 0zm0 132a4.4 4.4 0 1 0 8.8 0 4.4 4.4 0 1 0-8.8 0zm0-143a4.4 4.4 0 1 0 8.8 0 4.4 4.4 0 1 0-8.8 0zm0 154a4.4 4.4 0 1 0 8.8 0 4.4 4.4 0 1 0-8.8 0zm0-165a4.4 4.4 0 1 0 8.8 0 4.4 4.4 0 1 0-8.8 0zm0 176a4.4 4.4 0 1 0 8.8 0 4.4 4.4 0 1 0-8.8 0zm0-187a4.4 4.4 0 1 0 8.8 0 4.4 4.4 0 1 0-8.8 0zm0 198a4.4 4.4 0 1 0 8.8 0 4.4 4.4 0 1 0-8.8 0zm0-209a4.4 4.4 0 1 0 8.8 0 4.4 4.4 0 1 0-8.8 0zm0 220a4.4 4.4 0 1 0 8.8 0 4.4 4.4 0 1 0-8.8 0zm11-110a4.4 4.4 0 1 0 8.8 0 4.4 4.4 0 1 0-8.8 0zm0-11a4.4 4.4 0 1 0 8.8 0 4.4 4.4 0 1 0-8.8 0zm0 22a4.4 4.4 0 1 0 8.8 0 4.4 4.4 0 1 0-8.8 0zm0-33a4.4 4.4 0 1 0 8.8 0 4.4 4.4 0 1 0-8.8 0zm0 44a4.4 4.4 0 1 0 8.8 0 4.4 4.4 0 1 0-8.8 0zm0-55a4.4 4.4 0 1 0 8.8 0 4.4 4.4 0 1 0-8.8 0zm0 66a4.4 4.4 0 1 0 8.8 0 4.4 4.4 0 1 0-8.8 0zm0-77a4.4 4.4 0 1 0 8.8 0 4.4 4.4 0 1 0-8.8 0zm0 88a4.4 4.4 0 1 0 8.8 0 4.4 4.4 0 1 0-8.8 0zm0-99a4.4 4.4 0 1 0 8.8 0 4.4 4.4 0 1 0-8.8 0zm0 110a4.4 4.4 0 1 0 8.8 0 4.4 4.4 0 1 0-8.8 0zm0-121a4.4 4.4 0 1 0 8.8 0 4.4 4.4 0 1 0-8.8 0zm0 132a4.4 4.4 0 1 0 8.8 0 4.4 4.4 0 1 0-8.8 0zm0-143a4.4 4.4 0 1 0 8.8 0 4.4 4.4 0 1 0-8.8 0zm0 154a4.4 4.4 0 1 0 8.8 0 4.4 4.4 0 1 0-8.8 0zm0-165a4.4 4.4 0 1 0 8.8 0 4.4 4.4 0 1 0-8.8 0zm0 176a4.4 4.4 0 1 0 8.8 0 4.4 4.4 0 1 0-8.8 0zm0-187a4.4 4.4 0 1 0 8.8 0 4.4 4.4 0 1 0-8.8 0zm0 198a4.4 4.4 0 1 0 8.8 0 4.4 4.4 0 1 0-8.8 0zm0-209a4.4 4.4 0 1 0 8.8 0 4.4 4.4 0 1 0-8.8 0zm0 220a4.4 4.4 0 1 0 8.8 0 4.4 4.4 0 1 0-8.8 0zm0-231a4.4 4.4 0 1 0 8.8 0 4.4 4.4 0 1 0-8.8 0zm0 242a4.4 4.4 0 1 0 8.8 0 4.4 4.4 0 1 0-8.8 0zm0-253a4.4 4.4 0 1 0 8.8 0 4.4 4.4 0 1 0-8.8 0zm0 264a4.4 4.4 0 1 0 8.8 0 4.4 4.4 0 1 0-8.8 0zm0-275a4.4 4.4 0 1 0 8.8 0 4.4 4.4 0 1 0-8.8 0zm0 286a4.4 4.4 0 1 0 8.8 0 4.4 4.4 0 1 0-8.8 0zm0-297a4.4 4.4 0 1 0 8.8 0 4.4 4.4 0 1 0-8.8 0zm0 308a4.4 4.4 0 1 0 8.8 0 4.4 4.4 0 1 0-8.8 0zm0-319a4.4 4.4 0 1 0 8.8 0 4.4 4.4 0 1 0-8.8 0zm0 330a4.4 4.4 0 1 0 8.8 0 4.4 4.4 0 1 0-8.8 0zm0-341a4.4 4.4 0 1 0 8.8 0 4.4 4.4 0 1 0-8.8 0zm0 352a4.4 4.4 0 1 0 8.8 0 4.4 4.4 0 1 0-8.8 0zm11-176a4.4 4.4 0 1 0 8.8 0 4.4 4.4 0 1 0-8.8 0zm0-11a4.4 4.4 0 1 0 8.8 0 4.4 4.4 0 1 0-8.8 0zm0 22a4.4 4.4 0 1 0 8.8 0 4.4 4.4 0 1 0-8.8 0zm0-33a4.4 4.4 0 1 0 8.8 0 4.4 4.4 0 1 0-8.8 0zm0 44a4.4 4.4 0 1 0 8.8 0 4.4 4.4 0 1 0-8.8 0zm0-55a4.4 4.4 0 1 0 8.8 0 4.4 4.4 0 1 0-8.8 0zm0 66a4.4 4.4 0 1 0 8.8 0 4.4 4.4 0 1 0-8.8 0zm0-77a4.4 4.4 0 1 0 8.8 0 4.4 4.4 0 1 0-8.8 0zm0 88a4.4 4.4 0 1 0 8.8 0 4.4 4.4 0 1 0-8.8 0zm0-99a4.4 4.4 0 1 0 8.8 0 4.4 4.4 0 1 0-8.8 0zm0 110a4.4 4.4 0 1 0 8.8 0 4.4 4.4 0 1 0-8.8 0zm0-121a4.4 4.4 0 1 0 8.8 0 4.4 4.4 0 1 0-8.8 0zm0 132a4.4 4.4 0 1 0 8.8 0 4.4 4.4 0 1 0-8.8 0zm0-143a4.4 4.4 0 1 0 8.8 0 4.4 4.4 0 1 0-8.8 0zm0 154a4.4 4.4 0 1 0 8.8 0 4.4 4.4 0 1 0-8.8 0zm0-165a4.4 4.4 0 1 0 8.8 0 4.4 4.4 0 1 0-8.8 0zm0 176a4.4 4.4 0 1 0 8.8 0 4.4 4.4 0 1 0-8.8 0zm0-187a4.4 4.4 0 1 0 8.8 0 4.4 4.4 0 1 0-8.8 0zm0 198a4.4 4.4 0 1 0 8.8 0 4.4 4.4 0 1 0-8.8 0zm0-209a4.4 4.4 0 1 0 8.8 0 4.4 4.4 0 1 0-8.8 0zm0 220a4.4 4.4 0 1 0 8.8 0 4.4 4.4 0 1 0-8.8 0zm0-231a4.4 4.4 0 1 0 8.8 0 4.4 4.4 0 1 0-8.8 0zm0 242a4.4 4.4 0 1 0 8.8 0 4.4 4.4 0 1 0-8.8 0zm0-253a4.4 4.4 0 1 0 8.8 0 4.4 4.4 0 1 0-8.8 0zm0 264a4.4 4.4 0 1 0 8.8 0 4.4 4.4 0 1 0-8.8 0zm0-275a4.4 4.4 0 1 0 8.8 0 4.4 4.4 0 1 0-8.8 0zm0 286a4.4 4.4 0 1 0 8.8 0 4.4 4.4 0 1 0-8.8 0zm11-143a4.4 4.4 0 1 0 8.8 0 4.4 4.4 0 1 0-8.8 0zm0-11a4.4 4.4 0 1 0 8.8 0 4.4 4.4 0 1 0-8.8 0zm0 22a4.4 4.4 0 1 0 8.8 0 4.4 4.4 0 1 0-8.8 0zm0-33a4.4 4.4 0 1 0 8.8 0 4.4 4.4 0 1 0-8.8 0zm0 44a4.4 4.4 0 1 0 8.8 0 4.4 4.4 0 1 0-8.8 0zm11-22a4.4 4.4 0 1 0 8.8 0 4.4 4.4 0 1 0-8.8 0zm0-11a4.4 4.4 0 1 0 8.8 0 4.4 4.4 0 1 0-8.8 0zm0 22a4.4 4.4 0 1 0 8.8 0 4.4 4.4 0 1 0-8.8 0zm0-33a4.4 4.4 0 1 0 8.8 0 4.4 4.4 0 1 0-8.8 0zm0 44a4.4 4.4 0 1 0 8.8 0 4.4 4.4 0 1 0-8.8 0zm0-55a4.4 4.4 0 1 0 8.8 0 4.4 4.4 0 1 0-8.8 0zm0 66a4.4 4.4 0 1 0 8.8 0 4.4 4.4 0 1 0-8.8 0zm0-77a4.4 4.4 0 1 0 8.8 0 4.4 4.4 0 1 0-8.8 0zm0 88a4.4 4.4 0 1 0 8.8 0 4.4 4.4 0 1 0-8.8 0zm0-99a4.4 4.4 0 1 0 8.8 0 4.4 4.4 0 1 0-8.8 0zm0 110a4.4 4.4 0 1 0 8.8 0 4.4 4.4 0 1 0-8.8 0zm0-121a4.4 4.4 0 1 0 8.8 0 4.4 4.4 0 1 0-8.8 0zm0 132a4.4 4.4 0 1 0 8.8 0 4.4 4.4 0 1 0-8.8 0zm0-143a4.4 4.4 0 1 0 8.8 0 4.4 4.4 0 1 0-8.8 0zm0 154a4.4 4.4 0 1 0 8.8 0 4.4 4.4 0 1 0-8.8 0zm0-165a4.4 4.4 0 1 0 8.8 0 4.4 4.4 0 1 0-8.8 0zm0 176a4.4 4.4 0 1 0 8.8 0 4.4 4.4 0 1 0-8.8 0zm0-187a4.4 4.4 0 1 0 8.8 0 4.4 4.4 0 1 0-8.8 0zm0 198a4.4 4.4 0 1 0 8.8 0 4.4 4.4 0 1 0-8.8 0zm0-209a4.4 4.4 0 1 0 8.8 0 4.4 4.4 0 1 0-8.8 0zm0 220a4.4 4.4 0 1 0 8.8 0 4.4 4.4 0 1 0-8.8 0zm0-231a4.4 4.4 0 1 0 8.8 0 4.4 4.4 0 1 0-8.8 0zm0 242a4.4 4.4 0 1 0 8.8 0 4.4 4.4 0 1 0-8.8 0zm0-253a4.4 4.4 0 1 0 8.8 0 4.4 4.4 0 1 0-8.8 0zm0 264a4.4 4.4 0 1 0 8.8 0 4.4 4.4 0 1 0-8.8 0zm0-275a4.4 4.4 0 1 0 8.8 0 4.4 4.4 0 1 0-8.8 0zm0 286a4.4 4.4 0 1 0 8.8 0 4.4 4.4 0 1 0-8.8 0zm0-297a4.4 4.4 0 1 0 8.8 0 4.4 4.4 0 1 0-8.8 0zm0 308a4.4 4.4 0 1 0 8.8 0 4.4 4.4 0 1 0-8.8 0zm0-319a4.4 4.4 0 1 0 8.8 0 4.4 4.4 0 1 0-8.8 0zm0 330a4.4 4.4 0 1 0 8.8 0 4.4 4.4 0 1 0-8.8 0zm11-165a4.4 4.4 0 1 0 8.8 0 4.4 4.4 0 1 0-8.8 0zm0-11a4.4 4.4 0 1 0 8.8 0 4.4 4.4 0 1 0-8.8 0zm0 22a4.4 4.4 0 1 0 8.8 0 4.4 4.4 0 1 0-8.8 0zm0-33a4.4 4.4 0 1 0 8.8 0 4.4 4.4 0 1 0-8.8 0zm0 44a4.4 4.4 0 1 0 8.8 0 4.4 4.4 0 1 0-8.8 0zm0-55a4.4 4.4 0 1 0 8.8 0 4.4 4.4 0 1 0-8.8 0zm0 66a4.4 4.4 0 1 0 8.8 0 4.4 4.4 0 1 0-8.8 0zm11-33a4.4 4.4 0 1 0 8.8 0 4.4 4.4 0 1 0-8.8 0zm0-11a4.4 4.4 0 1 0 8.8 0 4.4 4.4 0 1 0-8.8 0zm0 22a4.4 4.4 0 1 0 8.8 0 4.4 4.4 0 1 0-8.8 0zm0-33a4.4 4.4 0 1 0 8.8 0 4.4 4.4 0 1 0-8.8 0zm0 44a4.4 4.4 0 1 0 8.8 0 4.4 4.4 0 1 0-8.8 0zm0-55a4.4 4.4 0 1 0 8.8 0 4.4 4.4 0 1 0-8.8 0zm0 66a4.4 4.4 0 1 0 8.8 0 4.4 4.4 0 1 0-8.8 0zm11-33a4.4 4.4 0 1 0 8.8 0 4.4 4.4 0 1 0-8.8 0zm0-11a4.4 4.4 0 1 0 8.8 0 4.4 4.4 0 1 0-8.8 0zm0 22a4.4 4.4 0 1 0 8.8 0 4.4 4.4 0 1 0-8.8 0zm0-33a4.4 4.4 0 1 0 8.8 0 4.4 4.4 0 1 0-8.8 0zm0 44a4.4 4.4 0 1 0 8.8 0 4.4 4.4 0 1 0-8.8 0zm0-55a4.4 4.4 0 1 0 8.8 0 4.4 4.4 0 1 0-8.8 0zm0 66a4.4 4.4 0 1 0 8.8 0 4.4 4.4 0 1 0-8.8 0zm0-77a4.4 4.4 0 1 0 8.8 0 4.4 4.4 0 1 0-8.8 0zm0 88a4.4 4.4 0 1 0 8.8 0 4.4 4.4 0 1 0-8.8 0zm0-99a4.4 4.4 0 1 0 8.8 0 4.4 4.4 0 1 0-8.8 0zm0 110a4.4 4.4 0 1 0 8.8 0 4.4 4.4 0 1 0-8.8 0zm0-121a4.4 4.4 0 1 0 8.8 0 4.4 4.4 0 1 0-8.8 0zm0 132a4.4 4.4 0 1 0 8.8 0 4.4 4.4 0 1 0-8.8 0zm0-143a4.4 4.4 0 1 0 8.8 0 4.4 4.4 0 1 0-8.8 0zm0 154a4.4 4.4 0 1 0 8.8 0 4.4 4.4 0 1 0-8.8 0zm0-165a4.4 4.4 0 1 0 8.8 0 4.4 4.4 0 1 0-8.8 0zm0 176a4.4 4.4 0 1 0 8.8 0 4.4 4.4 0 1 0-8.8 0zm0-187a4.4 4.4 0 1 0 8.8 0 4.4 4.4 0 1 0-8.8 0zm0 198a4.4 4.4 0 1 0 8.8 0 4.4 4.4 0 1 0-8.8 0zm0-209a4.4 4.4 0 1 0 8.8 0 4.4 4.4 0 1 0-8.8 0zm0 220a4.4 4.4 0 1 0 8.8 0 4.4 4.4 0 1 0-8.8 0zm0-231a4.4 4.4 0 1 0 8.8 0 4.4 4.4 0 1 0-8.8 0zm0 242a4.4 4.4 0 1 0 8.8 0 4.4 4.4 0 1 0-8.8 0zm0-253a4.4 4.4 0 1 0 8.8 0 4.4 4.4 0 1 0-8.8 0zm0 264a4.4 4.4 0 1 0 8.8 0 4.4 4.4 0 1 0-8.8 0zm0-275a4.4 4.4 0 1 0 8.8 0 4.4 4.4 0 1 0-8.8 0zm0 286a4.4 4.4 0 1 0 8.8 0 4.4 4.4 0 1 0-8.8 0zm11-143a4.4 4.4 0 1 0 8.8 0 4.4 4.4 0 1 0-8.8 0zm0-11a4.4 4.4 0 1 0 8.8 0 4.4 4.4 0 1 0-8.8 0zm0 22a4.4 4.4 0 1 0 8.8 0 4.4 4.4 0 1 0-8.8 0zm0-33a4.4 4.4 0 1 0 8.8 0 4.4 4.4 0 1 0-8.8 0zm0 44a4.4 4.4 0 1 0 8.8 0 4.4 4.4 0 1 0-8.8 0zm11-22a4.4 4.4 0 1 0 8.8 0 4.4 4.4 0 1 0-8.8 0zm0-11a4.4 4.4 0 1 0 8.8 0 4.4 4.4 0 1 0-8.8 0zm0 22a4.4 4.4 0 1 0 8.8 0 4.4 4.4 0 1 0-8.8 0zm0-33a4.4 4.4 0 1 0 8.8 0 4.4 4.4 0 1 0-8.8 0zm0 44a4.4 4.4 0 1 0 8.8 0 4.4 4.4 0 1 0-8.8 0zm0-55a4.4 4.4 0 1 0 8.8 0 4.4 4.4 0 1 0-8.8 0zm0 66a4.4 4.4 0 1 0 8.8 0 4.4 4.4 0 1 0-8.8 0zm0-77a4.4 4.4 0 1 0 8.8 0 4.4 4.4 0 1 0-8.8 0zm0 88a4.4 4.4 0 1 0 8.8 0 4.4 4.4 0 1 0-8.8 0zm0-99a4.4 4.4 0 1 0 8.8 0 4.4 4.4 0 1 0-8.8 0zm0 110a4.4 4.4 0 1 0 8.8 0 4.4 4.4 0 1 0-8.8 0zm0-121a4.4 4.4 0 1 0 8.8 0 4.4 4.4 0 1 0-8.8 0zm0 132a4.4 4.4 0 1 0 8.8 0 4.4 4.4 0 1 0-8.8 0zm0-143a4.4 4.4 0 1 0 8.8 0 4.4 4.4 0 1 0-8.8 0zm0 154a4.4 4.4 0 1 0 8.8 0 4.4 4.4 0 1 0-8.8 0zm0-165a4.4 4.4 0 1 0 8.8 0 4.4 4.4 0 1 0-8.8 0zm0 176a4.4 4.4 0 1 0 8.8 0 4.4 4.4 0 1 0-8.8 0zm0-187a4.4 4.4 0 1 0 8.8 0 4.4 4.4 0 1 0-8.8 0zm0 198a4.4 4.4 0 1 0 8.8 0 4.4 4.4 0 1 0-8.8 0zm0-209a4.4 4.4 0 1 0 8.8 0 4.4 4.4 0 1 0-8.8 0zm0 220a4.4 4.4 0 1 0 8.8 0 4.4 4.4 0 1 0-8.8 0zm0-231a4.4 4.4 0 1 0 8.8 0 4.4 4.4 0 1 0-8.8 0zm0 242a4.4 4.4 0 1 0 8.8 0 4.4 4.4 0 1 0-8.8 0zm11-121a4.4 4.4 0 1 0 8.8 0 4.4 4.4 0 1 0-8.8 0zm0-11a4.4 4.4 0 1 0 8.8 0 4.4 4.4 0 1 0-8.8 0zm0 22a4.4 4.4 0 1 0 8.8 0 4.4 4.4 0 1 0-8.8 0zm0-33a4.4 4.4 0 1 0 8.8 0 4.4 4.4 0 1 0-8.8 0zm0 44a4.4 4.4 0 1 0 8.8 0 4.4 4.4 0 1 0-8.8 0zm0-55a4.4 4.4 0 1 0 8.8 0 4.4 4.4 0 1 0-8.8 0zm0 66a4.4 4.4 0 1 0 8.8 0 4.4 4.4 0 1 0-8.8 0zm0-77a4.4 4.4 0 1 0 8.8 0 4.4 4.4 0 1 0-8.8 0zm0 88a4.4 4.4 0 1 0 8.8 0 4.4 4.4 0 1 0-8.8 0zm0-99a4.4 4.4 0 1 0 8.8 0 4.4 4.4 0 1 0-8.8 0zm0 110a4.4 4.4 0 1 0 8.8 0 4.4 4.4 0 1 0-8.8 0zm11-55a4.4 4.4 0 1 0 8.8 0 4.4 4.4 0 1 0-8.8 0zm0-11a4.4 4.4 0 1 0 8.8 0 4.4 4.4 0 1 0-8.8 0zm0 22a4.4 4.4 0 1 0 8.8 0 4.4 4.4 0 1 0-8.8 0zm0-33a4.4 4.4 0 1 0 8.8 0 4.4 4.4 0 1 0-8.8 0zm0 44a4.4 4.4 0 1 0 8.8 0 4.4 4.4 0 1 0-8.8 0zm0-55a4.4 4.4 0 1 0 8.8 0 4.4 4.4 0 1 0-8.8 0zm0 66a4.4 4.4 0 1 0 8.8 0 4.4 4.4 0 1 0-8.8 0zm0-77a4.4 4.4 0 1 0 8.8 0 4.4 4.4 0 1 0-8.8 0zm0 88a4.4 4.4 0 1 0 8.8 0 4.4 4.4 0 1 0-8.8 0zm0-99a4.4 4.4 0 1 0 8.8 0 4.4 4.4 0 1 0-8.8 0zm0 110a4.4 4.4 0 1 0 8.8 0 4.4 4.4 0 1 0-8.8 0zm0-121a4.4 4.4 0 1 0 8.8 0 4.4 4.4 0 1 0-8.8 0zm0 132a4.4 4.4 0 1 0 8.8 0 4.4 4.4 0 1 0-8.8 0zm0-143a4.4 4.4 0 1 0 8.8 0 4.4 4.4 0 1 0-8.8 0zm0 154a4.4 4.4 0 1 0 8.8 0 4.4 4.4 0 1 0-8.8 0zm0-165a4.4 4.4 0 1 0 8.8 0 4.4 4.4 0 1 0-8.8 0zm0 176a4.4 4.4 0 1 0 8.8 0 4.4 4.4 0 1 0-8.8 0zm0-187a4.4 4.4 0 1 0 8.8 0 4.4 4.4 0 1 0-8.8 0zm0 198a4.4 4.4 0 1 0 8.8 0 4.4 4.4 0 1 0-8.8 0zm0-209a4.4 4.4 0 1 0 8.8 0 4.4 4.4 0 1 0-8.8 0zm0 220a4.4 4.4 0 1 0 8.8 0 4.4 4.4 0 1 0-8.8 0zm11-110a4.4 4.4 0 1 0 8.8 0 4.4 4.4 0 1 0-8.8 0zm0-11a4.4 4.4 0 1 0 8.8 0 4.4 4.4 0 1 0-8.8 0zm0 22a4.4 4.4 0 1 0 8.8 0 4.4 4.4 0 1 0-8.8 0zm0-33a4.4 4.4 0 1 0 8.8 0 4.4 4.4 0 1 0-8.8 0zm0 44a4.4 4.4 0 1 0 8.8 0 4.4 4.4 0 1 0-8.8 0zm0-55a4.4 4.4 0 1 0 8.8 0 4.4 4.4 0 1 0-8.8 0zm0 66a4.4 4.4 0 1 0 8.8 0 4.4 4.4 0 1 0-8.8 0zm0-77a4.4 4.4 0 1 0 8.8 0 4.4 4.4 0 1 0-8.8 0zm0 88a4.4 4.4 0 1 0 8.8 0 4.4 4.4 0 1 0-8.8 0zm0-99a4.4 4.4 0 1 0 8.8 0 4.4 4.4 0 1 0-8.8 0zm0 110a4.4 4.4 0 1 0 8.8 0 4.4 4.4 0 1 0-8.8 0zm0-121a4.4 4.4 0 1 0 8.8 0 4.4 4.4 0 1 0-8.8 0zm0 132a4.4 4.4 0 1 0 8.8 0 4.4 4.4 0 1 0-8.8 0zm0-143a4.4 4.4 0 1 0 8.8 0 4.4 4.4 0 1 0-8.8 0zm0 154a4.4 4.4 0 1 0 8.8 0 4.4 4.4 0 1 0-8.8 0zm0-165a4.4 4.4 0 1 0 8.8 0 4.4 4.4 0 1 0-8.8 0zm0 176a4.4 4.4 0 1 0 8.8 0 4.4 4.4 0 1 0-8.8 0zm0-187a4.4 4.4 0 1 0 8.8 0 4.4 4.4 0 1 0-8.8 0zm0 198a4.4 4.4 0 1 0 8.8 0 4.4 4.4 0 1 0-8.8 0zm0-209a4.4 4.4 0 1 0 8.8 0 4.4 4.4 0 1 0-8.8 0zm0 220a4.4 4.4 0 1 0 8.8 0 4.4 4.4 0 1 0-8.8 0zm0-231a4.4 4.4 0 1 0 8.8 0 4.4 4.4 0 1 0-8.8 0zm0 242a4.4 4.4 0 1 0 8.8 0 4.4 4.4 0 1 0-8.8 0zm0-253a4.4 4.4 0 1 0 8.8 0 4.4 4.4 0 1 0-8.8 0zm0 264a4.4 4.4 0 1 0 8.8 0 4.4 4.4 0 1 0-8.8 0zm0-275a4.4 4.4 0 1 0 8.8 0 4.4 4.4 0 1 0-8.8 0zm0 286a4.4 4.4 0 1 0 8.8 0 4.4 4.4 0 1 0-8.8 0zm0-297a4.4 4.4 0 1 0 8.8 0 4.4 4.4 0 1 0-8.8 0zm0 308a4.4 4.4 0 1 0 8.8 0 4.4 4.4 0 1 0-8.8 0zm11-154a4.4 4.4 0 1 0 8.8 0 4.4 4.4 0 1 0-8.8 0zm0-11a4.4 4.4 0 1 0 8.8 0 4.4 4.4 0 1 0-8.8 0zm0 22a4.4 4.4 0 1 0 8.8 0 4.4 4.4 0 1 0-8.8 0zm0-33a4.4 4.4 0 1 0 8.8 0 4.4 4.4 0 1 0-8.8 0zm0 44a4.4 4.4 0 1 0 8.8 0 4.4 4.4 0 1 0-8.8 0zm0-55a4.4 4.4 0 1 0 8.8 0 4.4 4.4 0 1 0-8.8 0zm0 66a4.4 4.4 0 1 0 8.8 0 4.4 4.4 0 1 0-8.8 0zm0-77a4.4 4.4 0 1 0 8.8 0 4.4 4.4 0 1 0-8.8 0zm0 88a4.4 4.4 0 1 0 8.8 0 4.4 4.4 0 1 0-8.8 0zm0-99a4.4 4.4 0 1 0 8.8 0 4.4 4.4 0 1 0-8.8 0zm0 110a4.4 4.4 0 1 0 8.8 0 4.4 4.4 0 1 0-8.8 0zm0-121a4.4 4.4 0 1 0 8.8 0 4.4 4.4 0 1 0-8.8 0zm0 132a4.4 4.4 0 1 0 8.8 0 4.4 4.4 0 1 0-8.8 0zm0-143a4.4 4.4 0 1 0 8.8 0 4.4 4.4 0 1 0-8.8 0zm0 154a4.4 4.4 0 1 0 8.8 0 4.4 4.4 0 1 0-8.8 0zm0-165a4.4 4.4 0 1 0 8.8 0 4.4 4.4 0 1 0-8.8 0zm0 176a4.4 4.4 0 1 0 8.8 0 4.4 4.4 0 1 0-8.8 0zm0-187a4.4 4.4 0 1 0 8.8 0 4.4 4.4 0 1 0-8.8 0zm0 198a4.4 4.4 0 1 0 8.8 0 4.4 4.4 0 1 0-8.8 0zm0-209a4.4 4.4 0 1 0 8.8 0 4.4 4.4 0 1 0-8.8 0zm0 220a4.4 4.4 0 1 0 8.8 0 4.4 4.4 0 1 0-8.8 0zm0-231a4.4 4.4 0 1 0 8.8 0 4.4 4.4 0 1 0-8.8 0zm0 242a4.4 4.4 0 1 0 8.8 0 4.4 4.4 0 1 0-8.8 0zm0-253a4.4 4.4 0 1 0 8.8 0 4.4 4.4 0 1 0-8.8 0zm0 264a4.4 4.4 0 1 0 8.8 0 4.4 4.4 0 1 0-8.8 0zm0-275a4.4 4.4 0 1 0 8.8 0 4.4 4.4 0 1 0-8.8 0zm0 286a4.4 4.4 0 1 0 8.8 0 4.4 4.4 0 1 0-8.8 0zm11-143a4.4 4.4 0 1 0 8.8 0 4.4 4.4 0 1 0-8.8 0zm0-11a4.4 4.4 0 1 0 8.8 0 4.4 4.4 0 1 0-8.8 0zm0 22a4.4 4.4 0 1 0 8.8 0 4.4 4.4 0 1 0-8.8 0zm0-33a4.4 4.4 0 1 0 8.8 0 4.4 4.4 0 1 0-8.8 0zm0 44a4.4 4.4 0 1 0 8.8 0 4.4 4.4 0 1 0-8.8 0zm0-55a4.4 4.4 0 1 0 8.8 0 4.4 4.4 0 1 0-8.8 0zm0 66a4.4 4.4 0 1 0 8.8 0 4.4 4.4 0 1 0-8.8 0zm0-77a4.4 4.4 0 1 0 8.8 0 4.4 4.4 0 1 0-8.8 0zm0 88a4.4 4.4 0 1 0 8.8 0 4.4 4.4 0 1 0-8.8 0zm0-99a4.4 4.4 0 1 0 8.8 0 4.4 4.4 0 1 0-8.8 0zm0 110a4.4 4.4 0 1 0 8.8 0 4.4 4.4 0 1 0-8.8 0zm0-121a4.4 4.4 0 1 0 8.8 0 4.4 4.4 0 1 0-8.8 0zm0 132a4.4 4.4 0 1 0 8.8 0 4.4 4.4 0 1 0-8.8 0zm0-143a4.4 4.4 0 1 0 8.8 0 4.4 4.4 0 1 0-8.8 0zm0 154a4.4 4.4 0 1 0 8.8 0 4.4 4.4 0 1 0-8.8 0zm0-165a4.4 4.4 0 1 0 8.8 0 4.4 4.4 0 1 0-8.8 0zm0 176a4.4 4.4 0 1 0 8.8 0 4.4 4.4 0 1 0-8.8 0zm0-187a4.4 4.4 0 1 0 8.8 0 4.4 4.4 0 1 0-8.8 0zm0 198a4.4 4.4 0 1 0 8.8 0 4.4 4.4 0 1 0-8.8 0zm0-209a4.4 4.4 0 1 0 8.8 0 4.4 4.4 0 1 0-8.8 0zm0 220a4.4 4.4 0 1 0 8.8 0 4.4 4.4 0 1 0-8.8 0zm0-231a4.4 4.4 0 1 0 8.8 0 4.4 4.4 0 1 0-8.8 0zm0 242a4.4 4.4 0 1 0 8.8 0 4.4 4.4 0 1 0-8.8 0zm0-253a4.4 4.4 0 1 0 8.8 0 4.4 4.4 0 1 0-8.8 0zm0 264a4.4 4.4 0 1 0 8.8 0 4.4 4.4 0 1 0-8.8 0zm0-275a4.4 4.4 0 1 0 8.8 0 4.4 4.4 0 1 0-8.8 0zm0 286a4.4 4.4 0 1 0 8.8 0 4.4 4.4 0 1 0-8.8 0zm0-297a4.4 4.4 0 1 0 8.8 0 4.4 4.4 0 1 0-8.8 0zm0 308a4.4 4.4 0 1 0 8.8 0 4.4 4.4 0 1 0-8.8 0zm11-154a4.4 4.4 0 1 0 8.8 0 4.4 4.4 0 1 0-8.8 0zm0-11a4.4 4.4 0 1 0 8.8 0 4.4 4.4 0 1 0-8.8 0zm0 22a4.4 4.4 0 1 0 8.8 0 4.4 4.4 0 1 0-8.8 0zm0-33a4.4 4.4 0 1 0 8.8 0 4.4 4.4 0 1 0-8.8 0zm0 44a4.4 4.4 0 1 0 8.8 0 4.4 4.4 0 1 0-8.8 0zm11-22a4.4 4.4 0 1 0 8.8 0 4.4 4.4 0 1 0-8.8 0zm0-11a4.4 4.4 0 1 0 8.8 0 4.4 4.4 0 1 0-8.8 0zm0 22a4.4 4.4 0 1 0 8.8 0 4.4 4.4 0 1 0-8.8 0zm0-33a4.4 4.4 0 1 0 8.8 0 4.4 4.4 0 1 0-8.8 0zm0 44a4.4 4.4 0 1 0 8.8 0 4.4 4.4 0 1 0-8.8 0zm0-55a4.4 4.4 0 1 0 8.8 0 4.4 4.4 0 1 0-8.8 0zm0 66a4.4 4.4 0 1 0 8.8 0 4.4 4.4 0 1 0-8.8 0zm0-77a4.4 4.4 0 1 0 8.8 0 4.4 4.4 0 1 0-8.8 0zm0 88a4.4 4.4 0 1 0 8.8 0 4.4 4.4 0 1 0-8.8 0zm0-99a4.4 4.4 0 1 0 8.8 0 4.4 4.4 0 1 0-8.8 0zm0 110a4.4 4.4 0 1 0 8.8 0 4.4 4.4 0 1 0-8.8 0zm0-121a4.4 4.4 0 1 0 8.8 0 4.4 4.4 0 1 0-8.8 0zm0 132a4.4 4.4 0 1 0 8.8 0 4.4 4.4 0 1 0-8.8 0zm0-143a4.4 4.4 0 1 0 8.8 0 4.4 4.4 0 1 0-8.8 0zm0 154a4.4 4.4 0 1 0 8.8 0 4.4 4.4 0 1 0-8.8 0zm0-165a4.4 4.4 0 1 0 8.8 0 4.4 4.4 0 1 0-8.8 0zm0 176a4.4 4.4 0 1 0 8.8 0 4.4 4.4 0 1 0-8.8 0zm0-187a4.4 4.4 0 1 0 8.8 0 4.4 4.4 0 1 0-8.8 0zm0 198a4.4 4.4 0 1 0 8.8 0 4.4 4.4 0 1 0-8.8 0zm0-209a4.4 4.4 0 1 0 8.8 0 4.4 4.4 0 1 0-8.8 0zm0 220a4.4 4.4 0 1 0 8.8 0 4.4 4.4 0 1 0-8.8 0zm0-231a4.4 4.4 0 1 0 8.8 0 4.4 4.4 0 1 0-8.8 0zm0 242a4.4 4.4 0 1 0 8.8 0 4.4 4.4 0 1 0-8.8 0zm0-253a4.4 4.4 0 1 0 8.8 0 4.4 4.4 0 1 0-8.8 0zm0 264a4.4 4.4 0 1 0 8.8 0 4.4 4.4 0 1 0-8.8 0zm0-275a4.4 4.4 0 1 0 8.8 0 4.4 4.4 0 1 0-8.8 0zm0 286a4.4 4.4 0 1 0 8.8 0 4.4 4.4 0 1 0-8.8 0zm11-143a4.4 4.4 0 1 0 8.8 0 4.4 4.4 0 1 0-8.8 0zm0-11a4.4 4.4 0 1 0 8.8 0 4.4 4.4 0 1 0-8.8 0zm0 22a4.4 4.4 0 1 0 8.8 0 4.4 4.4 0 1 0-8.8 0zm0-33a4.4 4.4 0 1 0 8.8 0 4.4 4.4 0 1 0-8.8 0zm0 44a4.4 4.4 0 1 0 8.8 0 4.4 4.4 0 1 0-8.8 0zm0-55a4.4 4.4 0 1 0 8.8 0 4.4 4.4 0 1 0-8.8 0zm0 66a4.4 4.4 0 1 0 8.8 0 4.4 4.4 0 1 0-8.8 0zm0-77a4.4 4.4 0 1 0 8.8 0 4.4 4.4 0 1 0-8.8 0zm0 88a4.4 4.4 0 1 0 8.8 0 4.4 4.4 0 1 0-8.8 0zm0-99a4.4 4.4 0 1 0 8.8 0 4.4 4.4 0 1 0-8.8 0zm0 110a4.4 4.4 0 1 0 8.8 0 4.4 4.4 0 1 0-8.8 0zm0-121a4.4 4.4 0 1 0 8.8 0 4.4 4.4 0 1 0-8.8 0zm0 132a4.4 4.4 0 1 0 8.8 0 4.4 4.4 0 1 0-8.8 0zm0-143a4.4 4.4 0 1 0 8.8 0 4.4 4.4 0 1 0-8.8 0zm0 154a4.4 4.4 0 1 0 8.8 0 4.4 4.4 0 1 0-8.8 0zm0-165a4.4 4.4 0 1 0 8.8 0 4.4 4.4 0 1 0-8.8 0zm0 176a4.4 4.4 0 1 0 8.8 0 4.4 4.4 0 1 0-8.8 0zm0-187a4.4 4.4 0 1 0 8.8 0 4.4 4.4 0 1 0-8.8 0zm0 198a4.4 4.4 0 1 0 8.8 0 4.4 4.4 0 1 0-8.8 0zm0-209a4.4 4.4 0 1 0 8.8 0 4.4 4.4 0 1 0-8.8 0zm0 220a4.4 4.4 0 1 0 8.8 0 4.4 4.4 0 1 0-8.8 0zm0-231a4.4 4.4 0 1 0 8.8 0 4.4 4.4 0 1 0-8.8 0zm0 242a4.4 4.4 0 1 0 8.8 0 4.4 4.4 0 1 0-8.8 0zm0-253a4.4 4.4 0 1 0 8.8 0 4.4 4.4 0 1 0-8.8 0zm0 264a4.4 4.4 0 1 0 8.8 0 4.4 4.4 0 1 0-8.8 0zm0-275a4.4 4.4 0 1 0 8.8 0 4.4 4.4 0 1 0-8.8 0zm0 286a4.4 4.4 0 1 0 8.8 0 4.4 4.4 0 1 0-8.8 0zm0-297a4.4 4.4 0 1 0 8.8 0 4.4 4.4 0 1 0-8.8 0zm0 308a4.4 4.4 0 1 0 8.8 0 4.4 4.4 0 1 0-8.8 0zm0-319a4.4 4.4 0 1 0 8.8 0 4.4 4.4 0 1 0-8.8 0zm0 330a4.4 4.4 0 1 0 8.8 0 4.4 4.4 0 1 0-8.8 0zm0-341a4.4 4.4 0 1 0 8.8 0 4.4 4.4 0 1 0-8.8 0zm0 352a4.4 4.4 0 1 0 8.8 0 4.4 4.4 0 1 0-8.8 0zm11-176a4.4 4.4 0 1 0 8.8 0 4.4 4.4 0 1 0-8.8 0zm0-11a4.4 4.4 0 1 0 8.8 0 4.4 4.4 0 1 0-8.8 0zm0 22a4.4 4.4 0 1 0 8.8 0 4.4 4.4 0 1 0-8.8 0zm0-33a4.4 4.4 0 1 0 8.8 0 4.4 4.4 0 1 0-8.8 0zm0 44a4.4 4.4 0 1 0 8.8 0 4.4 4.4 0 1 0-8.8 0zm0-55a4.4 4.4 0 1 0 8.8 0 4.4 4.4 0 1 0-8.8 0zm0 66a4.4 4.4 0 1 0 8.8 0 4.4 4.4 0 1 0-8.8 0zm0-77a4.4 4.4 0 1 0 8.8 0 4.4 4.4 0 1 0-8.8 0zm0 88a4.4 4.4 0 1 0 8.8 0 4.4 4.4 0 1 0-8.8 0zm0-99a4.4 4.4 0 1 0 8.8 0 4.4 4.4 0 1 0-8.8 0zm0 110a4.4 4.4 0 1 0 8.8 0 4.4 4.4 0 1 0-8.8 0zm0-121a4.4 4.4 0 1 0 8.8 0 4.4 4.4 0 1 0-8.8 0zm0 132a4.4 4.4 0 1 0 8.8 0 4.4 4.4 0 1 0-8.8 0zm0-143a4.4 4.4 0 1 0 8.8 0 4.4 4.4 0 1 0-8.8 0zm0 154a4.4 4.4 0 1 0 8.8 0 4.4 4.4 0 1 0-8.8 0zm0-165a4.4 4.4 0 1 0 8.8 0 4.4 4.4 0 1 0-8.8 0zm0 176a4.4 4.4 0 1 0 8.8 0 4.4 4.4 0 1 0-8.8 0zm11-88a4.4 4.4 0 1 0 8.8 0 4.4 4.4 0 1 0-8.8 0zm0-11a4.4 4.4 0 1 0 8.8 0 4.4 4.4 0 1 0-8.8 0zm0 22a4.4 4.4 0 1 0 8.8 0 4.4 4.4 0 1 0-8.8 0zm0-33a4.4 4.4 0 1 0 8.8 0 4.4 4.4 0 1 0-8.8 0zm0 44a4.4 4.4 0 1 0 8.8 0 4.4 4.4 0 1 0-8.8 0zm0-55a4.4 4.4 0 1 0 8.8 0 4.4 4.4 0 1 0-8.8 0zm0 66a4.4 4.4 0 1 0 8.8 0 4.4 4.4 0 1 0-8.8 0zm0-77a4.4 4.4 0 1 0 8.8 0 4.4 4.4 0 1 0-8.8 0zm0 88a4.4 4.4 0 1 0 8.8 0 4.4 4.4 0 1 0-8.8 0zm0-99a4.4 4.4 0 1 0 8.8 0 4.4 4.4 0 1 0-8.8 0zm0 110a4.4 4.4 0 1 0 8.8 0 4.4 4.4 0 1 0-8.8 0zm0-121a4.4 4.4 0 1 0 8.8 0 4.4 4.4 0 1 0-8.8 0zm0 132a4.4 4.4 0 1 0 8.8 0 4.4 4.4 0 1 0-8.8 0zm0-143a4.4 4.4 0 1 0 8.8 0 4.4 4.4 0 1 0-8.8 0zm0 154a4.4 4.4 0 1 0 8.8 0 4.4 4.4 0 1 0-8.8 0zm0-165a4.4 4.4 0 1 0 8.8 0 4.4 4.4 0 1 0-8.8 0zm0 176a4.4 4.4 0 1 0 8.8 0 4.4 4.4 0 1 0-8.8 0zm0-187a4.4 4.4 0 1 0 8.8 0 4.4 4.4 0 1 0-8.8 0zm0 198a4.4 4.4 0 1 0 8.8 0 4.4 4.4 0 1 0-8.8 0zm0-209a4.4 4.4 0 1 0 8.8 0 4.4 4.4 0 1 0-8.8 0zm0 220a4.4 4.4 0 1 0 8.8 0 4.4 4.4 0 1 0-8.8 0zm0-231a4.4 4.4 0 1 0 8.8 0 4.4 4.4 0 1 0-8.8 0zm0 242a4.4 4.4 0 1 0 8.8 0 4.4 4.4 0 1 0-8.8 0zm11-121a4.4 4.4 0 1 0 8.8 0 4.4 4.4 0 1 0-8.8 0zm0-11a4.4 4.4 0 1 0 8.8 0 4.4 4.4 0 1 0-8.8 0zm0 22a4.4 4.4 0 1 0 8.8 0 4.4 4.4 0 1 0-8.8 0zm0-33a4.4 4.4 0 1 0 8.8 0 4.4 4.4 0 1 0-8.8 0zm0 44a4.4 4.4 0 1 0 8.8 0 4.4 4.4 0 1 0-8.8 0zm0-55a4.4 4.4 0 1 0 8.8 0 4.4 4.4 0 1 0-8.8 0zm0 66a4.4 4.4 0 1 0 8.8 0 4.4 4.4 0 1 0-8.8 0zm0-77a4.4 4.4 0 1 0 8.8 0 4.4 4.4 0 1 0-8.8 0zm0 88a4.4 4.4 0 1 0 8.8 0 4.4 4.4 0 1 0-8.8 0zm0-99a4.4 4.4 0 1 0 8.8 0 4.4 4.4 0 1 0-8.8 0zm0 110a4.4 4.4 0 1 0 8.8 0 4.4 4.4 0 1 0-8.8 0zm0-121a4.4 4.4 0 1 0 8.8 0 4.4 4.4 0 1 0-8.8 0zm0 132a4.4 4.4 0 1 0 8.8 0 4.4 4.4 0 1 0-8.8 0zm0-143a4.4 4.4 0 1 0 8.8 0 4.4 4.4 0 1 0-8.8 0zm0 154a4.4 4.4 0 1 0 8.8 0 4.4 4.4 0 1 0-8.8 0zm0-165a4.4 4.4 0 1 0 8.8 0 4.4 4.4 0 1 0-8.8 0zm0 176a4.4 4.4 0 1 0 8.8 0 4.4 4.4 0 1 0-8.8 0zm0-187a4.4 4.4 0 1 0 8.8 0 4.4 4.4 0 1 0-8.8 0zm0 198a4.4 4.4 0 1 0 8.8 0 4.4 4.4 0 1 0-8.8 0zm0-209a4.4 4.4 0 1 0 8.8 0 4.4 4.4 0 1 0-8.8 0zm0 220a4.4 4.4 0 1 0 8.8 0 4.4 4.4 0 1 0-8.8 0zm0-231a4.4 4.4 0 1 0 8.8 0 4.4 4.4 0 1 0-8.8 0zm0 242a4.4 4.4 0 1 0 8.8 0 4.4 4.4 0 1 0-8.8 0zm0-253a4.4 4.4 0 1 0 8.8 0 4.4 4.4 0 1 0-8.8 0zm0 264a4.4 4.4 0 1 0 8.8 0 4.4 4.4 0 1 0-8.8 0zm0-275a4.4 4.4 0 1 0 8.8 0 4.4 4.4 0 1 0-8.8 0zm0 286a4.4 4.4 0 1 0 8.8 0 4.4 4.4 0 1 0-8.8 0zm0-297a4.4 4.4 0 1 0 8.8 0 4.4 4.4 0 1 0-8.8 0zm0 308a4.4 4.4 0 1 0 8.8 0 4.4 4.4 0 1 0-8.8 0zm0-319a4.4 4.4 0 1 0 8.8 0 4.4 4.4 0 1 0-8.8 0zm0 330a4.4 4.4 0 1 0 8.8 0 4.4 4.4 0 1 0-8.8 0zm11-165a4.4 4.4 0 1 0 8.8 0 4.4 4.4 0 1 0-8.8 0zm0-11a4.4 4.4 0 1 0 8.8 0 4.4 4.4 0 1 0-8.8 0zm0 22a4.4 4.4 0 1 0 8.8 0 4.4 4.4 0 1 0-8.8 0zm0-33a4.4 4.4 0 1 0 8.8 0 4.4 4.4 0 1 0-8.8 0zm0 44a4.4 4.4 0 1 0 8.8 0 4.4 4.4 0 1 0-8.8 0zm0-55a4.4 4.4 0 1 0 8.8 0 4.4 4.4 0 1 0-8.8 0zm0 66a4.4 4.4 0 1 0 8.8 0 4.4 4.4 0 1 0-8.8 0zm0-77a4.4 4.4 0 1 0 8.8 0 4.4 4.4 0 1 0-8.8 0zm0 88a4.4 4.4 0 1 0 8.8 0 4.4 4.4 0 1 0-8.8 0zm0-99a4.4 4.4 0 1 0 8.8 0 4.4 4.4 0 1 0-8.8 0zm0 110a4.4 4.4 0 1 0 8.8 0 4.4 4.4 0 1 0-8.8 0zm0-121a4.4 4.4 0 1 0 8.8 0 4.4 4.4 0 1 0-8.8 0zm0 132a4.4 4.4 0 1 0 8.8 0 4.4 4.4 0 1 0-8.8 0zm0-143a4.4 4.4 0 1 0 8.8 0 4.4 4.4 0 1 0-8.8 0zm0 154a4.4 4.4 0 1 0 8.8 0 4.4 4.4 0 1 0-8.8 0zm0-165a4.4 4.4 0 1 0 8.8 0 4.4 4.4 0 1 0-8.8 0zm0 176a4.4 4.4 0 1 0 8.8 0 4.4 4.4 0 1 0-8.8 0zm0-187a4.4 4.4 0 1 0 8.8 0 4.4 4.4 0 1 0-8.8 0zm0 198a4.4 4.4 0 1 0 8.8 0 4.4 4.4 0 1 0-8.8 0zm0-209a4.4 4.4 0 1 0 8.8 0 4.4 4.4 0 1 0-8.8 0zm0 220a4.4 4.4 0 1 0 8.8 0 4.4 4.4 0 1 0-8.8 0zm0-231a4.4 4.4 0 1 0 8.8 0 4.4 4.4 0 1 0-8.8 0zm0 242a4.4 4.4 0 1 0 8.8 0 4.4 4.4 0 1 0-8.8 0zm0-253a4.4 4.4 0 1 0 8.8 0 4.4 4.4 0 1 0-8.8 0zm0 264a4.4 4.4 0 1 0 8.8 0 4.4 4.4 0 1 0-8.8 0zm0-275a4.4 4.4 0 1 0 8.8 0 4.4 4.4 0 1 0-8.8 0zm0 286a4.4 4.4 0 1 0 8.8 0 4.4 4.4 0 1 0-8.8 0zm11-143a4.4 4.4 0 1 0 8.8 0 4.4 4.4 0 1 0-8.8 0zm0-11a4.4 4.4 0 1 0 8.8 0 4.4 4.4 0 1 0-8.8 0zm0 22a4.4 4.4 0 1 0 8.8 0 4.4 4.4 0 1 0-8.8 0zm0-33a4.4 4.4 0 1 0 8.8 0 4.4 4.4 0 1 0-8.8 0zm0 44a4.4 4.4 0 1 0 8.8 0 4.4 4.4 0 1 0-8.8 0zm0-55a4.4 4.4 0 1 0 8.8 0 4.4 4.4 0 1 0-8.8 0zm0 66a4.4 4.4 0 1 0 8.8 0 4.4 4.4 0 1 0-8.8 0zm0-77a4.4 4.4 0 1 0 8.8 0 4.4 4.4 0 1 0-8.8 0zm0 88a4.4 4.4 0 1 0 8.8 0 4.4 4.4 0 1 0-8.8 0zm0-99a4.4 4.4 0 1 0 8.8 0 4.4 4.4 0 1 0-8.8 0zm0 110a4.4 4.4 0 1 0 8.8 0 4.4 4.4 0 1 0-8.8 0zm0-121a4.4 4.4 0 1 0 8.8 0 4.4 4.4 0 1 0-8.8 0zm0 132a4.4 4.4 0 1 0 8.8 0 4.4 4.4 0 1 0-8.8 0zm0-143a4.4 4.4 0 1 0 8.8 0 4.4 4.4 0 1 0-8.8 0zm0 154a4.4 4.4 0 1 0 8.8 0 4.4 4.4 0 1 0-8.8 0zm0-165a4.4 4.4 0 1 0 8.8 0 4.4 4.4 0 1 0-8.8 0zm0 176a4.4 4.4 0 1 0 8.8 0 4.4 4.4 0 1 0-8.8 0zm0-187a4.4 4.4 0 1 0 8.8 0 4.4 4.4 0 1 0-8.8 0zm0 198a4.4 4.4 0 1 0 8.8 0 4.4 4.4 0 1 0-8.8 0zm11-99a4.4 4.4 0 1 0 8.8 0 4.4 4.4 0 1 0-8.8 0zm0-11a4.4 4.4 0 1 0 8.8 0 4.4 4.4 0 1 0-8.8 0zm0 22a4.4 4.4 0 1 0 8.8 0 4.4 4.4 0 1 0-8.8 0zm0-33a4.4 4.4 0 1 0 8.8 0 4.4 4.4 0 1 0-8.8 0zm0 44a4.4 4.4 0 1 0 8.8 0 4.4 4.4 0 1 0-8.8 0zm0-55a4.4 4.4 0 1 0 8.8 0 4.4 4.4 0 1 0-8.8 0zm0 66a4.4 4.4 0 1 0 8.8 0 4.4 4.4 0 1 0-8.8 0zm0-77a4.4 4.4 0 1 0 8.8 0 4.4 4.4 0 1 0-8.8 0zm0 88a4.4 4.4 0 1 0 8.8 0 4.4 4.4 0 1 0-8.8 0zm0-99a4.4 4.4 0 1 0 8.8 0 4.4 4.4 0 1 0-8.8 0zm0 110a4.4 4.4 0 1 0 8.8 0 4.4 4.4 0 1 0-8.8 0zm0-121a4.4 4.4 0 1 0 8.8 0 4.4 4.4 0 1 0-8.8 0zm0 132a4.4 4.4 0 1 0 8.8 0 4.4 4.4 0 1 0-8.8 0zm0-143a4.4 4.4 0 1 0 8.8 0 4.4 4.4 0 1 0-8.8 0zm0 154a4.4 4.4 0 1 0 8.8 0 4.4 4.4 0 1 0-8.8 0zm0-165a4.4 4.4 0 1 0 8.8 0 4.4 4.4 0 1 0-8.8 0zm0 176a4.4 4.4 0 1 0 8.8 0 4.4 4.4 0 1 0-8.8 0zm0-187a4.4 4.4 0 1 0 8.8 0 4.4 4.4 0 1 0-8.8 0zm0 198a4.4 4.4 0 1 0 8.8 0 4.4 4.4 0 1 0-8.8 0zm0-209a4.4 4.4 0 1 0 8.8 0 4.4 4.4 0 1 0-8.8 0zm0 220a4.4 4.4 0 1 0 8.8 0 4.4 4.4 0 1 0-8.8 0zm11-110a4.4 4.4 0 1 0 8.8 0 4.4 4.4 0 1 0-8.8 0zm0-11a4.4 4.4 0 1 0 8.8 0 4.4 4.4 0 1 0-8.8 0zm0 22a4.4 4.4 0 1 0 8.8 0 4.4 4.4 0 1 0-8.8 0zm0-33a4.4 4.4 0 1 0 8.8 0 4.4 4.4 0 1 0-8.8 0zm0 44a4.4 4.4 0 1 0 8.8 0 4.4 4.4 0 1 0-8.8 0zm0-55a4.4 4.4 0 1 0 8.8 0 4.4 4.4 0 1 0-8.8 0zm0 66a4.4 4.4 0 1 0 8.8 0 4.4 4.4 0 1 0-8.8 0zm0-77a4.4 4.4 0 1 0 8.8 0 4.4 4.4 0 1 0-8.8 0zm0 88a4.4 4.4 0 1 0 8.8 0 4.4 4.4 0 1 0-8.8 0zm0-99a4.4 4.4 0 1 0 8.8 0 4.4 4.4 0 1 0-8.8 0zm0 110a4.4 4.4 0 1 0 8.8 0 4.4 4.4 0 1 0-8.8 0zm0-121a4.4 4.4 0 1 0 8.8 0 4.4 4.4 0 1 0-8.8 0zm0 132a4.4 4.4 0 1 0 8.8 0 4.4 4.4 0 1 0-8.8 0zm0-143a4.4 4.4 0 1 0 8.8 0 4.4 4.4 0 1 0-8.8 0zm0 154a4.4 4.4 0 1 0 8.8 0 4.4 4.4 0 1 0-8.8 0zm0-165a4.4 4.4 0 1 0 8.8 0 4.4 4.4 0 1 0-8.8 0zm0 176a4.4 4.4 0 1 0 8.8 0 4.4 4.4 0 1 0-8.8 0zm0-187a4.4 4.4 0 1 0 8.8 0 4.4 4.4 0 1 0-8.8 0zm0 198a4.4 4.4 0 1 0 8.8 0 4.4 4.4 0 1 0-8.8 0zm0-209a4.4 4.4 0 1 0 8.8 0 4.4 4.4 0 1 0-8.8 0zm0 220a4.4 4.4 0 1 0 8.8 0 4.4 4.4 0 1 0-8.8 0zm0-231a4.4 4.4 0 1 0 8.8 0 4.4 4.4 0 1 0-8.8 0zm0 242a4.4 4.4 0 1 0 8.8 0 4.4 4.4 0 1 0-8.8 0zm0-253a4.4 4.4 0 1 0 8.8 0 4.4 4.4 0 1 0-8.8 0zm0 264a4.4 4.4 0 1 0 8.8 0 4.4 4.4 0 1 0-8.8 0zm0-275a4.4 4.4 0 1 0 8.8 0 4.4 4.4 0 1 0-8.8 0zm0 286a4.4 4.4 0 1 0 8.8 0 4.4 4.4 0 1 0-8.8 0zm0-297a4.4 4.4 0 1 0 8.8 0 4.4 4.4 0 1 0-8.8 0zm0 308a4.4 4.4 0 1 0 8.8 0 4.4 4.4 0 1 0-8.8 0zm11-154a4.4 4.4 0 1 0 8.8 0 4.4 4.4 0 1 0-8.8 0zm0-11a4.4 4.4 0 1 0 8.8 0 4.4 4.4 0 1 0-8.8 0zm0 22a4.4 4.4 0 1 0 8.8 0 4.4 4.4 0 1 0-8.8 0zm0-33a4.4 4.4 0 1 0 8.8 0 4.4 4.4 0 1 0-8.8 0zm0 44a4.4 4.4 0 1 0 8.8 0 4.4 4.4 0 1 0-8.8 0zm0-55a4.4 4.4 0 1 0 8.8 0 4.4 4.4 0 1 0-8.8 0zm0 66a4.4 4.4 0 1 0 8.8 0 4.4 4.4 0 1 0-8.8 0zm11-33a4.4 4.4 0 1 0 8.8 0 4.4 4.4 0 1 0-8.8 0zm0-11a4.4 4.4 0 1 0 8.8 0 4.4 4.4 0 1 0-8.8 0zm0 22a4.4 4.4 0 1 0 8.8 0 4.4 4.4 0 1 0-8.8 0zm0-33a4.4 4.4 0 1 0 8.8 0 4.4 4.4 0 1 0-8.8 0zm0 44a4.4 4.4 0 1 0 8.8 0 4.4 4.4 0 1 0-8.8 0zm0-55a4.4 4.4 0 1 0 8.8 0 4.4 4.4 0 1 0-8.8 0zm0 66a4.4 4.4 0 1 0 8.8 0 4.4 4.4 0 1 0-8.8 0zm0-77a4.4 4.4 0 1 0 8.8 0 4.4 4.4 0 1 0-8.8 0zm0 88a4.4 4.4 0 1 0 8.8 0 4.4 4.4 0 1 0-8.8 0zm0-99a4.4 4.4 0 1 0 8.8 0 4.4 4.4 0 1 0-8.8 0zm0 110a4.4 4.4 0 1 0 8.8 0 4.4 4.4 0 1 0-8.8 0zm0-121a4.4 4.4 0 1 0 8.8 0 4.4 4.4 0 1 0-8.8 0zm0 132a4.4 4.4 0 1 0 8.8 0 4.4 4.4 0 1 0-8.8 0zm0-143a4.4 4.4 0 1 0 8.8 0 4.4 4.4 0 1 0-8.8 0zm0 154a4.4 4.4 0 1 0 8.8 0 4.4 4.4 0 1 0-8.8 0zm0-165a4.4 4.4 0 1 0 8.8 0 4.4 4.4 0 1 0-8.8 0zm0 176a4.4 4.4 0 1 0 8.8 0 4.4 4.4 0 1 0-8.8 0zm0-187a4.4 4.4 0 1 0 8.8 0 4.4 4.4 0 1 0-8.8 0zm0 198a4.4 4.4 0 1 0 8.8 0 4.4 4.4 0 1 0-8.8 0zm0-209a4.4 4.4 0 1 0 8.8 0 4.4 4.4 0 1 0-8.8 0zm0 220a4.4 4.4 0 1 0 8.8 0 4.4 4.4 0 1 0-8.8 0zm0-231a4.4 4.4 0 1 0 8.8 0 4.4 4.4 0 1 0-8.8 0zm0 242a4.4 4.4 0 1 0 8.8 0 4.4 4.4 0 1 0-8.8 0zm0-253a4.4 4.4 0 1 0 8.8 0 4.4 4.4 0 1 0-8.8 0zm0 264a4.4 4.4 0 1 0 8.8 0 4.4 4.4 0 1 0-8.8 0zm0-275a4.4 4.4 0 1 0 8.8 0 4.4 4.4 0 1 0-8.8 0zm0 286a4.4 4.4 0 1 0 8.8 0 4.4 4.4 0 1 0-8.8 0zm0-297a4.4 4.4 0 1 0 8.8 0 4.4 4.4 0 1 0-8.8 0zm0 308a4.4 4.4 0 1 0 8.8 0 4.4 4.4 0 1 0-8.8 0zm0-319a4.4 4.4 0 1 0 8.8 0 4.4 4.4 0 1 0-8.8 0zm0 330a4.4 4.4 0 1 0 8.8 0 4.4 4.4 0 1 0-8.8 0zm11-165a4.4 4.4 0 1 0 8.8 0 4.4 4.4 0 1 0-8.8 0zm0-11a4.4 4.4 0 1 0 8.8 0 4.4 4.4 0 1 0-8.8 0zm0 22a4.4 4.4 0 1 0 8.8 0 4.4 4.4 0 1 0-8.8 0zm0-33a4.4 4.4 0 1 0 8.8 0 4.4 4.4 0 1 0-8.8 0zm0 44a4.4 4.4 0 1 0 8.8 0 4.4 4.4 0 1 0-8.8 0zm0-55a4.4 4.4 0 1 0 8.8 0 4.4 4.4 0 1 0-8.8 0zm0 66a4.4 4.4 0 1 0 8.8 0 4.4 4.4 0 1 0-8.8 0zm0-77a4.4 4.4 0 1 0 8.8 0 4.4 4.4 0 1 0-8.8 0zm0 88a4.4 4.4 0 1 0 8.8 0 4.4 4.4 0 1 0-8.8 0zm0-99a4.4 4.4 0 1 0 8.8 0 4.4 4.4 0 1 0-8.8 0zm0 110a4.4 4.4 0 1 0 8.8 0 4.4 4.4 0 1 0-8.8 0zm0-121a4.4 4.4 0 1 0 8.8 0 4.4 4.4 0 1 0-8.8 0zm0 132a4.4 4.4 0 1 0 8.8 0 4.4 4.4 0 1 0-8.8 0zm0-143a4.4 4.4 0 1 0 8.8 0 4.4 4.4 0 1 0-8.8 0zm0 154a4.4 4.4 0 1 0 8.8 0 4.4 4.4 0 1 0-8.8 0zm0-165a4.4 4.4 0 1 0 8.8 0 4.4 4.4 0 1 0-8.8 0zm0 176a4.4 4.4 0 1 0 8.8 0 4.4 4.4 0 1 0-8.8 0zm11-88a4.4 4.4 0 1 0 8.8 0 4.4 4.4 0 1 0-8.8 0zm0-11a4.4 4.4 0 1 0 8.8 0 4.4 4.4 0 1 0-8.8 0zm0 22a4.4 4.4 0 1 0 8.8 0 4.4 4.4 0 1 0-8.8 0zm0-33a4.4 4.4 0 1 0 8.8 0 4.4 4.4 0 1 0-8.8 0zm0 44a4.4 4.4 0 1 0 8.8 0 4.4 4.4 0 1 0-8.8 0zm0-55a4.4 4.4 0 1 0 8.8 0 4.4 4.4 0 1 0-8.8 0zm0 66a4.4 4.4 0 1 0 8.8 0 4.4 4.4 0 1 0-8.8 0zm0-77a4.4 4.4 0 1 0 8.8 0 4.4 4.4 0 1 0-8.8 0zm0 88a4.4 4.4 0 1 0 8.8 0 4.4 4.4 0 1 0-8.8 0zm0-99a4.4 4.4 0 1 0 8.8 0 4.4 4.4 0 1 0-8.8 0zm0 110a4.4 4.4 0 1 0 8.8 0 4.4 4.4 0 1 0-8.8 0zm11-55a4.4 4.4 0 1 0 8.8 0 4.4 4.4 0 1 0-8.8 0zm0-11a4.4 4.4 0 1 0 8.8 0 4.4 4.4 0 1 0-8.8 0zm0 22a4.4 4.4 0 1 0 8.8 0 4.4 4.4 0 1 0-8.8 0zm0-33a4.4 4.4 0 1 0 8.8 0 4.4 4.4 0 1 0-8.8 0zm0 44a4.4 4.4 0 1 0 8.8 0 4.4 4.4 0 1 0-8.8 0zm11-22a4.4 4.4 0 1 0 8.8 0 4.4 4.4 0 1 0-8.8 0zm0-11a4.4 4.4 0 1 0 8.8 0 4.4 4.4 0 1 0-8.8 0zm0 22a4.4 4.4 0 1 0 8.8 0 4.4 4.4 0 1 0-8.8 0zm0-33a4.4 4.4 0 1 0 8.8 0 4.4 4.4 0 1 0-8.8 0zm0 44a4.4 4.4 0 1 0 8.8 0 4.4 4.4 0 1 0-8.8 0zm0-55a4.4 4.4 0 1 0 8.8 0 4.4 4.4 0 1 0-8.8 0zm0 66a4.4 4.4 0 1 0 8.8 0 4.4 4.4 0 1 0-8.8 0zm0-77a4.4 4.4 0 1 0 8.8 0 4.4 4.4 0 1 0-8.8 0zm0 88a4.4 4.4 0 1 0 8.8 0 4.4 4.4 0 1 0-8.8 0zm0-99a4.4 4.4 0 1 0 8.8 0 4.4 4.4 0 1 0-8.8 0zm0 110a4.4 4.4 0 1 0 8.8 0 4.4 4.4 0 1 0-8.8 0zm0-121a4.4 4.4 0 1 0 8.8 0 4.4 4.4 0 1 0-8.8 0zm0 132a4.4 4.4 0 1 0 8.8 0 4.4 4.4 0 1 0-8.8 0zm0-143a4.4 4.4 0 1 0 8.8 0 4.4 4.4 0 1 0-8.8 0zm0 154a4.4 4.4 0 1 0 8.8 0 4.4 4.4 0 1 0-8.8 0zm0-165a4.4 4.4 0 1 0 8.8 0 4.4 4.4 0 1 0-8.8 0zm0 176a4.4 4.4 0 1 0 8.8 0 4.4 4.4 0 1 0-8.8 0zm0-187a4.4 4.4 0 1 0 8.8 0 4.4 4.4 0 1 0-8.8 0zm0 198a4.4 4.4 0 1 0 8.8 0 4.4 4.4 0 1 0-8.8 0zm11-99a4.4 4.4 0 1 0 8.8 0 4.4 4.4 0 1 0-8.8 0zm0-11a4.4 4.4 0 1 0 8.8 0 4.4 4.4 0 1 0-8.8 0zm0 22a4.4 4.4 0 1 0 8.8 0 4.4 4.4 0 1 0-8.8 0zm11-11a4.4 4.4 0 1 0 8.8 0 4.4 4.4 0 1 0-8.8 0zm0-11a4.4 4.4 0 1 0 8.8 0 4.4 4.4 0 1 0-8.8 0zm0 22a4.4 4.4 0 1 0 8.8 0 4.4 4.4 0 1 0-8.8 0zm0-33a4.4 4.4 0 1 0 8.8 0 4.4 4.4 0 1 0-8.8 0zm0 44a4.4 4.4 0 1 0 8.8 0 4.4 4.4 0 1 0-8.8 0zm0-55a4.4 4.4 0 1 0 8.8 0 4.4 4.4 0 1 0-8.8 0zm0 66a4.4 4.4 0 1 0 8.8 0 4.4 4.4 0 1 0-8.8 0zm0-77a4.4 4.4 0 1 0 8.8 0 4.4 4.4 0 1 0-8.8 0zm0 88a4.4 4.4 0 1 0 8.8 0 4.4 4.4 0 1 0-8.8 0zm0-99a4.4 4.4 0 1 0 8.8 0 4.4 4.4 0 1 0-8.8 0zm0 110a4.4 4.4 0 1 0 8.8 0 4.4 4.4 0 1 0-8.8 0zm0-121a4.4 4.4 0 1 0 8.8 0 4.4 4.4 0 1 0-8.8 0zm0 132a4.4 4.4 0 1 0 8.8 0 4.4 4.4 0 1 0-8.8 0zm0-143a4.4 4.4 0 1 0 8.8 0 4.4 4.4 0 1 0-8.8 0zm0 154a4.4 4.4 0 1 0 8.8 0 4.4 4.4 0 1 0-8.8 0zm0-165a4.4 4.4 0 1 0 8.8 0 4.4 4.4 0 1 0-8.8 0zm0 176a4.4 4.4 0 1 0 8.8 0 4.4 4.4 0 1 0-8.8 0zm0-187a4.4 4.4 0 1 0 8.8 0 4.4 4.4 0 1 0-8.8 0zm0 198a4.4 4.4 0 1 0 8.8 0 4.4 4.4 0 1 0-8.8 0zm0-209a4.4 4.4 0 1 0 8.8 0 4.4 4.4 0 1 0-8.8 0zm0 220a4.4 4.4 0 1 0 8.8 0 4.4 4.4 0 1 0-8.8 0zm0-231a4.4 4.4 0 1 0 8.8 0 4.4 4.4 0 1 0-8.8 0zm0 242a4.4 4.4 0 1 0 8.8 0 4.4 4.4 0 1 0-8.8 0zm0-253a4.4 4.4 0 1 0 8.8 0 4.4 4.4 0 1 0-8.8 0zm0 264a4.4 4.4 0 1 0 8.8 0 4.4 4.4 0 1 0-8.8 0zm0-275a4.4 4.4 0 1 0 8.8 0 4.4 4.4 0 1 0-8.8 0zm0 286a4.4 4.4 0 1 0 8.8 0 4.4 4.4 0 1 0-8.8 0zm0-297a4.4 4.4 0 1 0 8.8 0 4.4 4.4 0 1 0-8.8 0zm0 308a4.4 4.4 0 1 0 8.8 0 4.4 4.4 0 1 0-8.8 0zm0-319a4.4 4.4 0 1 0 8.8 0 4.4 4.4 0 1 0-8.8 0zm0 330a4.4 4.4 0 1 0 8.8 0 4.4 4.4 0 1 0-8.8 0zm0-341a4.4 4.4 0 1 0 8.8 0 4.4 4.4 0 1 0-8.8 0zm0 352a4.4 4.4 0 1 0 8.8 0 4.4 4.4 0 1 0-8.8 0zm0-363a4.4 4.4 0 1 0 8.8 0 4.4 4.4 0 1 0-8.8 0zm0 374a4.4 4.4 0 1 0 8.8 0 4.4 4.4 0 1 0-8.8 0zm11-187a4.4 4.4 0 1 0 8.8 0 4.4 4.4 0 1 0-8.8 0zm0-11a4.4 4.4 0 1 0 8.8 0 4.4 4.4 0 1 0-8.8 0zm0 22a4.4 4.4 0 1 0 8.8 0 4.4 4.4 0 1 0-8.8 0zm0-33a4.4 4.4 0 1 0 8.8 0 4.4 4.4 0 1 0-8.8 0zm0 44a4.4 4.4 0 1 0 8.8 0 4.4 4.4 0 1 0-8.8 0zm0-55a4.4 4.4 0 1 0 8.8 0 4.4 4.4 0 1 0-8.8 0zm0 66a4.4 4.4 0 1 0 8.8 0 4.4 4.4 0 1 0-8.8 0zm0-77a4.4 4.4 0 1 0 8.8 0 4.4 4.4 0 1 0-8.8 0zm0 88a4.4 4.4 0 1 0 8.8 0 4.4 4.4 0 1 0-8.8 0zm0-99a4.4 4.4 0 1 0 8.8 0 4.4 4.4 0 1 0-8.8 0zm0 110a4.4 4.4 0 1 0 8.8 0 4.4 4.4 0 1 0-8.8 0zm0-121a4.4 4.4 0 1 0 8.8 0 4.4 4.4 0 1 0-8.8 0zm0 132a4.4 4.4 0 1 0 8.8 0 4.4 4.4 0 1 0-8.8 0zm0-143a4.4 4.4 0 1 0 8.8 0 4.4 4.4 0 1 0-8.8 0zm0 154a4.4 4.4 0 1 0 8.8 0 4.4 4.4 0 1 0-8.8 0zm0-165a4.4 4.4 0 1 0 8.8 0 4.4 4.4 0 1 0-8.8 0zm0 176a4.4 4.4 0 1 0 8.8 0 4.4 4.4 0 1 0-8.8 0zm0-187a4.4 4.4 0 1 0 8.8 0 4.4 4.4 0 1 0-8.8 0zm0 198a4.4 4.4 0 1 0 8.8 0 4.4 4.4 0 1 0-8.8 0zm0-209a4.4 4.4 0 1 0 8.8 0 4.4 4.4 0 1 0-8.8 0zm0 220a4.4 4.4 0 1 0 8.8 0 4.4 4.4 0 1 0-8.8 0zm11-110a4.4 4.4 0 1 0 8.8 0 4.4 4.4 0 1 0-8.8 0zm0-11a4.4 4.4 0 1 0 8.8 0 4.4 4.4 0 1 0-8.8 0zm0 22a4.4 4.4 0 1 0 8.8 0 4.4 4.4 0 1 0-8.8 0zm0-33a4.4 4.4 0 1 0 8.8 0 4.4 4.4 0 1 0-8.8 0zm0 44a4.4 4.4 0 1 0 8.8 0 4.4 4.4 0 1 0-8.8 0zm0-55a4.4 4.4 0 1 0 8.8 0 4.4 4.4 0 1 0-8.8 0zm0 66a4.4 4.4 0 1 0 8.8 0 4.4 4.4 0 1 0-8.8 0zm0-77a4.4 4.4 0 1 0 8.8 0 4.4 4.4 0 1 0-8.8 0zm0 88a4.4 4.4 0 1 0 8.8 0 4.4 4.4 0 1 0-8.8 0zm0-99a4.4 4.4 0 1 0 8.8 0 4.4 4.4 0 1 0-8.8 0zm0 110a4.4 4.4 0 1 0 8.8 0 4.4 4.4 0 1 0-8.8 0zm0-121a4.4 4.4 0 1 0 8.8 0 4.4 4.4 0 1 0-8.8 0zm0 132a4.4 4.4 0 1 0 8.8 0 4.4 4.4 0 1 0-8.8 0zm0-143a4.4 4.4 0 1 0 8.8 0 4.4 4.4 0 1 0-8.8 0zm0 154a4.4 4.4 0 1 0 8.8 0 4.4 4.4 0 1 0-8.8 0zm0-165a4.4 4.4 0 1 0 8.8 0 4.4 4.4 0 1 0-8.8 0zm0 176a4.4 4.4 0 1 0 8.8 0 4.4 4.4 0 1 0-8.8 0zm0-187a4.4 4.4 0 1 0 8.8 0 4.4 4.4 0 1 0-8.8 0zm0 198a4.4 4.4 0 1 0 8.8 0 4.4 4.4 0 1 0-8.8 0zm0-209a4.4 4.4 0 1 0 8.8 0 4.4 4.4 0 1 0-8.8 0zm0 220a4.4 4.4 0 1 0 8.8 0 4.4 4.4 0 1 0-8.8 0zm0-231a4.4 4.4 0 1 0 8.8 0 4.4 4.4 0 1 0-8.8 0zm0 242a4.4 4.4 0 1 0 8.8 0 4.4 4.4 0 1 0-8.8 0zm0-253a4.4 4.4 0 1 0 8.8 0 4.4 4.4 0 1 0-8.8 0zm0 264a4.4 4.4 0 1 0 8.8 0 4.4 4.4 0 1 0-8.8 0zm0-275a4.4 4.4 0 1 0 8.8 0 4.4 4.4 0 1 0-8.8 0zm0 286a4.4 4.4 0 1 0 8.8 0 4.4 4.4 0 1 0-8.8 0zm0-297a4.4 4.4 0 1 0 8.8 0 4.4 4.4 0 1 0-8.8 0zm0 308a4.4 4.4 0 1 0 8.8 0 4.4 4.4 0 1 0-8.8 0zm0-319a4.4 4.4 0 1 0 8.8 0 4.4 4.4 0 1 0-8.8 0zm0 330a4.4 4.4 0 1 0 8.8 0 4.4 4.4 0 1 0-8.8 0zm0-341a4.4 4.4 0 1 0 8.8 0 4.4 4.4 0 1 0-8.8 0zm0 352a4.4 4.4 0 1 0 8.8 0 4.4 4.4 0 1 0-8.8 0zm11-176a4.4 4.4 0 1 0 8.8 0 4.4 4.4 0 1 0-8.8 0zm0-11a4.4 4.4 0 1 0 8.8 0 4.4 4.4 0 1 0-8.8 0zm0 22a4.4 4.4 0 1 0 8.8 0 4.4 4.4 0 1 0-8.8 0zm0-33a4.4 4.4 0 1 0 8.8 0 4.4 4.4 0 1 0-8.8 0zm0 44a4.4 4.4 0 1 0 8.8 0 4.4 4.4 0 1 0-8.8 0zm0-55a4.4 4.4 0 1 0 8.8 0 4.4 4.4 0 1 0-8.8 0zm0 66a4.4 4.4 0 1 0 8.8 0 4.4 4.4 0 1 0-8.8 0zm0-77a4.4 4.4 0 1 0 8.8 0 4.4 4.4 0 1 0-8.8 0zm0 88a4.4 4.4 0 1 0 8.8 0 4.4 4.4 0 1 0-8.8 0zm0-99a4.4 4.4 0 1 0 8.8 0 4.4 4.4 0 1 0-8.8 0zm0 110a4.4 4.4 0 1 0 8.8 0 4.4 4.4 0 1 0-8.8 0zm11-55a4.4 4.4 0 1 0 8.8 0 4.4 4.4 0 1 0-8.8 0zm0-11a4.4 4.4 0 1 0 8.8 0 4.4 4.4 0 1 0-8.8 0zm0 22a4.4 4.4 0 1 0 8.8 0 4.4 4.4 0 1 0-8.8 0zm0-33a4.4 4.4 0 1 0 8.8 0 4.4 4.4 0 1 0-8.8 0zm0 44a4.4 4.4 0 1 0 8.8 0 4.4 4.4 0 1 0-8.8 0zm0-55a4.4 4.4 0 1 0 8.8 0 4.4 4.4 0 1 0-8.8 0zm0 66a4.4 4.4 0 1 0 8.8 0 4.4 4.4 0 1 0-8.8 0zm0-77a4.4 4.4 0 1 0 8.8 0 4.4 4.4 0 1 0-8.8 0zm0 88a4.4 4.4 0 1 0 8.8 0 4.4 4.4 0 1 0-8.8 0zm0-99a4.4 4.4 0 1 0 8.8 0 4.4 4.4 0 1 0-8.8 0zm0 110a4.4 4.4 0 1 0 8.8 0 4.4 4.4 0 1 0-8.8 0zm0-121a4.4 4.4 0 1 0 8.8 0 4.4 4.4 0 1 0-8.8 0zm0 132a4.4 4.4 0 1 0 8.8 0 4.4 4.4 0 1 0-8.8 0zm11-66a4.4 4.4 0 1 0 8.8 0 4.4 4.4 0 1 0-8.8 0zm0-11a4.4 4.4 0 1 0 8.8 0 4.4 4.4 0 1 0-8.8 0zm0 22a4.4 4.4 0 1 0 8.8 0 4.4 4.4 0 1 0-8.8 0zm0-33a4.4 4.4 0 1 0 8.8 0 4.4 4.4 0 1 0-8.8 0zm0 44a4.4 4.4 0 1 0 8.8 0 4.4 4.4 0 1 0-8.8 0zm0-55a4.4 4.4 0 1 0 8.8 0 4.4 4.4 0 1 0-8.8 0zm0 66a4.4 4.4 0 1 0 8.8 0 4.4 4.4 0 1 0-8.8 0zm0-77a4.4 4.4 0 1 0 8.8 0 4.4 4.4 0 1 0-8.8 0zm0 88a4.4 4.4 0 1 0 8.8 0 4.4 4.4 0 1 0-8.8 0zm0-99a4.4 4.4 0 1 0 8.8 0 4.4 4.4 0 1 0-8.8 0zm0 110a4.4 4.4 0 1 0 8.8 0 4.4 4.4 0 1 0-8.8 0zm0-121a4.4 4.4 0 1 0 8.8 0 4.4 4.4 0 1 0-8.8 0zm0 132a4.4 4.4 0 1 0 8.8 0 4.4 4.4 0 1 0-8.8 0zm0-143a4.4 4.4 0 1 0 8.8 0 4.4 4.4 0 1 0-8.8 0zm0 154a4.4 4.4 0 1 0 8.8 0 4.4 4.4 0 1 0-8.8 0zm0-165a4.4 4.4 0 1 0 8.8 0 4.4 4.4 0 1 0-8.8 0zm0 176a4.4 4.4 0 1 0 8.8 0 4.4 4.4 0 1 0-8.8 0zm0-187a4.4 4.4 0 1 0 8.8 0 4.4 4.4 0 1 0-8.8 0zm0 198a4.4 4.4 0 1 0 8.8 0 4.4 4.4 0 1 0-8.8 0zm0-209a4.4 4.4 0 1 0 8.8 0 4.4 4.4 0 1 0-8.8 0zm0 220a4.4 4.4 0 1 0 8.8 0 4.4 4.4 0 1 0-8.8 0zm0-231a4.4 4.4 0 1 0 8.8 0 4.4 4.4 0 1 0-8.8 0zm0 242a4.4 4.4 0 1 0 8.8 0 4.4 4.4 0 1 0-8.8 0zm0-253a4.4 4.4 0 1 0 8.8 0 4.4 4.4 0 1 0-8.8 0zm0 264a4.4 4.4 0 1 0 8.8 0 4.4 4.4 0 1 0-8.8 0zm0-275a4.4 4.4 0 1 0 8.8 0 4.4 4.4 0 1 0-8.8 0zm0 286a4.4 4.4 0 1 0 8.8 0 4.4 4.4 0 1 0-8.8 0zm0-297a4.4 4.4 0 1 0 8.8 0 4.4 4.4 0 1 0-8.8 0zm0 308a4.4 4.4 0 1 0 8.8 0 4.4 4.4 0 1 0-8.8 0zm0-319a4.4 4.4 0 1 0 8.8 0 4.4 4.4 0 1 0-8.8 0zm0 330a4.4 4.4 0 1 0 8.8 0 4.4 4.4 0 1 0-8.8 0zm0-341a4.4 4.4 0 1 0 8.8 0 4.4 4.4 0 1 0-8.8 0zm0 352a4.4 4.4 0 1 0 8.8 0 4.4 4.4 0 1 0-8.8 0zm0-363a4.4 4.4 0 1 0 8.8 0 4.4 4.4 0 1 0-8.8 0zm0 374a4.4 4.4 0 1 0 8.8 0 4.4 4.4 0 1 0-8.8 0zm11-187a4.4 4.4 0 1 0 8.8 0 4.4 4.4 0 1 0-8.8 0zm0-11a4.4 4.4 0 1 0 8.8 0 4.4 4.4 0 1 0-8.8 0zm0 22a4.4 4.4 0 1 0 8.8 0 4.4 4.4 0 1 0-8.8 0zm0-33a4.4 4.4 0 1 0 8.8 0 4.4 4.4 0 1 0-8.8 0zm0 44a4.4 4.4 0 1 0 8.8 0 4.4 4.4 0 1 0-8.8 0zm0-55a4.4 4.4 0 1 0 8.8 0 4.4 4.4 0 1 0-8.8 0zm0 66a4.4 4.4 0 1 0 8.8 0 4.4 4.4 0 1 0-8.8 0zm0-77a4.4 4.4 0 1 0 8.8 0 4.4 4.4 0 1 0-8.8 0zm0 88a4.4 4.4 0 1 0 8.8 0 4.4 4.4 0 1 0-8.8 0zm0-99a4.4 4.4 0 1 0 8.8 0 4.4 4.4 0 1 0-8.8 0zm0 110a4.4 4.4 0 1 0 8.8 0 4.4 4.4 0 1 0-8.8 0zm0-121a4.4 4.4 0 1 0 8.8 0 4.4 4.4 0 1 0-8.8 0zm0 132a4.4 4.4 0 1 0 8.8 0 4.4 4.4 0 1 0-8.8 0zm0-143a4.4 4.4 0 1 0 8.8 0 4.4 4.4 0 1 0-8.8 0zm0 154a4.4 4.4 0 1 0 8.8 0 4.4 4.4 0 1 0-8.8 0zm0-165a4.4 4.4 0 1 0 8.8 0 4.4 4.4 0 1 0-8.8 0zm0 176a4.4 4.4 0 1 0 8.8 0 4.4 4.4 0 1 0-8.8 0zm11-88a4.4 4.4 0 1 0 8.8 0 4.4 4.4 0 1 0-8.8 0zm0-11a4.4 4.4 0 1 0 8.8 0 4.4 4.4 0 1 0-8.8 0zm0 22a4.4 4.4 0 1 0 8.8 0 4.4 4.4 0 1 0-8.8 0zm0-33a4.4 4.4 0 1 0 8.8 0 4.4 4.4 0 1 0-8.8 0zm0 44a4.4 4.4 0 1 0 8.8 0 4.4 4.4 0 1 0-8.8 0zm11-22a4.4 4.4 0 1 0 8.8 0 4.4 4.4 0 1 0-8.8 0zm0-11a4.4 4.4 0 1 0 8.8 0 4.4 4.4 0 1 0-8.8 0zm0 22a4.4 4.4 0 1 0 8.8 0 4.4 4.4 0 1 0-8.8 0zm0-33a4.4 4.4 0 1 0 8.8 0 4.4 4.4 0 1 0-8.8 0zm0 44a4.4 4.4 0 1 0 8.8 0 4.4 4.4 0 1 0-8.8 0zm0-55a4.4 4.4 0 1 0 8.8 0 4.4 4.4 0 1 0-8.8 0zm0 66a4.4 4.4 0 1 0 8.8 0 4.4 4.4 0 1 0-8.8 0zm0-77a4.4 4.4 0 1 0 8.8 0 4.4 4.4 0 1 0-8.8 0zm0 88a4.4 4.4 0 1 0 8.8 0 4.4 4.4 0 1 0-8.8 0zm0-99a4.4 4.4 0 1 0 8.8 0 4.4 4.4 0 1 0-8.8 0zm0 110a4.4 4.4 0 1 0 8.8 0 4.4 4.4 0 1 0-8.8 0zm0-121a4.4 4.4 0 1 0 8.8 0 4.4 4.4 0 1 0-8.8 0zm0 132a4.4 4.4 0 1 0 8.8 0 4.4 4.4 0 1 0-8.8 0zm0-143a4.4 4.4 0 1 0 8.8 0 4.4 4.4 0 1 0-8.8 0zm0 154a4.4 4.4 0 1 0 8.8 0 4.4 4.4 0 1 0-8.8 0zm0-165a4.4 4.4 0 1 0 8.8 0 4.4 4.4 0 1 0-8.8 0zm0 176a4.4 4.4 0 1 0 8.8 0 4.4 4.4 0 1 0-8.8 0zm0-187a4.4 4.4 0 1 0 8.8 0 4.4 4.4 0 1 0-8.8 0zm0 198a4.4 4.4 0 1 0 8.8 0 4.4 4.4 0 1 0-8.8 0zm0-209a4.4 4.4 0 1 0 8.8 0 4.4 4.4 0 1 0-8.8 0zm0 220a4.4 4.4 0 1 0 8.8 0 4.4 4.4 0 1 0-8.8 0zm11-110a4.4 4.4 0 1 0 8.8 0 4.4 4.4 0 1 0-8.8 0zm0-11a4.4 4.4 0 1 0 8.8 0 4.4 4.4 0 1 0-8.8 0zm0 22a4.4 4.4 0 1 0 8.8 0 4.4 4.4 0 1 0-8.8 0zm0-33a4.4 4.4 0 1 0 8.8 0 4.4 4.4 0 1 0-8.8 0zm0 44a4.4 4.4 0 1 0 8.8 0 4.4 4.4 0 1 0-8.8 0zm0-55a4.4 4.4 0 1 0 8.8 0 4.4 4.4 0 1 0-8.8 0zm0 66a4.4 4.4 0 1 0 8.8 0 4.4 4.4 0 1 0-8.8 0zm0-77a4.4 4.4 0 1 0 8.8 0 4.4 4.4 0 1 0-8.8 0zm0 88a4.4 4.4 0 1 0 8.8 0 4.4 4.4 0 1 0-8.8 0zm0-99a4.4 4.4 0 1 0 8.8 0 4.4 4.4 0 1 0-8.8 0zm0 110a4.4 4.4 0 1 0 8.8 0 4.4 4.4 0 1 0-8.8 0zm11-55a4.4 4.4 0 1 0 8.8 0 4.4 4.4 0 1 0-8.8 0zm0-11a4.4 4.4 0 1 0 8.8 0 4.4 4.4 0 1 0-8.8 0zm0 22a4.4 4.4 0 1 0 8.8 0 4.4 4.4 0 1 0-8.8 0zm0-33a4.4 4.4 0 1 0 8.8 0 4.4 4.4 0 1 0-8.8 0zm0 44a4.4 4.4 0 1 0 8.8 0 4.4 4.4 0 1 0-8.8 0zm0-55a4.4 4.4 0 1 0 8.8 0 4.4 4.4 0 1 0-8.8 0zm0 66a4.4 4.4 0 1 0 8.8 0 4.4 4.4 0 1 0-8.8 0zm0-77a4.4 4.4 0 1 0 8.8 0 4.4 4.4 0 1 0-8.8 0zm0 88a4.4 4.4 0 1 0 8.8 0 4.4 4.4 0 1 0-8.8 0zm0-99a4.4 4.4 0 1 0 8.8 0 4.4 4.4 0 1 0-8.8 0zm0 110a4.4 4.4 0 1 0 8.8 0 4.4 4.4 0 1 0-8.8 0zm0-121a4.4 4.4 0 1 0 8.8 0 4.4 4.4 0 1 0-8.8 0zm0 132a4.4 4.4 0 1 0 8.8 0 4.4 4.4 0 1 0-8.8 0zm0-143a4.4 4.4 0 1 0 8.8 0 4.4 4.4 0 1 0-8.8 0zm0 154a4.4 4.4 0 1 0 8.8 0 4.4 4.4 0 1 0-8.8 0zm11-77a4.4 4.4 0 1 0 8.8 0 4.4 4.4 0 1 0-8.8 0zm0-11a4.4 4.4 0 1 0 8.8 0 4.4 4.4 0 1 0-8.8 0zm0 22a4.4 4.4 0 1 0 8.8 0 4.4 4.4 0 1 0-8.8 0zm0-33a4.4 4.4 0 1 0 8.8 0 4.4 4.4 0 1 0-8.8 0zm0 44a4.4 4.4 0 1 0 8.8 0 4.4 4.4 0 1 0-8.8 0zm0-55a4.4 4.4 0 1 0 8.8 0 4.4 4.4 0 1 0-8.8 0zm0 66a4.4 4.4 0 1 0 8.8 0 4.4 4.4 0 1 0-8.8 0zm0-77a4.4 4.4 0 1 0 8.8 0 4.4 4.4 0 1 0-8.8 0zm0 88a4.4 4.4 0 1 0 8.8 0 4.4 4.4 0 1 0-8.8 0zm0-99a4.4 4.4 0 1 0 8.8 0 4.4 4.4 0 1 0-8.8 0zm0 110a4.4 4.4 0 1 0 8.8 0 4.4 4.4 0 1 0-8.8 0zm0-121a4.4 4.4 0 1 0 8.8 0 4.4 4.4 0 1 0-8.8 0zm0 132a4.4 4.4 0 1 0 8.8 0 4.4 4.4 0 1 0-8.8 0zm0-143a4.4 4.4 0 1 0 8.8 0 4.4 4.4 0 1 0-8.8 0zm0 154a4.4 4.4 0 1 0 8.8 0 4.4 4.4 0 1 0-8.8 0zm0-165a4.4 4.4 0 1 0 8.8 0 4.4 4.4 0 1 0-8.8 0zm0 176a4.4 4.4 0 1 0 8.8 0 4.4 4.4 0 1 0-8.8 0zm0-187a4.4 4.4 0 1 0 8.8 0 4.4 4.4 0 1 0-8.8 0zm0 198a4.4 4.4 0 1 0 8.8 0 4.4 4.4 0 1 0-8.8 0zm0-209a4.4 4.4 0 1 0 8.8 0 4.4 4.4 0 1 0-8.8 0zm0 220a4.4 4.4 0 1 0 8.8 0 4.4 4.4 0 1 0-8.8 0zm11-110a4.4 4.4 0 1 0 8.8 0 4.4 4.4 0 1 0-8.8 0zm0-11a4.4 4.4 0 1 0 8.8 0 4.4 4.4 0 1 0-8.8 0zm0 22a4.4 4.4 0 1 0 8.8 0 4.4 4.4 0 1 0-8.8 0zm0-33a4.4 4.4 0 1 0 8.8 0 4.4 4.4 0 1 0-8.8 0zm0 44a4.4 4.4 0 1 0 8.8 0 4.4 4.4 0 1 0-8.8 0zm0-55a4.4 4.4 0 1 0 8.8 0 4.4 4.4 0 1 0-8.8 0zm0 66a4.4 4.4 0 1 0 8.8 0 4.4 4.4 0 1 0-8.8 0zm0-77a4.4 4.4 0 1 0 8.8 0 4.4 4.4 0 1 0-8.8 0zm0 88a4.4 4.4 0 1 0 8.8 0 4.4 4.4 0 1 0-8.8 0zm11-44a4.4 4.4 0 1 0 8.8 0 4.4 4.4 0 1 0-8.8 0zm0-11a4.4 4.4 0 1 0 8.8 0 4.4 4.4 0 1 0-8.8 0zm0 22a4.4 4.4 0 1 0 8.8 0 4.4 4.4 0 1 0-8.8 0zm0-33a4.4 4.4 0 1 0 8.8 0 4.4 4.4 0 1 0-8.8 0zm0 44a4.4 4.4 0 1 0 8.8 0 4.4 4.4 0 1 0-8.8 0zm0-55a4.4 4.4 0 1 0 8.8 0 4.4 4.4 0 1 0-8.8 0zm0 66a4.4 4.4 0 1 0 8.8 0 4.4 4.4 0 1 0-8.8 0zm0-77a4.4 4.4 0 1 0 8.8 0 4.4 4.4 0 1 0-8.8 0zm0 88a4.4 4.4 0 1 0 8.8 0 4.4 4.4 0 1 0-8.8 0zm11-44a4.4 4.4 0 1 0 8.8 0 4.4 4.4 0 1 0-8.8 0zm0-11a4.4 4.4 0 1 0 8.8 0 4.4 4.4 0 1 0-8.8 0zm0 22a4.4 4.4 0 1 0 8.8 0 4.4 4.4 0 1 0-8.8 0zm0-33a4.4 4.4 0 1 0 8.8 0 4.4 4.4 0 1 0-8.8 0zm0 44a4.4 4.4 0 1 0 8.8 0 4.4 4.4 0 1 0-8.8 0zm0-55a4.4 4.4 0 1 0 8.8 0 4.4 4.4 0 1 0-8.8 0zm0 66a4.4 4.4 0 1 0 8.8 0 4.4 4.4 0 1 0-8.8 0zm0-77a4.4 4.4 0 1 0 8.8 0 4.4 4.4 0 1 0-8.8 0zm0 88a4.4 4.4 0 1 0 8.8 0 4.4 4.4 0 1 0-8.8 0zm11-44a4.4 4.4 0 1 0 8.8 0 4.4 4.4 0 1 0-8.8 0zm0-11a4.4 4.4 0 1 0 8.8 0 4.4 4.4 0 1 0-8.8 0zm0 22a4.4 4.4 0 1 0 8.8 0 4.4 4.4 0 1 0-8.8 0zm0-33a4.4 4.4 0 1 0 8.8 0 4.4 4.4 0 1 0-8.8 0zm0 44a4.4 4.4 0 1 0 8.8 0 4.4 4.4 0 1 0-8.8 0zm0-55a4.4 4.4 0 1 0 8.8 0 4.4 4.4 0 1 0-8.8 0zm0 66a4.4 4.4 0 1 0 8.8 0 4.4 4.4 0 1 0-8.8 0zm0-77a4.4 4.4 0 1 0 8.8 0 4.4 4.4 0 1 0-8.8 0zm0 88a4.4 4.4 0 1 0 8.8 0 4.4 4.4 0 1 0-8.8 0zm0-99a4.4 4.4 0 1 0 8.8 0 4.4 4.4 0 1 0-8.8 0zm0 110a4.4 4.4 0 1 0 8.8 0 4.4 4.4 0 1 0-8.8 0zm0-121a4.4 4.4 0 1 0 8.8 0 4.4 4.4 0 1 0-8.8 0zm0 132a4.4 4.4 0 1 0 8.8 0 4.4 4.4 0 1 0-8.8 0zm0-143a4.4 4.4 0 1 0 8.8 0 4.4 4.4 0 1 0-8.8 0zm0 154a4.4 4.4 0 1 0 8.8 0 4.4 4.4 0 1 0-8.8 0zm0-165a4.4 4.4 0 1 0 8.8 0 4.4 4.4 0 1 0-8.8 0zm0 176a4.4 4.4 0 1 0 8.8 0 4.4 4.4 0 1 0-8.8 0zm0-187a4.4 4.4 0 1 0 8.8 0 4.4 4.4 0 1 0-8.8 0zm0 198a4.4 4.4 0 1 0 8.8 0 4.4 4.4 0 1 0-8.8 0zm0-209a4.4 4.4 0 1 0 8.8 0 4.4 4.4 0 1 0-8.8 0zm0 220a4.4 4.4 0 1 0 8.8 0 4.4 4.4 0 1 0-8.8 0zm0-231a4.4 4.4 0 1 0 8.8 0 4.4 4.4 0 1 0-8.8 0zm0 242a4.4 4.4 0 1 0 8.8 0 4.4 4.4 0 1 0-8.8 0zm0-253a4.4 4.4 0 1 0 8.8 0 4.4 4.4 0 1 0-8.8 0zm0 264a4.4 4.4 0 1 0 8.8 0 4.4 4.4 0 1 0-8.8 0zm11-132a4.4 4.4 0 1 0 8.8 0 4.4 4.4 0 1 0-8.8 0zm0-11a4.4 4.4 0 1 0 8.8 0 4.4 4.4 0 1 0-8.8 0zm0 22a4.4 4.4 0 1 0 8.8 0 4.4 4.4 0 1 0-8.8 0zm0-33a4.4 4.4 0 1 0 8.8 0 4.4 4.4 0 1 0-8.8 0zm0 44a4.4 4.4 0 1 0 8.8 0 4.4 4.4 0 1 0-8.8 0zm0-55a4.4 4.4 0 1 0 8.8 0 4.4 4.4 0 1 0-8.8 0zm0 66a4.4 4.4 0 1 0 8.8 0 4.4 4.4 0 1 0-8.8 0zm11-33a4.4 4.4 0 1 0 8.8 0 4.4 4.4 0 1 0-8.8 0zm0-11a4.4 4.4 0 1 0 8.8 0 4.4 4.4 0 1 0-8.8 0zm0 22a4.4 4.4 0 1 0 8.8 0 4.4 4.4 0 1 0-8.8 0zm0-33a4.4 4.4 0 1 0 8.8 0 4.4 4.4 0 1 0-8.8 0zm0 44a4.4 4.4 0 1 0 8.8 0 4.4 4.4 0 1 0-8.8 0zm0-55a4.4 4.4 0 1 0 8.8 0 4.4 4.4 0 1 0-8.8 0zm0 66a4.4 4.4 0 1 0 8.8 0 4.4 4.4 0 1 0-8.8 0zm0-77a4.4 4.4 0 1 0 8.8 0 4.4 4.4 0 1 0-8.8 0zm0 88a4.4 4.4 0 1 0 8.8 0 4.4 4.4 0 1 0-8.8 0zm0-99a4.4 4.4 0 1 0 8.8 0 4.4 4.4 0 1 0-8.8 0zm0 110a4.4 4.4 0 1 0 8.8 0 4.4 4.4 0 1 0-8.8 0zm0-121a4.4 4.4 0 1 0 8.8 0 4.4 4.4 0 1 0-8.8 0zm0 132a4.4 4.4 0 1 0 8.8 0 4.4 4.4 0 1 0-8.8 0zm0-143a4.4 4.4 0 1 0 8.8 0 4.4 4.4 0 1 0-8.8 0zm0 154a4.4 4.4 0 1 0 8.8 0 4.4 4.4 0 1 0-8.8 0zm0-165a4.4 4.4 0 1 0 8.8 0 4.4 4.4 0 1 0-8.8 0zm0 176a4.4 4.4 0 1 0 8.8 0 4.4 4.4 0 1 0-8.8 0zm0-187a4.4 4.4 0 1 0 8.8 0 4.4 4.4 0 1 0-8.8 0zm0 198a4.4 4.4 0 1 0 8.8 0 4.4 4.4 0 1 0-8.8 0zm0-209a4.4 4.4 0 1 0 8.8 0 4.4 4.4 0 1 0-8.8 0zm0 220a4.4 4.4 0 1 0 8.8 0 4.4 4.4 0 1 0-8.8 0zm0-231a4.4 4.4 0 1 0 8.8 0 4.4 4.4 0 1 0-8.8 0zm0 242a4.4 4.4 0 1 0 8.8 0 4.4 4.4 0 1 0-8.8 0zm0-253a4.4 4.4 0 1 0 8.8 0 4.4 4.4 0 1 0-8.8 0zm0 264a4.4 4.4 0 1 0 8.8 0 4.4 4.4 0 1 0-8.8 0zm0-275a4.4 4.4 0 1 0 8.8 0 4.4 4.4 0 1 0-8.8 0zm0 286a4.4 4.4 0 1 0 8.8 0 4.4 4.4 0 1 0-8.8 0zm0-297a4.4 4.4 0 1 0 8.8 0 4.4 4.4 0 1 0-8.8 0zm0 308a4.4 4.4 0 1 0 8.8 0 4.4 4.4 0 1 0-8.8 0zm0-319a4.4 4.4 0 1 0 8.8 0 4.4 4.4 0 1 0-8.8 0zm0 330a4.4 4.4 0 1 0 8.8 0 4.4 4.4 0 1 0-8.8 0zm0-341a4.4 4.4 0 1 0 8.8 0 4.4 4.4 0 1 0-8.8 0zm0 352a4.4 4.4 0 1 0 8.8 0 4.4 4.4 0 1 0-8.8 0zm11-176a4.4 4.4 0 1 0 8.8 0 4.4 4.4 0 1 0-8.8 0zm0-11a4.4 4.4 0 1 0 8.8 0 4.4 4.4 0 1 0-8.8 0zm0 22a4.4 4.4 0 1 0 8.8 0 4.4 4.4 0 1 0-8.8 0zm0-33a4.4 4.4 0 1 0 8.8 0 4.4 4.4 0 1 0-8.8 0zm0 44a4.4 4.4 0 1 0 8.8 0 4.4 4.4 0 1 0-8.8 0zm11-22a4.4 4.4 0 1 0 8.8 0 4.4 4.4 0 1 0-8.8 0zm0-11a4.4 4.4 0 1 0 8.8 0 4.4 4.4 0 1 0-8.8 0zm0 22a4.4 4.4 0 1 0 8.8 0 4.4 4.4 0 1 0-8.8 0zm0-33a4.4 4.4 0 1 0 8.8 0 4.4 4.4 0 1 0-8.8 0zm0 44a4.4 4.4 0 1 0 8.8 0 4.4 4.4 0 1 0-8.8 0zm11-22a4.4 4.4 0 1 0 8.8 0 4.4 4.4 0 1 0-8.8 0zm0-11a4.4 4.4 0 1 0 8.8 0 4.4 4.4 0 1 0-8.8 0zm0 22a4.4 4.4 0 1 0 8.8 0 4.4 4.4 0 1 0-8.8 0zm0-33a4.4 4.4 0 1 0 8.8 0 4.4 4.4 0 1 0-8.8 0zm0 44a4.4 4.4 0 1 0 8.8 0 4.4 4.4 0 1 0-8.8 0zm0-55a4.4 4.4 0 1 0 8.8 0 4.4 4.4 0 1 0-8.8 0zm0 66a4.4 4.4 0 1 0 8.8 0 4.4 4.4 0 1 0-8.8 0zm0-77a4.4 4.4 0 1 0 8.8 0 4.4 4.4 0 1 0-8.8 0zm0 88a4.4 4.4 0 1 0 8.8 0 4.4 4.4 0 1 0-8.8 0zm11-44a4.4 4.4 0 1 0 8.8 0 4.4 4.4 0 1 0-8.8 0zm0-11a4.4 4.4 0 1 0 8.8 0 4.4 4.4 0 1 0-8.8 0zm0 22a4.4 4.4 0 1 0 8.8 0 4.4 4.4 0 1 0-8.8 0zm0-33a4.4 4.4 0 1 0 8.8 0 4.4 4.4 0 1 0-8.8 0zm0 44a4.4 4.4 0 1 0 8.8 0 4.4 4.4 0 1 0-8.8 0zm0-55a4.4 4.4 0 1 0 8.8 0 4.4 4.4 0 1 0-8.8 0zm0 66a4.4 4.4 0 1 0 8.8 0 4.4 4.4 0 1 0-8.8 0zm0-77a4.4 4.4 0 1 0 8.8 0 4.4 4.4 0 1 0-8.8 0zm0 88a4.4 4.4 0 1 0 8.8 0 4.4 4.4 0 1 0-8.8 0zm0-99a4.4 4.4 0 1 0 8.8 0 4.4 4.4 0 1 0-8.8 0zm0 110a4.4 4.4 0 1 0 8.8 0 4.4 4.4 0 1 0-8.8 0zm0-121a4.4 4.4 0 1 0 8.8 0 4.4 4.4 0 1 0-8.8 0zm0 132a4.4 4.4 0 1 0 8.8 0 4.4 4.4 0 1 0-8.8 0zm0-143a4.4 4.4 0 1 0 8.8 0 4.4 4.4 0 1 0-8.8 0zm0 154a4.4 4.4 0 1 0 8.8 0 4.4 4.4 0 1 0-8.8 0zm0-165a4.4 4.4 0 1 0 8.8 0 4.4 4.4 0 1 0-8.8 0zm0 176a4.4 4.4 0 1 0 8.8 0 4.4 4.4 0 1 0-8.8 0zm0-187a4.4 4.4 0 1 0 8.8 0 4.4 4.4 0 1 0-8.8 0zm0 198a4.4 4.4 0 1 0 8.8 0 4.4 4.4 0 1 0-8.8 0zm0-209a4.4 4.4 0 1 0 8.8 0 4.4 4.4 0 1 0-8.8 0zm0 220a4.4 4.4 0 1 0 8.8 0 4.4 4.4 0 1 0-8.8 0zm0-231a4.4 4.4 0 1 0 8.8 0 4.4 4.4 0 1 0-8.8 0zm0 242a4.4 4.4 0 1 0 8.8 0 4.4 4.4 0 1 0-8.8 0zm0-253a4.4 4.4 0 1 0 8.8 0 4.4 4.4 0 1 0-8.8 0zm0 264a4.4 4.4 0 1 0 8.8 0 4.4 4.4 0 1 0-8.8 0zm0-275a4.4 4.4 0 1 0 8.8 0 4.4 4.4 0 1 0-8.8 0zm0 286a4.4 4.4 0 1 0 8.8 0 4.4 4.4 0 1 0-8.8 0zm11-143a4.4 4.4 0 1 0 8.8 0 4.4 4.4 0 1 0-8.8 0zm0-11a4.4 4.4 0 1 0 8.8 0 4.4 4.4 0 1 0-8.8 0zm0 22a4.4 4.4 0 1 0 8.8 0 4.4 4.4 0 1 0-8.8 0zm0-33a4.4 4.4 0 1 0 8.8 0 4.4 4.4 0 1 0-8.8 0zm0 44a4.4 4.4 0 1 0 8.8 0 4.4 4.4 0 1 0-8.8 0zm0-55a4.4 4.4 0 1 0 8.8 0 4.4 4.4 0 1 0-8.8 0zm0 66a4.4 4.4 0 1 0 8.8 0 4.4 4.4 0 1 0-8.8 0zm0-77a4.4 4.4 0 1 0 8.8 0 4.4 4.4 0 1 0-8.8 0zm0 88a4.4 4.4 0 1 0 8.8 0 4.4 4.4 0 1 0-8.8 0zm0-99a4.4 4.4 0 1 0 8.8 0 4.4 4.4 0 1 0-8.8 0zm0 110a4.4 4.4 0 1 0 8.8 0 4.4 4.4 0 1 0-8.8 0zm0-121a4.4 4.4 0 1 0 8.8 0 4.4 4.4 0 1 0-8.8 0zm0 132a4.4 4.4 0 1 0 8.8 0 4.4 4.4 0 1 0-8.8 0zm0-143a4.4 4.4 0 1 0 8.8 0 4.4 4.4 0 1 0-8.8 0zm0 154a4.4 4.4 0 1 0 8.8 0 4.4 4.4 0 1 0-8.8 0zm0-165a4.4 4.4 0 1 0 8.8 0 4.4 4.4 0 1 0-8.8 0zm0 176a4.4 4.4 0 1 0 8.8 0 4.4 4.4 0 1 0-8.8 0zm0-187a4.4 4.4 0 1 0 8.8 0 4.4 4.4 0 1 0-8.8 0zm0 198a4.4 4.4 0 1 0 8.8 0 4.4 4.4 0 1 0-8.8 0zm11-99a4.4 4.4 0 1 0 8.8 0 4.4 4.4 0 1 0-8.8 0zm0-11a4.4 4.4 0 1 0 8.8 0 4.4 4.4 0 1 0-8.8 0zm0 22a4.4 4.4 0 1 0 8.8 0 4.4 4.4 0 1 0-8.8 0zm0-33a4.4 4.4 0 1 0 8.8 0 4.4 4.4 0 1 0-8.8 0zm0 44a4.4 4.4 0 1 0 8.8 0 4.4 4.4 0 1 0-8.8 0zm0-55a4.4 4.4 0 1 0 8.8 0 4.4 4.4 0 1 0-8.8 0zm0 66a4.4 4.4 0 1 0 8.8 0 4.4 4.4 0 1 0-8.8 0zm0-77a4.4 4.4 0 1 0 8.8 0 4.4 4.4 0 1 0-8.8 0zm0 88a4.4 4.4 0 1 0 8.8 0 4.4 4.4 0 1 0-8.8 0zm0-99a4.4 4.4 0 1 0 8.8 0 4.4 4.4 0 1 0-8.8 0zm0 110a4.4 4.4 0 1 0 8.8 0 4.4 4.4 0 1 0-8.8 0zm11-55a4.4 4.4 0 1 0 8.8 0 4.4 4.4 0 1 0-8.8 0zm0-11a4.4 4.4 0 1 0 8.8 0 4.4 4.4 0 1 0-8.8 0zm0 22a4.4 4.4 0 1 0 8.8 0 4.4 4.4 0 1 0-8.8 0zm0-33a4.4 4.4 0 1 0 8.8 0 4.4 4.4 0 1 0-8.8 0zm0 44a4.4 4.4 0 1 0 8.8 0 4.4 4.4 0 1 0-8.8 0zm0-55a4.4 4.4 0 1 0 8.8 0 4.4 4.4 0 1 0-8.8 0zm0 66a4.4 4.4 0 1 0 8.8 0 4.4 4.4 0 1 0-8.8 0zm0-77a4.4 4.4 0 1 0 8.8 0 4.4 4.4 0 1 0-8.8 0zm0 88a4.4 4.4 0 1 0 8.8 0 4.4 4.4 0 1 0-8.8 0zm0-99a4.4 4.4 0 1 0 8.8 0 4.4 4.4 0 1 0-8.8 0zm0 110a4.4 4.4 0 1 0 8.8 0 4.4 4.4 0 1 0-8.8 0zm0-121a4.4 4.4 0 1 0 8.8 0 4.4 4.4 0 1 0-8.8 0zm0 132a4.4 4.4 0 1 0 8.8 0 4.4 4.4 0 1 0-8.8 0zm0-143a4.4 4.4 0 1 0 8.8 0 4.4 4.4 0 1 0-8.8 0zm0 154a4.4 4.4 0 1 0 8.8 0 4.4 4.4 0 1 0-8.8 0zm0-165a4.4 4.4 0 1 0 8.8 0 4.4 4.4 0 1 0-8.8 0zm0 176a4.4 4.4 0 1 0 8.8 0 4.4 4.4 0 1 0-8.8 0zm11-88a4.4 4.4 0 1 0 8.8 0 4.4 4.4 0 1 0-8.8 0zm0-11a4.4 4.4 0 1 0 8.8 0 4.4 4.4 0 1 0-8.8 0zm0 22a4.4 4.4 0 1 0 8.8 0 4.4 4.4 0 1 0-8.8 0zm11-11a4.4 4.4 0 1 0 8.8 0 4.4 4.4 0 1 0-8.8 0zm0-11a4.4 4.4 0 1 0 8.8 0 4.4 4.4 0 1 0-8.8 0zm0 22a4.4 4.4 0 1 0 8.8 0 4.4 4.4 0 1 0-8.8 0zm0-33a4.4 4.4 0 1 0 8.8 0 4.4 4.4 0 1 0-8.8 0zm0 44a4.4 4.4 0 1 0 8.8 0 4.4 4.4 0 1 0-8.8 0zm0-55a4.4 4.4 0 1 0 8.8 0 4.4 4.4 0 1 0-8.8 0zm0 66a4.4 4.4 0 1 0 8.8 0 4.4 4.4 0 1 0-8.8 0zm0-77a4.4 4.4 0 1 0 8.8 0 4.4 4.4 0 1 0-8.8 0zm0 88a4.4 4.4 0 1 0 8.8 0 4.4 4.4 0 1 0-8.8 0zm0-99a4.4 4.4 0 1 0 8.8 0 4.4 4.4 0 1 0-8.8 0zm0 110a4.4 4.4 0 1 0 8.8 0 4.4 4.4 0 1 0-8.8 0zm0-121a4.4 4.4 0 1 0 8.8 0 4.4 4.4 0 1 0-8.8 0zm0 132a4.4 4.4 0 1 0 8.8 0 4.4 4.4 0 1 0-8.8 0zm0-143a4.4 4.4 0 1 0 8.8 0 4.4 4.4 0 1 0-8.8 0zm0 154a4.4 4.4 0 1 0 8.8 0 4.4 4.4 0 1 0-8.8 0zm0-165a4.4 4.4 0 1 0 8.8 0 4.4 4.4 0 1 0-8.8 0zm0 176a4.4 4.4 0 1 0 8.8 0 4.4 4.4 0 1 0-8.8 0zm0-187a4.4 4.4 0 1 0 8.8 0 4.4 4.4 0 1 0-8.8 0zm0 198a4.4 4.4 0 1 0 8.8 0 4.4 4.4 0 1 0-8.8 0zm11-99a4.4 4.4 0 1 0 8.8 0 4.4 4.4 0 1 0-8.8 0zm0-11a4.4 4.4 0 1 0 8.8 0 4.4 4.4 0 1 0-8.8 0zm0 22a4.4 4.4 0 1 0 8.8 0 4.4 4.4 0 1 0-8.8 0zm0-33a4.4 4.4 0 1 0 8.8 0 4.4 4.4 0 1 0-8.8 0zm0 44a4.4 4.4 0 1 0 8.8 0 4.4 4.4 0 1 0-8.8 0zm0-55a4.4 4.4 0 1 0 8.8 0 4.4 4.4 0 1 0-8.8 0zm0 66a4.4 4.4 0 1 0 8.8 0 4.4 4.4 0 1 0-8.8 0zm0-77a4.4 4.4 0 1 0 8.8 0 4.4 4.4 0 1 0-8.8 0zm0 88a4.4 4.4 0 1 0 8.8 0 4.4 4.4 0 1 0-8.8 0zm11-44a4.4 4.4 0 1 0 8.8 0 4.4 4.4 0 1 0-8.8 0zm0-11a4.4 4.4 0 1 0 8.8 0 4.4 4.4 0 1 0-8.8 0zm0 22a4.4 4.4 0 1 0 8.8 0 4.4 4.4 0 1 0-8.8 0zm0-33a4.4 4.4 0 1 0 8.8 0 4.4 4.4 0 1 0-8.8 0zm0 44a4.4 4.4 0 1 0 8.8 0 4.4 4.4 0 1 0-8.8 0zm0-55a4.4 4.4 0 1 0 8.8 0 4.4 4.4 0 1 0-8.8 0zm0 66a4.4 4.4 0 1 0 8.8 0 4.4 4.4 0 1 0-8.8 0zm0-77a4.4 4.4 0 1 0 8.8 0 4.4 4.4 0 1 0-8.8 0zm0 88a4.4 4.4 0 1 0 8.8 0 4.4 4.4 0 1 0-8.8 0zm0-99a4.4 4.4 0 1 0 8.8 0 4.4 4.4 0 1 0-8.8 0zm0 110a4.4 4.4 0 1 0 8.8 0 4.4 4.4 0 1 0-8.8 0zm0-121a4.4 4.4 0 1 0 8.8 0 4.4 4.4 0 1 0-8.8 0zm0 132a4.4 4.4 0 1 0 8.8 0 4.4 4.4 0 1 0-8.8 0zm0-143a4.4 4.4 0 1 0 8.8 0 4.4 4.4 0 1 0-8.8 0zm0 154a4.4 4.4 0 1 0 8.8 0 4.4 4.4 0 1 0-8.8 0zm0-165a4.4 4.4 0 1 0 8.8 0 4.4 4.4 0 1 0-8.8 0zm0 176a4.4 4.4 0 1 0 8.8 0 4.4 4.4 0 1 0-8.8 0zm0-187a4.4 4.4 0 1 0 8.8 0 4.4 4.4 0 1 0-8.8 0zm0 198a4.4 4.4 0 1 0 8.8 0 4.4 4.4 0 1 0-8.8 0zm0-209a4.4 4.4 0 1 0 8.8 0 4.4 4.4 0 1 0-8.8 0zm0 220a4.4 4.4 0 1 0 8.8 0 4.4 4.4 0 1 0-8.8 0zm0-231a4.4 4.4 0 1 0 8.8 0 4.4 4.4 0 1 0-8.8 0zm0 242a4.4 4.4 0 1 0 8.8 0 4.4 4.4 0 1 0-8.8 0zm0-253a4.4 4.4 0 1 0 8.8 0 4.4 4.4 0 1 0-8.8 0zm0 264a4.4 4.4 0 1 0 8.8 0 4.4 4.4 0 1 0-8.8 0zm0-275a4.4 4.4 0 1 0 8.8 0 4.4 4.4 0 1 0-8.8 0zm0 286a4.4 4.4 0 1 0 8.8 0 4.4 4.4 0 1 0-8.8 0zm0-297a4.4 4.4 0 1 0 8.8 0 4.4 4.4 0 1 0-8.8 0zm0 308a4.4 4.4 0 1 0 8.8 0 4.4 4.4 0 1 0-8.8 0zm11-154a4.4 4.4 0 1 0 8.8 0 4.4 4.4 0 1 0-8.8 0zm0-11a4.4 4.4 0 1 0 8.8 0 4.4 4.4 0 1 0-8.8 0zm0 22a4.4 4.4 0 1 0 8.8 0 4.4 4.4 0 1 0-8.8 0zm0-33a4.4 4.4 0 1 0 8.8 0 4.4 4.4 0 1 0-8.8 0zm0 44a4.4 4.4 0 1 0 8.8 0 4.4 4.4 0 1 0-8.8 0zm0-55a4.4 4.4 0 1 0 8.8 0 4.4 4.4 0 1 0-8.8 0zm0 66a4.4 4.4 0 1 0 8.8 0 4.4 4.4 0 1 0-8.8 0zm0-77a4.4 4.4 0 1 0 8.8 0 4.4 4.4 0 1 0-8.8 0zm0 88a4.4 4.4 0 1 0 8.8 0 4.4 4.4 0 1 0-8.8 0zm0-99a4.4 4.4 0 1 0 8.8 0 4.4 4.4 0 1 0-8.8 0zm0 110a4.4 4.4 0 1 0 8.8 0 4.4 4.4 0 1 0-8.8 0zm0-121a4.4 4.4 0 1 0 8.8 0 4.4 4.4 0 1 0-8.8 0zm0 132a4.4 4.4 0 1 0 8.8 0 4.4 4.4 0 1 0-8.8 0zm0-143a4.4 4.4 0 1 0 8.8 0 4.4 4.4 0 1 0-8.8 0zm0 154a4.4 4.4 0 1 0 8.8 0 4.4 4.4 0 1 0-8.8 0zm0-165a4.4 4.4 0 1 0 8.8 0 4.4 4.4 0 1 0-8.8 0zm0 176a4.4 4.4 0 1 0 8.8 0 4.4 4.4 0 1 0-8.8 0zm0-187a4.4 4.4 0 1 0 8.8 0 4.4 4.4 0 1 0-8.8 0zm0 198a4.4 4.4 0 1 0 8.8 0 4.4 4.4 0 1 0-8.8 0zm0-209a4.4 4.4 0 1 0 8.8 0 4.4 4.4 0 1 0-8.8 0zm0 220a4.4 4.4 0 1 0 8.8 0 4.4 4.4 0 1 0-8.8 0zm0-231a4.4 4.4 0 1 0 8.8 0 4.4 4.4 0 1 0-8.8 0zm0 242a4.4 4.4 0 1 0 8.8 0 4.4 4.4 0 1 0-8.8 0zm0-253a4.4 4.4 0 1 0 8.8 0 4.4 4.4 0 1 0-8.8 0zm0 264a4.4 4.4 0 1 0 8.8 0 4.4 4.4 0 1 0-8.8 0zm0-275a4.4 4.4 0 1 0 8.8 0 4.4 4.4 0 1 0-8.8 0zm0 286a4.4 4.4 0 1 0 8.8 0 4.4 4.4 0 1 0-8.8 0zm11-143a4.4 4.4 0 1 0 8.8 0 4.4 4.4 0 1 0-8.8 0zm0-11a4.4 4.4 0 1 0 8.8 0 4.4 4.4 0 1 0-8.8 0zm0 22a4.4 4.4 0 1 0 8.8 0 4.4 4.4 0 1 0-8.8 0zm0-33a4.4 4.4 0 1 0 8.8 0 4.4 4.4 0 1 0-8.8 0zm0 44a4.4 4.4 0 1 0 8.8 0 4.4 4.4 0 1 0-8.8 0zm0-55a4.4 4.4 0 1 0 8.8 0 4.4 4.4 0 1 0-8.8 0zm0 66a4.4 4.4 0 1 0 8.8 0 4.4 4.4 0 1 0-8.8 0zm0-77a4.4 4.4 0 1 0 8.8 0 4.4 4.4 0 1 0-8.8 0zm0 88a4.4 4.4 0 1 0 8.8 0 4.4 4.4 0 1 0-8.8 0zm11-44a4.4 4.4 0 1 0 8.8 0 4.4 4.4 0 1 0-8.8 0zm0-11a4.4 4.4 0 1 0 8.8 0 4.4 4.4 0 1 0-8.8 0zm0 22a4.4 4.4 0 1 0 8.8 0 4.4 4.4 0 1 0-8.8 0zm0-33a4.4 4.4 0 1 0 8.8 0 4.4 4.4 0 1 0-8.8 0zm0 44a4.4 4.4 0 1 0 8.8 0 4.4 4.4 0 1 0-8.8 0zm0-55a4.4 4.4 0 1 0 8.8 0 4.4 4.4 0 1 0-8.8 0zm0 66a4.4 4.4 0 1 0 8.8 0 4.4 4.4 0 1 0-8.8 0zm0-77a4.4 4.4 0 1 0 8.8 0 4.4 4.4 0 1 0-8.8 0zm0 88a4.4 4.4 0 1 0 8.8 0 4.4 4.4 0 1 0-8.8 0zm0-99a4.4 4.4 0 1 0 8.8 0 4.4 4.4 0 1 0-8.8 0zm0 110a4.4 4.4 0 1 0 8.8 0 4.4 4.4 0 1 0-8.8 0zm0-121a4.4 4.4 0 1 0 8.8 0 4.4 4.4 0 1 0-8.8 0zm0 132a4.4 4.4 0 1 0 8.8 0 4.4 4.4 0 1 0-8.8 0zm0-143a4.4 4.4 0 1 0 8.8 0 4.4 4.4 0 1 0-8.8 0zm0 154a4.4 4.4 0 1 0 8.8 0 4.4 4.4 0 1 0-8.8 0zm0-165a4.4 4.4 0 1 0 8.8 0 4.4 4.4 0 1 0-8.8 0zm0 176a4.4 4.4 0 1 0 8.8 0 4.4 4.4 0 1 0-8.8 0zm0-187a4.4 4.4 0 1 0 8.8 0 4.4 4.4 0 1 0-8.8 0zm0 198a4.4 4.4 0 1 0 8.8 0 4.4 4.4 0 1 0-8.8 0zm0-209a4.4 4.4 0 1 0 8.8 0 4.4 4.4 0 1 0-8.8 0zm0 220a4.4 4.4 0 1 0 8.8 0 4.4 4.4 0 1 0-8.8 0zm0-231a4.4 4.4 0 1 0 8.8 0 4.4 4.4 0 1 0-8.8 0zm0 242a4.4 4.4 0 1 0 8.8 0 4.4 4.4 0 1 0-8.8 0zm0-253a4.4 4.4 0 1 0 8.8 0 4.4 4.4 0 1 0-8.8 0zm0 264a4.4 4.4 0 1 0 8.8 0 4.4 4.4 0 1 0-8.8 0zm0-275a4.4 4.4 0 1 0 8.8 0 4.4 4.4 0 1 0-8.8 0zm0 286a4.4 4.4 0 1 0 8.8 0 4.4 4.4 0 1 0-8.8 0zm0-297a4.4 4.4 0 1 0 8.8 0 4.4 4.4 0 1 0-8.8 0zm0 308a4.4 4.4 0 1 0 8.8 0 4.4 4.4 0 1 0-8.8 0zm0-319a4.4 4.4 0 1 0 8.8 0 4.4 4.4 0 1 0-8.8 0zm0 330a4.4 4.4 0 1 0 8.8 0 4.4 4.4 0 1 0-8.8 0zm11-165a4.4 4.4 0 1 0 8.8 0 4.4 4.4 0 1 0-8.8 0zm0-11a4.4 4.4 0 1 0 8.8 0 4.4 4.4 0 1 0-8.8 0zm0 22a4.4 4.4 0 1 0 8.8 0 4.4 4.4 0 1 0-8.8 0zm0-33a4.4 4.4 0 1 0 8.8 0 4.4 4.4 0 1 0-8.8 0zm0 44a4.4 4.4 0 1 0 8.8 0 4.4 4.4 0 1 0-8.8 0zm0-55a4.4 4.4 0 1 0 8.8 0 4.4 4.4 0 1 0-8.8 0zm0 66a4.4 4.4 0 1 0 8.8 0 4.4 4.4 0 1 0-8.8 0zm0-77a4.4 4.4 0 1 0 8.8 0 4.4 4.4 0 1 0-8.8 0zm0 88a4.4 4.4 0 1 0 8.8 0 4.4 4.4 0 1 0-8.8 0zm0-99a4.4 4.4 0 1 0 8.8 0 4.4 4.4 0 1 0-8.8 0zm0 110a4.4 4.4 0 1 0 8.8 0 4.4 4.4 0 1 0-8.8 0zm0-121a4.4 4.4 0 1 0 8.8 0 4.4 4.4 0 1 0-8.8 0zm0 132a4.4 4.4 0 1 0 8.8 0 4.4 4.4 0 1 0-8.8 0zm0-143a4.4 4.4 0 1 0 8.8 0 4.4 4.4 0 1 0-8.8 0zm0 154a4.4 4.4 0 1 0 8.8 0 4.4 4.4 0 1 0-8.8 0zm11-77a4.4 4.4 0 1 0 8.8 0 4.4 4.4 0 1 0-8.8 0zm0-11a4.4 4.4 0 1 0 8.8 0 4.4 4.4 0 1 0-8.8 0zm0 22a4.4 4.4 0 1 0 8.8 0 4.4 4.4 0 1 0-8.8 0zm0-33a4.4 4.4 0 1 0 8.8 0 4.4 4.4 0 1 0-8.8 0zm0 44a4.4 4.4 0 1 0 8.8 0 4.4 4.4 0 1 0-8.8 0zm0-55a4.4 4.4 0 1 0 8.8 0 4.4 4.4 0 1 0-8.8 0zm0 66a4.4 4.4 0 1 0 8.8 0 4.4 4.4 0 1 0-8.8 0zm0-77a4.4 4.4 0 1 0 8.8 0 4.4 4.4 0 1 0-8.8 0zm0 88a4.4 4.4 0 1 0 8.8 0 4.4 4.4 0 1 0-8.8 0zm0-99a4.4 4.4 0 1 0 8.8 0 4.4 4.4 0 1 0-8.8 0zm0 110a4.4 4.4 0 1 0 8.8 0 4.4 4.4 0 1 0-8.8 0zm0-121a4.4 4.4 0 1 0 8.8 0 4.4 4.4 0 1 0-8.8 0zm0 132a4.4 4.4 0 1 0 8.8 0 4.4 4.4 0 1 0-8.8 0zm0-143a4.4 4.4 0 1 0 8.8 0 4.4 4.4 0 1 0-8.8 0zm0 154a4.4 4.4 0 1 0 8.8 0 4.4 4.4 0 1 0-8.8 0zm0-165a4.4 4.4 0 1 0 8.8 0 4.4 4.4 0 1 0-8.8 0zm0 176a4.4 4.4 0 1 0 8.8 0 4.4 4.4 0 1 0-8.8 0zm11-88a4.4 4.4 0 1 0 8.8 0 4.4 4.4 0 1 0-8.8 0zm0-11a4.4 4.4 0 1 0 8.8 0 4.4 4.4 0 1 0-8.8 0zm0 22a4.4 4.4 0 1 0 8.8 0 4.4 4.4 0 1 0-8.8 0zm0-33a4.4 4.4 0 1 0 8.8 0 4.4 4.4 0 1 0-8.8 0zm0 44a4.4 4.4 0 1 0 8.8 0 4.4 4.4 0 1 0-8.8 0zm0-55a4.4 4.4 0 1 0 8.8 0 4.4 4.4 0 1 0-8.8 0zm0 66a4.4 4.4 0 1 0 8.8 0 4.4 4.4 0 1 0-8.8 0zm0-77a4.4 4.4 0 1 0 8.8 0 4.4 4.4 0 1 0-8.8 0zm0 88a4.4 4.4 0 1 0 8.8 0 4.4 4.4 0 1 0-8.8 0zm0-99a4.4 4.4 0 1 0 8.8 0 4.4 4.4 0 1 0-8.8 0zm0 110a4.4 4.4 0 1 0 8.8 0 4.4 4.4 0 1 0-8.8 0zm0-121a4.4 4.4 0 1 0 8.8 0 4.4 4.4 0 1 0-8.8 0zm0 132a4.4 4.4 0 1 0 8.8 0 4.4 4.4 0 1 0-8.8 0zm0-143a4.4 4.4 0 1 0 8.8 0 4.4 4.4 0 1 0-8.8 0zm0 154a4.4 4.4 0 1 0 8.8 0 4.4 4.4 0 1 0-8.8 0zm0-165a4.4 4.4 0 1 0 8.8 0 4.4 4.4 0 1 0-8.8 0zm0 176a4.4 4.4 0 1 0 8.8 0 4.4 4.4 0 1 0-8.8 0zm0-187a4.4 4.4 0 1 0 8.8 0 4.4 4.4 0 1 0-8.8 0zm0 198a4.4 4.4 0 1 0 8.8 0 4.4 4.4 0 1 0-8.8 0zm0-209a4.4 4.4 0 1 0 8.8 0 4.4 4.4 0 1 0-8.8 0zm0 220a4.4 4.4 0 1 0 8.8 0 4.4 4.4 0 1 0-8.8 0zm0-231a4.4 4.4 0 1 0 8.8 0 4.4 4.4 0 1 0-8.8 0zm0 242a4.4 4.4 0 1 0 8.8 0 4.4 4.4 0 1 0-8.8 0zm0-253a4.4 4.4 0 1 0 8.8 0 4.4 4.4 0 1 0-8.8 0zm0 264a4.4 4.4 0 1 0 8.8 0 4.4 4.4 0 1 0-8.8 0zm0-275a4.4 4.4 0 1 0 8.8 0 4.4 4.4 0 1 0-8.8 0zm0 286a4.4 4.4 0 1 0 8.8 0 4.4 4.4 0 1 0-8.8 0zm0-297a4.4 4.4 0 1 0 8.8 0 4.4 4.4 0 1 0-8.8 0zm0 308a4.4 4.4 0 1 0 8.8 0 4.4 4.4 0 1 0-8.8 0zm11-154a4.4 4.4 0 1 0 8.8 0 4.4 4.4 0 1 0-8.8 0zm0-11a4.4 4.4 0 1 0 8.8 0 4.4 4.4 0 1 0-8.8 0zm0 22a4.4 4.4 0 1 0 8.8 0 4.4 4.4 0 1 0-8.8 0zm0-33a4.4 4.4 0 1 0 8.8 0 4.4 4.4 0 1 0-8.8 0zm0 44a4.4 4.4 0 1 0 8.8 0 4.4 4.4 0 1 0-8.8 0zm0-55a4.4 4.4 0 1 0 8.8 0 4.4 4.4 0 1 0-8.8 0zm0 66a4.4 4.4 0 1 0 8.8 0 4.4 4.4 0 1 0-8.8 0zm0-77a4.4 4.4 0 1 0 8.8 0 4.4 4.4 0 1 0-8.8 0zm0 88a4.4 4.4 0 1 0 8.8 0 4.4 4.4 0 1 0-8.8 0zm0-99a4.4 4.4 0 1 0 8.8 0 4.4 4.4 0 1 0-8.8 0zm0 110a4.4 4.4 0 1 0 8.8 0 4.4 4.4 0 1 0-8.8 0zm0-121a4.4 4.4 0 1 0 8.8 0 4.4 4.4 0 1 0-8.8 0zm0 132a4.4 4.4 0 1 0 8.8 0 4.4 4.4 0 1 0-8.8 0zm0-143a4.4 4.4 0 1 0 8.8 0 4.4 4.4 0 1 0-8.8 0zm0 154a4.4 4.4 0 1 0 8.8 0 4.4 4.4 0 1 0-8.8 0zm11-77a4.4 4.4 0 1 0 8.8 0 4.4 4.4 0 1 0-8.8 0zm0-11a4.4 4.4 0 1 0 8.8 0 4.4 4.4 0 1 0-8.8 0zm0 22a4.4 4.4 0 1 0 8.8 0 4.4 4.4 0 1 0-8.8 0zm0-33a4.4 4.4 0 1 0 8.8 0 4.4 4.4 0 1 0-8.8 0zm0 44a4.4 4.4 0 1 0 8.8 0 4.4 4.4 0 1 0-8.8 0zm0-55a4.4 4.4 0 1 0 8.8 0 4.4 4.4 0 1 0-8.8 0zm0 66a4.4 4.4 0 1 0 8.8 0 4.4 4.4 0 1 0-8.8 0zm0-77a4.4 4.4 0 1 0 8.8 0 4.4 4.4 0 1 0-8.8 0zm0 88a4.4 4.4 0 1 0 8.8 0 4.4 4.4 0 1 0-8.8 0zm0-99a4.4 4.4 0 1 0 8.8 0 4.4 4.4 0 1 0-8.8 0zm0 110a4.4 4.4 0 1 0 8.8 0 4.4 4.4 0 1 0-8.8 0zm0-121a4.4 4.4 0 1 0 8.8 0 4.4 4.4 0 1 0-8.8 0zm0 132a4.4 4.4 0 1 0 8.8 0 4.4 4.4 0 1 0-8.8 0zm0-143a4.4 4.4 0 1 0 8.8 0 4.4 4.4 0 1 0-8.8 0zm0 154a4.4 4.4 0 1 0 8.8 0 4.4 4.4 0 1 0-8.8 0zm0-165a4.4 4.4 0 1 0 8.8 0 4.4 4.4 0 1 0-8.8 0zm0 176a4.4 4.4 0 1 0 8.8 0 4.4 4.4 0 1 0-8.8 0zm0-187a4.4 4.4 0 1 0 8.8 0 4.4 4.4 0 1 0-8.8 0zm0 198a4.4 4.4 0 1 0 8.8 0 4.4 4.4 0 1 0-8.8 0zm11-99a4.4 4.4 0 1 0 8.8 0 4.4 4.4 0 1 0-8.8 0zm0-11a4.4 4.4 0 1 0 8.8 0 4.4 4.4 0 1 0-8.8 0zm0 22a4.4 4.4 0 1 0 8.8 0 4.4 4.4 0 1 0-8.8 0zm0-33a4.4 4.4 0 1 0 8.8 0 4.4 4.4 0 1 0-8.8 0zm0 44a4.4 4.4 0 1 0 8.8 0 4.4 4.4 0 1 0-8.8 0zm0-55a4.4 4.4 0 1 0 8.8 0 4.4 4.4 0 1 0-8.8 0zm0 66a4.4 4.4 0 1 0 8.8 0 4.4 4.4 0 1 0-8.8 0zm0-77a4.4 4.4 0 1 0 8.8 0 4.4 4.4 0 1 0-8.8 0zm0 88a4.4 4.4 0 1 0 8.8 0 4.4 4.4 0 1 0-8.8 0zm0-99a4.4 4.4 0 1 0 8.8 0 4.4 4.4 0 1 0-8.8 0zm0 110a4.4 4.4 0 1 0 8.8 0 4.4 4.4 0 1 0-8.8 0zm0-121a4.4 4.4 0 1 0 8.8 0 4.4 4.4 0 1 0-8.8 0zm0 132a4.4 4.4 0 1 0 8.8 0 4.4 4.4 0 1 0-8.8 0zm0-143a4.4 4.4 0 1 0 8.8 0 4.4 4.4 0 1 0-8.8 0zm0 154a4.4 4.4 0 1 0 8.8 0 4.4 4.4 0 1 0-8.8 0zm11-77a4.4 4.4 0 1 0 8.8 0 4.4 4.4 0 1 0-8.8 0zm0-11a4.4 4.4 0 1 0 8.8 0 4.4 4.4 0 1 0-8.8 0zm0 22a4.4 4.4 0 1 0 8.8 0 4.4 4.4 0 1 0-8.8 0zm0-33a4.4 4.4 0 1 0 8.8 0 4.4 4.4 0 1 0-8.8 0zm0 44a4.4 4.4 0 1 0 8.8 0 4.4 4.4 0 1 0-8.8 0zm0-55a4.4 4.4 0 1 0 8.8 0 4.4 4.4 0 1 0-8.8 0zm0 66a4.4 4.4 0 1 0 8.8 0 4.4 4.4 0 1 0-8.8 0zm0-77a4.4 4.4 0 1 0 8.8 0 4.4 4.4 0 1 0-8.8 0zm0 88a4.4 4.4 0 1 0 8.8 0 4.4 4.4 0 1 0-8.8 0zm0-99a4.4 4.4 0 1 0 8.8 0 4.4 4.4 0 1 0-8.8 0zm0 110a4.4 4.4 0 1 0 8.8 0 4.4 4.4 0 1 0-8.8 0zm0-121a4.4 4.4 0 1 0 8.8 0 4.4 4.4 0 1 0-8.8 0zm0 132a4.4 4.4 0 1 0 8.8 0 4.4 4.4 0 1 0-8.8 0zm0-143a4.4 4.4 0 1 0 8.8 0 4.4 4.4 0 1 0-8.8 0zm0 154a4.4 4.4 0 1 0 8.8 0 4.4 4.4 0 1 0-8.8 0zm0-165a4.4 4.4 0 1 0 8.8 0 4.4 4.4 0 1 0-8.8 0zm0 176a4.4 4.4 0 1 0 8.8 0 4.4 4.4 0 1 0-8.8 0zm0-187a4.4 4.4 0 1 0 8.8 0 4.4 4.4 0 1 0-8.8 0zm0 198a4.4 4.4 0 1 0 8.8 0 4.4 4.4 0 1 0-8.8 0zm0-209a4.4 4.4 0 1 0 8.8 0 4.4 4.4 0 1 0-8.8 0zm0 220a4.4 4.4 0 1 0 8.8 0 4.4 4.4 0 1 0-8.8 0zm0-231a4.4 4.4 0 1 0 8.8 0 4.4 4.4 0 1 0-8.8 0zm0 242a4.4 4.4 0 1 0 8.8 0 4.4 4.4 0 1 0-8.8 0zm0-253a4.4 4.4 0 1 0 8.8 0 4.4 4.4 0 1 0-8.8 0zm0 264a4.4 4.4 0 1 0 8.8 0 4.4 4.4 0 1 0-8.8 0zm0-275a4.4 4.4 0 1 0 8.8 0 4.4 4.4 0 1 0-8.8 0zm0 286a4.4 4.4 0 1 0 8.8 0 4.4 4.4 0 1 0-8.8 0zm11-143a4.4 4.4 0 1 0 8.8 0 4.4 4.4 0 1 0-8.8 0zm0-11a4.4 4.4 0 1 0 8.8 0 4.4 4.4 0 1 0-8.8 0zm0 22a4.4 4.4 0 1 0 8.8 0 4.4 4.4 0 1 0-8.8 0zm0-33a4.4 4.4 0 1 0 8.8 0 4.4 4.4 0 1 0-8.8 0zm0 44a4.4 4.4 0 1 0 8.8 0 4.4 4.4 0 1 0-8.8 0zm0-55a4.4 4.4 0 1 0 8.8 0 4.4 4.4 0 1 0-8.8 0zm0 66a4.4 4.4 0 1 0 8.8 0 4.4 4.4 0 1 0-8.8 0zm0-77a4.4 4.4 0 1 0 8.8 0 4.4 4.4 0 1 0-8.8 0zm0 88a4.4 4.4 0 1 0 8.8 0 4.4 4.4 0 1 0-8.8 0zm0-99a4.4 4.4 0 1 0 8.8 0 4.4 4.4 0 1 0-8.8 0zm0 110a4.4 4.4 0 1 0 8.8 0 4.4 4.4 0 1 0-8.8 0zm0-121a4.4 4.4 0 1 0 8.8 0 4.4 4.4 0 1 0-8.8 0zm0 132a4.4 4.4 0 1 0 8.8 0 4.4 4.4 0 1 0-8.8 0zm0-143a4.4 4.4 0 1 0 8.8 0 4.4 4.4 0 1 0-8.8 0zm0 154a4.4 4.4 0 1 0 8.8 0 4.4 4.4 0 1 0-8.8 0zm0-165a4.4 4.4 0 1 0 8.8 0 4.4 4.4 0 1 0-8.8 0zm0 176a4.4 4.4 0 1 0 8.8 0 4.4 4.4 0 1 0-8.8 0zm11-88a4.4 4.4 0 1 0 8.8 0 4.4 4.4 0 1 0-8.8 0zm0-11a4.4 4.4 0 1 0 8.8 0 4.4 4.4 0 1 0-8.8 0zm0 22a4.4 4.4 0 1 0 8.8 0 4.4 4.4 0 1 0-8.8 0zm0-33a4.4 4.4 0 1 0 8.8 0 4.4 4.4 0 1 0-8.8 0zm0 44a4.4 4.4 0 1 0 8.8 0 4.4 4.4 0 1 0-8.8 0zm0-55a4.4 4.4 0 1 0 8.8 0 4.4 4.4 0 1 0-8.8 0zm0 66a4.4 4.4 0 1 0 8.8 0 4.4 4.4 0 1 0-8.8 0zm0-77a4.4 4.4 0 1 0 8.8 0 4.4 4.4 0 1 0-8.8 0zm0 88a4.4 4.4 0 1 0 8.8 0 4.4 4.4 0 1 0-8.8 0zm11-44a4.4 4.4 0 1 0 8.8 0 4.4 4.4 0 1 0-8.8 0zm0-11a4.4 4.4 0 1 0 8.8 0 4.4 4.4 0 1 0-8.8 0zm0 22a4.4 4.4 0 1 0 8.8 0 4.4 4.4 0 1 0-8.8 0zm0-33a4.4 4.4 0 1 0 8.8 0 4.4 4.4 0 1 0-8.8 0zm0 44a4.4 4.4 0 1 0 8.8 0 4.4 4.4 0 1 0-8.8 0zm0-55a4.4 4.4 0 1 0 8.8 0 4.4 4.4 0 1 0-8.8 0zm0 66a4.4 4.4 0 1 0 8.8 0 4.4 4.4 0 1 0-8.8 0zm11-33a4.4 4.4 0 1 0 8.8 0 4.4 4.4 0 1 0-8.8 0zm0-11a4.4 4.4 0 1 0 8.8 0 4.4 4.4 0 1 0-8.8 0zm0 22a4.4 4.4 0 1 0 8.8 0 4.4 4.4 0 1 0-8.8 0zm0-33a4.4 4.4 0 1 0 8.8 0 4.4 4.4 0 1 0-8.8 0zm0 44a4.4 4.4 0 1 0 8.8 0 4.4 4.4 0 1 0-8.8 0zm0-55a4.4 4.4 0 1 0 8.8 0 4.4 4.4 0 1 0-8.8 0zm0 66a4.4 4.4 0 1 0 8.8 0 4.4 4.4 0 1 0-8.8 0zm0-77a4.4 4.4 0 1 0 8.8 0 4.4 4.4 0 1 0-8.8 0zm0 88a4.4 4.4 0 1 0 8.8 0 4.4 4.4 0 1 0-8.8 0zm0-99a4.4 4.4 0 1 0 8.8 0 4.4 4.4 0 1 0-8.8 0zm0 110a4.4 4.4 0 1 0 8.8 0 4.4 4.4 0 1 0-8.8 0zm0-121a4.4 4.4 0 1 0 8.8 0 4.4 4.4 0 1 0-8.8 0zm0 132a4.4 4.4 0 1 0 8.8 0 4.4 4.4 0 1 0-8.8 0zm0-143a4.4 4.4 0 1 0 8.8 0 4.4 4.4 0 1 0-8.8 0zm0 154a4.4 4.4 0 1 0 8.8 0 4.4 4.4 0 1 0-8.8 0zm0-165a4.4 4.4 0 1 0 8.8 0 4.4 4.4 0 1 0-8.8 0zm0 176a4.4 4.4 0 1 0 8.8 0 4.4 4.4 0 1 0-8.8 0zm0-187a4.4 4.4 0 1 0 8.8 0 4.4 4.4 0 1 0-8.8 0zm0 198a4.4 4.4 0 1 0 8.8 0 4.4 4.4 0 1 0-8.8 0zm0-209a4.4 4.4 0 1 0 8.8 0 4.4 4.4 0 1 0-8.8 0zm0 220a4.4 4.4 0 1 0 8.8 0 4.4 4.4 0 1 0-8.8 0zm0-231a4.4 4.4 0 1 0 8.8 0 4.4 4.4 0 1 0-8.8 0zm0 242a4.4 4.4 0 1 0 8.8 0 4.4 4.4 0 1 0-8.8 0zm0-253a4.4 4.4 0 1 0 8.8 0 4.4 4.4 0 1 0-8.8 0zm0 264a4.4 4.4 0 1 0 8.8 0 4.4 4.4 0 1 0-8.8 0zm0-275a4.4 4.4 0 1 0 8.8 0 4.4 4.4 0 1 0-8.8 0zm0 286a4.4 4.4 0 1 0 8.8 0 4.4 4.4 0 1 0-8.8 0zm0-297a4.4 4.4 0 1 0 8.8 0 4.4 4.4 0 1 0-8.8 0zm0 308a4.4 4.4 0 1 0 8.8 0 4.4 4.4 0 1 0-8.8 0zm11-154a4.4 4.4 0 1 0 8.8 0 4.4 4.4 0 1 0-8.8 0zm0-11a4.4 4.4 0 1 0 8.8 0 4.4 4.4 0 1 0-8.8 0zm0 22a4.4 4.4 0 1 0 8.8 0 4.4 4.4 0 1 0-8.8 0zm0-33a4.4 4.4 0 1 0 8.8 0 4.4 4.4 0 1 0-8.8 0zm0 44a4.4 4.4 0 1 0 8.8 0 4.4 4.4 0 1 0-8.8 0zm0-55a4.4 4.4 0 1 0 8.8 0 4.4 4.4 0 1 0-8.8 0zm0 66a4.4 4.4 0 1 0 8.8 0 4.4 4.4 0 1 0-8.8 0zm0-77a4.4 4.4 0 1 0 8.8 0 4.4 4.4 0 1 0-8.8 0zm0 88a4.4 4.4 0 1 0 8.8 0 4.4 4.4 0 1 0-8.8 0zm0-99a4.4 4.4 0 1 0 8.8 0 4.4 4.4 0 1 0-8.8 0zm0 110a4.4 4.4 0 1 0 8.8 0 4.4 4.4 0 1 0-8.8 0zm0-121a4.4 4.4 0 1 0 8.8 0 4.4 4.4 0 1 0-8.8 0zm0 132a4.4 4.4 0 1 0 8.8 0 4.4 4.4 0 1 0-8.8 0zm0-143a4.4 4.4 0 1 0 8.8 0 4.4 4.4 0 1 0-8.8 0zm0 154a4.4 4.4 0 1 0 8.8 0 4.4 4.4 0 1 0-8.8 0zm0-165a4.4 4.4 0 1 0 8.8 0 4.4 4.4 0 1 0-8.8 0zm0 176a4.4 4.4 0 1 0 8.8 0 4.4 4.4 0 1 0-8.8 0zm0-187a4.4 4.4 0 1 0 8.8 0 4.4 4.4 0 1 0-8.8 0zm0 198a4.4 4.4 0 1 0 8.8 0 4.4 4.4 0 1 0-8.8 0zm0-209a4.4 4.4 0 1 0 8.8 0 4.4 4.4 0 1 0-8.8 0zm0 220a4.4 4.4 0 1 0 8.8 0 4.4 4.4 0 1 0-8.8 0zm0-231a4.4 4.4 0 1 0 8.8 0 4.4 4.4 0 1 0-8.8 0zm0 242a4.4 4.4 0 1 0 8.8 0 4.4 4.4 0 1 0-8.8 0zm0-253a4.4 4.4 0 1 0 8.8 0 4.4 4.4 0 1 0-8.8 0zm0 264a4.4 4.4 0 1 0 8.8 0 4.4 4.4 0 1 0-8.8 0zm0-275a4.4 4.4 0 1 0 8.8 0 4.4 4.4 0 1 0-8.8 0zm0 286a4.4 4.4 0 1 0 8.8 0 4.4 4.4 0 1 0-8.8 0zm0-297a4.4 4.4 0 1 0 8.8 0 4.4 4.4 0 1 0-8.8 0zm0 308a4.4 4.4 0 1 0 8.8 0 4.4 4.4 0 1 0-8.8 0zm0-319a4.4 4.4 0 1 0 8.8 0 4.4 4.4 0 1 0-8.8 0zm0 330a4.4 4.4 0 1 0 8.8 0 4.4 4.4 0 1 0-8.8 0zm11-165a4.4 4.4 0 1 0 8.8 0 4.4 4.4 0 1 0-8.8 0zm0-11a4.4 4.4 0 1 0 8.8 0 4.4 4.4 0 1 0-8.8 0zm0 22a4.4 4.4 0 1 0 8.8 0 4.4 4.4 0 1 0-8.8 0zm0-33a4.4 4.4 0 1 0 8.8 0 4.4 4.4 0 1 0-8.8 0zm0 44a4.4 4.4 0 1 0 8.8 0 4.4 4.4 0 1 0-8.8 0zm0-55a4.4 4.4 0 1 0 8.8 0 4.4 4.4 0 1 0-8.8 0zm0 66a4.4 4.4 0 1 0 8.8 0 4.4 4.4 0 1 0-8.8 0zm0-77a4.4 4.4 0 1 0 8.8 0 4.4 4.4 0 1 0-8.8 0zm0 88a4.4 4.4 0 1 0 8.8 0 4.4 4.4 0 1 0-8.8 0zm0-99a4.4 4.4 0 1 0 8.8 0 4.4 4.4 0 1 0-8.8 0zm0 110a4.4 4.4 0 1 0 8.8 0 4.4 4.4 0 1 0-8.8 0zm0-121a4.4 4.4 0 1 0 8.8 0 4.4 4.4 0 1 0-8.8 0zm0 132a4.4 4.4 0 1 0 8.8 0 4.4 4.4 0 1 0-8.8 0zm0-143a4.4 4.4 0 1 0 8.8 0 4.4 4.4 0 1 0-8.8 0zm0 154a4.4 4.4 0 1 0 8.8 0 4.4 4.4 0 1 0-8.8 0zm0-165a4.4 4.4 0 1 0 8.8 0 4.4 4.4 0 1 0-8.8 0zm0 176a4.4 4.4 0 1 0 8.8 0 4.4 4.4 0 1 0-8.8 0zm0-187a4.4 4.4 0 1 0 8.8 0 4.4 4.4 0 1 0-8.8 0zm0 198a4.4 4.4 0 1 0 8.8 0 4.4 4.4 0 1 0-8.8 0zm0-209a4.4 4.4 0 1 0 8.8 0 4.4 4.4 0 1 0-8.8 0zm0 220a4.4 4.4 0 1 0 8.8 0 4.4 4.4 0 1 0-8.8 0zm0-231a4.4 4.4 0 1 0 8.8 0 4.4 4.4 0 1 0-8.8 0zm0 242a4.4 4.4 0 1 0 8.8 0 4.4 4.4 0 1 0-8.8 0zm0-253a4.4 4.4 0 1 0 8.8 0 4.4 4.4 0 1 0-8.8 0zm0 264a4.4 4.4 0 1 0 8.8 0 4.4 4.4 0 1 0-8.8 0zm0-275a4.4 4.4 0 1 0 8.8 0 4.4 4.4 0 1 0-8.8 0zm0 286a4.4 4.4 0 1 0 8.8 0 4.4 4.4 0 1 0-8.8 0zm11-143a4.4 4.4 0 1 0 8.8 0 4.4 4.4 0 1 0-8.8 0zm0-11a4.4 4.4 0 1 0 8.8 0 4.4 4.4 0 1 0-8.8 0zm0 22a4.4 4.4 0 1 0 8.8 0 4.4 4.4 0 1 0-8.8 0zm0-33a4.4 4.4 0 1 0 8.8 0 4.4 4.4 0 1 0-8.8 0zm0 44a4.4 4.4 0 1 0 8.8 0 4.4 4.4 0 1 0-8.8 0zm0-55a4.4 4.4 0 1 0 8.8 0 4.4 4.4 0 1 0-8.8 0zm0 66a4.4 4.4 0 1 0 8.8 0 4.4 4.4 0 1 0-8.8 0zm0-77a4.4 4.4 0 1 0 8.8 0 4.4 4.4 0 1 0-8.8 0zm0 88a4.4 4.4 0 1 0 8.8 0 4.4 4.4 0 1 0-8.8 0zm0-99a4.4 4.4 0 1 0 8.8 0 4.4 4.4 0 1 0-8.8 0zm0 110a4.4 4.4 0 1 0 8.8 0 4.4 4.4 0 1 0-8.8 0zm0-121a4.4 4.4 0 1 0 8.8 0 4.4 4.4 0 1 0-8.8 0zm0 132a4.4 4.4 0 1 0 8.8 0 4.4 4.4 0 1 0-8.8 0zm0-143a4.4 4.4 0 1 0 8.8 0 4.4 4.4 0 1 0-8.8 0zm0 154a4.4 4.4 0 1 0 8.8 0 4.4 4.4 0 1 0-8.8 0z" fill="url(#b)"/></g><defs><linearGradient x1="216" y1="280" x2="1224" y2="280" gradientUnits="userSpaceOnUse" id="b"><stop stop-color="#3a7cc3" offset="0"/><stop stop-color="#d13" offset="1"/></linearGradient><mask id="a"><path fill="#fff" d="M0 0h1440v560H0z"/></mask></defs></svg>